<?xml version="1.0" standalone="no"?>
<!DOCTYPE svg PUBLIC "-//W3C//DTD SVG 20010904//EN"
 "http://www.w3.org/TR/2001/REC-SVG-20010904/DTD/svg10.dtd">
<svg version="1.0" xmlns="http://www.w3.org/2000/svg"
 width="78.000000pt" height="78.000000pt" viewBox="0 0 78.000000 78.000000"
 preserveAspectRatio="xMidYMid meet">
<metadata>
Created by potrace 1.11, written by Peter Selinger 2001-2013
</metadata>
<g transform="translate(0.000000,78.000000) scale(0.100000,-0.100000)"
fill="#000000" stroke="none">
<path d="M338 751 c-32 -10 -80 -35 -107 -54 -45 -33 -54 -35 -103 -31 -59 6
-64 3 -96 -43 -21 -30 -30 -97 -14 -105 4 -2 20 -18 36 -36 25 -27 29 -39 27
-78 -1 -26 -8 -56 -14 -68 -12 -19 -14 -37 -7 -58 1 -5 3 -11 4 -15 5 -22 33
-53 48 -53 10 0 22 -10 29 -21 31 -59 114 -123 194 -149 138 -46 319 7 388
113 34 52 29 102 -18 172 -44 68 -43 106 5 161 39 45 53 80 46 119 -8 38 -47
85 -73 85 -10 0 -34 11 -53 25 -18 13 -37 22 -41 19 -5 -3 -9 -1 -9 4 0 29
-166 38 -242 13z"/>
</g>
</svg>
