<?xml version="1.0" encoding="utf-8"?>
<!-- Generator: Adobe Illustrator 14.0.0, SVG Export Plug-In . SVG Version: 6.00 Build 43363)  -->
<!DOCTYPE svg PUBLIC "-//W3C//DTD SVG 1.1//EN" "http://www.w3.org/Graphics/SVG/1.1/DTD/svg11.dtd">
<svg version="1.1" id="Layer_1" xmlns="http://www.w3.org/2000/svg" xmlns:xlink="http://www.w3.org/1999/xlink" x="0px" y="0px"
	 width="210px" height="210px" viewBox="0 0 210 210" enable-background="new 0 0 210 210" xml:space="preserve">
<path fill="#F7674E" d="M199.339,59.905c6.006,0,10.925,4.748,10.65,10.552c-0.272,43.525-0.818,87.048-1.364,130.312v0.262
	c0,5.012-4.372,8.97-9.286,8.97l0,0l-90.934-1.056c-4.492,0.033-8.159-3.578-8.194-8.068c0-0.037,0-0.073,0-0.105l0,0
	c0-4.488,3.551-7.918,8.194-8.181l90.934-1.052l-9.283,8.966c-0.546-43.522-1.092-87.052-1.365-130.308
	c0-5.804,4.914-10.287,10.648-10.287V59.905L199.339,59.905z"/>
</svg>
