<?xml version="1.0" encoding="utf-8"?>
<!-- Generator: Adobe Illustrator 14.0.0, SVG Export Plug-In . SVG Version: 6.00 Build 43363)  -->
<!DOCTYPE svg PUBLIC "-//W3C//DTD SVG 1.1//EN" "http://www.w3.org/Graphics/SVG/1.1/DTD/svg11.dtd">
<svg version="1.1" id="Layer_1" xmlns="http://www.w3.org/2000/svg" xmlns:xlink="http://www.w3.org/1999/xlink" x="0px" y="0px"
	 width="210px" height="210px" viewBox="0 0 210 210" enable-background="new 0 0 210 210" xml:space="preserve">
<path fill="#F7674E" d="M10.661,150.093c-6.008,0-10.924-4.748-10.65-10.552C0.282,96.017,0.83,52.492,1.377,9.232V8.968
	C1.377,3.956,5.746,0,10.662,0l0,0l90.937,1.055c4.491-0.035,8.16,3.578,8.191,8.069c0,0.035,0,0.071,0,0.108l0,0
	c0,4.484-3.551,7.914-8.191,8.177l-90.938,1.053l9.284-8.968c0.548,43.525,1.095,87.05,1.366,130.31
	C21.311,145.607,16.396,150.092,10.661,150.093L10.661,150.093z"/>
</svg>
