<?xml version="1.0" encoding="utf-8"?>
<!-- Generator: Adobe Illustrator 14.0.0, SVG Export Plug-In . SVG Version: 6.00 Build 43363)  -->
<!DOCTYPE svg PUBLIC "-//W3C//DTD SVG 1.1//EN" "http://www.w3.org/Graphics/SVG/1.1/DTD/svg11.dtd">
<svg version="1.1" id="Layer_1" xmlns="http://www.w3.org/2000/svg" xmlns:xlink="http://www.w3.org/1999/xlink" x="0px" y="0px"
	 width="210px" height="210px" viewBox="0 0 210 210" enable-background="new 0 0 210 210" xml:space="preserve">
<path fill="#F7674E" d="M186.79,145.881c0.272-43.26,0.818-86.522,2.185-129.782l9.283,8.967
	c-60.624,3.432-121.247,5.276-181.6,6.595C7.375,31.925,0.001,24.802,0.001,15.835l0,0c0-8.969,7.646-16.09,16.657-15.828
	C77.283,1.59,137.906,3.7,198.257,7.13h0.271c4.903,0.249,8.87,4.079,9.287,8.969c1.365,43.26,1.911,86.522,2.185,129.782
	c0,6.33-5.185,11.344-11.743,11.344l0,0C191.976,156.961,186.79,151.947,186.79,145.881z"/>
</svg>
