<?xml version="1.0" encoding="utf-8"?>
<!-- Generator: Adobe Illustrator 14.0.0, SVG Export Plug-In . SVG Version: 6.00 Build 43363)  -->
<!DOCTYPE svg PUBLIC "-//W3C//DTD SVG 1.1//EN" "http://www.w3.org/Graphics/SVG/1.1/DTD/svg11.dtd">
<svg version="1.1" id="Layer_1" xmlns="http://www.w3.org/2000/svg" xmlns:xlink="http://www.w3.org/1999/xlink" x="0px" y="0px"
	 width="210px" height="210px" viewBox="0 0 210 210" enable-background="new 0 0 210 210" xml:space="preserve">
<path fill="#F7674E" d="M23.214,64.121c-0.274,43.262-0.819,86.521-2.187,129.78l-9.285-8.969
	c60.624-3.43,121.249-5.275,181.6-6.592c9.287-0.266,16.658,6.854,16.658,15.826l0,0c0,8.965-7.646,16.086-16.658,15.826
	c-60.623-1.582-121.248-3.693-181.6-7.119H11.47c-4.902-0.252-8.867-4.082-9.285-8.973C0.819,150.642,0.272,107.381,0,64.12
	c0-6.328,5.185-11.346,11.742-11.346l0,0C18.024,53.041,23.214,58.053,23.214,64.121z"/>
</svg>
