<svg xmlns="http://www.w3.org/2000/svg" viewBox="0 0 23.913 21.681"><defs><style>.a{fill:#006381;}</style></defs><path class="a" d="M12.521,456.4c-3.254-.087-8.741.318-9.718-.3a4.956,4.956,0,0,1-2.516-3.341c-.3-1.779-.13-11.063-.043-14.924a1.526,1.526,0,0,1,1.28-1.818c5.732-1.277,20.92-2.638,21.62,1.818.237-.109,1.627,17.733.355,17.716-.319,0-2.388,1.076-2.662-.533-.737-4.336.354-14.974-1.281-16.522-.793-.825-3.445-1.179-6.4-1.075-3.885.137-7.519.228-8.914.626-1.156.3-1.334,1.865-1.443,2.422a43.5,43.5,0,0,0-.269,10.885c.229,1.313.8,1.472,1.376,1.459,2.68-.065,5.664.111,8.611.032.663-.029,4.454-.12,7.68-.154,1.173-.012,2.428-.012,2.943.02l.491,2.7C23.591,456.4,13.519,456.439,12.521,456.4Z" transform="translate(-0.115 -434.765)"/></svg>