<svg xmlns="http://www.w3.org/2000/svg" width="27.273" height="27.273" viewBox="0 0 27.273 27.273">
  <g id="Groupe_1222" data-name="Groupe 1222" transform="translate(-32 -162)">
    <g id="collaboration" transform="translate(32 162)">
      <path id="Tracé_924" data-name="Tracé 924" d="M187.733,124.013v-2.727a1.818,1.818,0,0,1,1.818-1.818h0a4.066,4.066,0,0,0,3.636,0h0a1.818,1.818,0,0,1,1.818,1.818v2.727a.909.909,0,0,1-.909.909h-5.455A.909.909,0,0,1,187.733,124.013Z" transform="translate(-177.733 -113.103)" fill="#ec603e"/>
      <circle id="Ellipse_190" data-name="Ellipse 190" cx="2.273" cy="2.273" r="2.273" transform="translate(11.364 0.455)" fill="#ffd4b0"/>
      <g id="Groupe_1218" data-name="Groupe 1218" transform="translate(2.727 2.736)">
        <path id="Tracé_925" data-name="Tracé 925" d="M51.654,77.323a.455.455,0,0,1-.455-.455,10.9,10.9,0,0,1,6.64-10.043.455.455,0,0,1,.356.836h0a9.991,9.991,0,0,0-6.087,9.206A.455.455,0,0,1,51.654,77.323Z" transform="translate(-51.2 -65.968)"/>
        <path id="Tracé_926" data-name="Tracé 926" d="M331.085,77.322a.455.455,0,0,1-.455-.455,9.991,9.991,0,0,0-6.087-9.206.455.455,0,1,1,.356-.836,10.9,10.9,0,0,1,6.64,10.043A.455.455,0,0,1,331.085,77.322Z" transform="translate(-309.721 -65.967)"/>
        <path id="Tracé_927" data-name="Tracé 927" d="M175.212,429.882a10.851,10.851,0,0,1-4.269-.867.455.455,0,1,1,.356-.836,10.082,10.082,0,0,0,7.826,0,.455.455,0,0,1,.356.836A10.851,10.851,0,0,1,175.212,429.882Z" transform="translate(-164.302 -408.071)"/>
        <path id="Tracé_928" data-name="Tracé 928" d="M172.014,421.313a.454.454,0,0,1-.4-.244l-.909-1.74a.454.454,0,0,1,.192-.613.492.492,0,0,1,.083-.034l1.818-.533a.455.455,0,0,1,.255.873l-1.287.377.653,1.249a.455.455,0,0,1-.4.665Z" transform="translate(-164.287 -398.594)"/>
        <path id="Tracé_929" data-name="Tracé 929" d="M420.05,224.237a.453.453,0,0,1-.321-.133l-1.364-1.364a.455.455,0,0,1,.643-.643l1.042,1.042,1.042-1.042a.455.455,0,0,1,.643.643l-1.364,1.364A.453.453,0,0,1,420.05,224.237Z" transform="translate(-398.685 -212.882)"/>
        <path id="Tracé_930" data-name="Tracé 930" d="M138.188,54.992a.446.446,0,0,1-.2-.045.455.455,0,0,1-.213-.606l.709-1.479-1.4-.636a.455.455,0,0,1,.377-.826l1.818.83a.455.455,0,0,1,.223.6l0,.005-.909,1.9A.455.455,0,0,1,138.188,54.992Z" transform="translate(-132.278 -51.365)"/>
      </g>
      <path id="Tracé_931" data-name="Tracé 931" d="M225.141,17.169a2.263,2.263,0,0,1-3.171,3.171,2.266,2.266,0,1,0,3.171-3.171Z" transform="translate(-210.146 -16.254)" fill="#edc4a2"/>
      <circle id="Ellipse_191" data-name="Ellipse 191" cx="2.273" cy="2.273" r="2.273" transform="translate(20.91 15.455)" fill="#ffd4b0"/>
      <path id="Tracé_932" data-name="Tracé 932" d="M404.341,298.769a2.263,2.263,0,0,1-3.171,3.171,2.266,2.266,0,1,0,3.171-3.171Z" transform="translate(-379.8 -282.854)" fill="#edc4a2"/>
      <circle id="Ellipse_192" data-name="Ellipse 192" cx="2.273" cy="2.273" r="2.273" transform="translate(1.818 15.455)" fill="#ffd4b0"/>
      <path id="Tracé_933" data-name="Tracé 933" d="M45.941,298.769a2.263,2.263,0,0,1-3.171,3.171,2.266,2.266,0,1,0,3.171-3.171Z" transform="translate(-40.492 -282.854)" fill="#edc4a2"/>
      <path id="Tracé_934" data-name="Tracé 934" d="M187.733,140.347a.909.909,0,0,0,.909.909H194.1a.909.909,0,0,0,.909-.909V137.62a1.8,1.8,0,0,0-.247-.9A8.62,8.62,0,0,1,187.733,140.347Z" transform="translate(-177.733 -129.438)" fill="#fff" opacity="0.169"/>
      <path id="Tracé_935" data-name="Tracé 935" d="M8.533,405.613v-2.727a1.818,1.818,0,0,1,1.818-1.818h0a4.066,4.066,0,0,0,3.636,0h0a1.818,1.818,0,0,1,1.818,1.818v2.727a.909.909,0,0,1-.909.909H9.442A.909.909,0,0,1,8.533,405.613Z" transform="translate(-8.078 -379.703)" fill="#fbbe44"/>
      <path id="Tracé_936" data-name="Tracé 936" d="M8.533,421.947a.909.909,0,0,0,.909.909H14.9a.909.909,0,0,0,.909-.909V419.22a1.8,1.8,0,0,0-.247-.9A8.62,8.62,0,0,1,8.533,421.947Z" transform="translate(-8.078 -396.038)" fill="#fff" opacity="0.491"/>
      <path id="Tracé_937" data-name="Tracé 937" d="M366.933,405.613v-2.727a1.818,1.818,0,0,1,1.818-1.818h0a4.066,4.066,0,0,0,3.636,0h0a1.818,1.818,0,0,1,1.818,1.818v2.727a.909.909,0,0,1-.909.909h-5.455A.909.909,0,0,1,366.933,405.613Z" transform="translate(-347.387 -379.703)" fill="#006381"/>
      <path id="Tracé_938" data-name="Tracé 938" d="M366.933,421.947a.909.909,0,0,0,.909.909H373.3a.909.909,0,0,0,.909-.909V419.22a1.8,1.8,0,0,0-.247-.9A8.62,8.62,0,0,1,366.933,421.947Z" transform="translate(-347.387 -396.038)" fill="#fff" opacity="0.258"/>
      <path id="Tracé_939" data-name="Tracé 939" d="M210.255,2.727a2.727,2.727,0,1,0-2.727,2.727A2.727,2.727,0,0,0,210.255,2.727Zm-4.546,0a1.818,1.818,0,1,1,1.818,1.818A1.818,1.818,0,0,1,205.709,2.727Z" transform="translate(-193.891 0)"/>
      <path id="Tracé_940" data-name="Tracé 940" d="M179.2,113.206v2.727a1.364,1.364,0,0,0,1.364,1.364h5.455a1.364,1.364,0,0,0,1.364-1.364v-2.727a2.275,2.275,0,0,0-2.273-2.273H185l-.1.048a3.624,3.624,0,0,1-3.23,0l-.1-.048h-.107A2.275,2.275,0,0,0,179.2,113.206Zm.909,0a1.364,1.364,0,0,1,1.267-1.36,4.549,4.549,0,0,0,3.83,0,1.364,1.364,0,0,1,1.267,1.36v2.727a.455.455,0,0,1-.455.455h-5.455a.455.455,0,0,1-.455-.455Z" transform="translate(-169.654 -105.024)"/>
      <path id="Tracé_941" data-name="Tracé 941" d="M386.727,281.6a2.727,2.727,0,1,0,2.727,2.727A2.727,2.727,0,0,0,386.727,281.6Zm0,4.546a1.818,1.818,0,1,1,1.818-1.818A1.818,1.818,0,0,1,386.727,286.146Z" transform="translate(-363.545 -266.6)"/>
      <path id="Tracé_942" data-name="Tracé 942" d="M364.307,392.533H364.2l-.1.045a3.624,3.624,0,0,1-3.23,0l-.1-.045h-.107a2.275,2.275,0,0,0-2.273,2.273v2.727a1.364,1.364,0,0,0,1.364,1.364h5.455a1.364,1.364,0,0,0,1.364-1.364v-2.727A2.275,2.275,0,0,0,364.307,392.533Zm1.364,5a.455.455,0,0,1-.455.455h-5.455a.455.455,0,0,1-.455-.455v-2.727a1.364,1.364,0,0,1,1.267-1.36,4.549,4.549,0,0,0,3.83,0,1.364,1.364,0,0,1,1.267,1.36Z" transform="translate(-339.307 -371.623)"/>
      <path id="Tracé_943" data-name="Tracé 943" d="M28.327,281.6a2.727,2.727,0,1,0,2.727,2.727A2.727,2.727,0,0,0,28.327,281.6Zm0,4.546a1.818,1.818,0,1,1,1.818-1.818A1.818,1.818,0,0,1,28.327,286.146Z" transform="translate(-24.236 -266.6)"/>
      <path id="Tracé_944" data-name="Tracé 944" d="M1.364,398.9H6.818a1.364,1.364,0,0,0,1.364-1.364v-2.727a2.275,2.275,0,0,0-2.273-2.273H5.8l-.1.045a3.624,3.624,0,0,1-3.23,0l-.1-.045H2.273A2.275,2.275,0,0,0,0,394.806v2.727A1.364,1.364,0,0,0,1.364,398.9Zm-.455-4.091a1.364,1.364,0,0,1,1.267-1.36,4.549,4.549,0,0,0,3.83,0,1.364,1.364,0,0,1,1.267,1.36v2.727a.455.455,0,0,1-.455.455H1.364a.455.455,0,0,1-.455-.455v-2.727Z" transform="translate(0 -371.623)"/>
    </g>
  </g>
</svg>
