<svg xmlns="http://www.w3.org/2000/svg" width="28.164" height="28.143" viewBox="0 0 28.164 28.143">
  <g id="contract" transform="translate(-23.689)">
    <rect id="Rectangle_1446" data-name="Rectangle 1446" width="18.794" height="21.894" transform="translate(32.602 2.184)" fill="#ebebeb"/>
    <path id="Tracé_843" data-name="Tracé 843" d="M193.022,49.184H174.227a.455.455,0,0,1-.457-.457V26.833a.455.455,0,0,1,.457-.457h18.794a.455.455,0,0,1,.457.457V48.727A.455.455,0,0,1,193.022,49.184Zm-18.337-.914h17.931V27.29H174.684Z" transform="translate(-141.625 -24.649)"/>
    <rect id="Rectangle_1447" data-name="Rectangle 1447" width="15.29" height="18.389" transform="translate(34.359 3.911)" fill="#fff"/>
    <path id="Tracé_844" data-name="Tracé 844" d="M83.621,278.687c.711.356,2.794,1.219,2.743-.3.711.254,1.371-.051,1.321-.864a.952.952,0,0,0,1.321-.965c1.321.254,1.422-1.118.813-1.93a10.825,10.825,0,0,0-1.575-1.473c-.864-.762-1.676-1.575-2.54-2.235a4.321,4.321,0,0,0-1.981-.61,7.506,7.506,0,0,1-3.454-1.118L77.576,273.2c.356.356.813.762,1.219,1.168" transform="translate(-51.73 -251.561)" fill="#fbbe44"/>
    <path id="Tracé_845" data-name="Tracé 845" d="M79.112,273.9a5.362,5.362,0,0,1-2.083-.61.454.454,0,0,1,.406-.813c.711.356,1.676.66,1.981.457.1-.051.1-.152.1-.356a.4.4,0,0,1,.152-.356.383.383,0,0,1,.406-.051c.406.152.762.051.762-.406a.4.4,0,0,1,.152-.356.383.383,0,0,1,.406-.051c.457.152.711-.1.762-.559a.307.307,0,0,1,.152-.3.429.429,0,0,1,.356-.1q.457.076.61-.152a.993.993,0,0,0-.2-1.067,13.516,13.516,0,0,0-1.219-1.168l-.3-.254c-.3-.254-.559-.508-.864-.762-.559-.508-1.118-1.016-1.676-1.473a2.932,2.932,0,0,0-1.371-.457c-.152,0-.3-.051-.406-.051-.2-.051-.406-.051-.61-.1a7.24,7.24,0,0,1-2.641-.813l-2.235,3.3a2.211,2.211,0,0,0,.356.3,6.084,6.084,0,0,0,.61.559.431.431,0,0,1-.61.61c-.2-.2-.406-.356-.61-.559a6.083,6.083,0,0,0-.61-.559.4.4,0,0,1-.051-.559l2.692-4.013a.466.466,0,0,1,.3-.2.864.864,0,0,1,.356.051,5.683,5.683,0,0,0,2.692.914c.2.051.406.051.61.1a1.117,1.117,0,0,0,.406.051,3.73,3.73,0,0,1,1.727.61c.61.457,1.219,1.016,1.778,1.524.254.254.559.508.813.762l.3.254a10.336,10.336,0,0,1,1.321,1.27,2,2,0,0,1,.3,2.083,1.359,1.359,0,0,1-1.067.61,1.326,1.326,0,0,1-1.321,1.016,1.2,1.2,0,0,1-1.321.864A1.335,1.335,0,0,1,79.112,273.9Z" transform="translate(-45.341 -245.763)"/>
    <path id="Tracé_846" data-name="Tracé 846" d="M147.781,250.312,152,253.969l1.778-.813v-4.623l-6.35-1.067-2.692,2.388a1.06,1.06,0,0,0-.051,1.524h0a1.007,1.007,0,0,0,1.27.152Z" transform="translate(-114.163 -231.263)" fill="#fbbe44"/>
    <path id="Tracé_847" data-name="Tracé 847" d="M145.013,247.9a.722.722,0,0,1-.3-.1l-3.962-3.454-1.625,1.016a1.433,1.433,0,0,1-.762.2h0a1.418,1.418,0,0,1-1.016-.406,1.534,1.534,0,0,1,.051-2.184l2.692-2.388a.484.484,0,0,1,.356-.1l6.35,1.067a.445.445,0,0,1,.356.457v4.623a.518.518,0,0,1-.254.406l-1.778.813A.176.176,0,0,1,145.013,247.9Zm-4.216-4.572a.722.722,0,0,1,.3.1l3.962,3.454,1.27-.559v-3.962l-5.791-.965L138,243.632a.587.587,0,0,0,.66.965l1.879-1.168A.857.857,0,0,1,140.8,243.327Z" transform="translate(-107.179 -224.735)"/>
    <path id="Tracé_848" data-name="Tracé 848" d="M54.4,246.52l-2.845,4.216a.881.881,0,0,0,1.473.965l2.845-4.216a.89.89,0,0,0-.254-1.219A.9.9,0,0,0,54.4,246.52Z" transform="translate(-27.28 -230.011)" fill="#fff"/>
    <path id="Tracé_849" data-name="Tracé 849" d="M45.979,246.955h0a2.129,2.129,0,0,1-.762-.2,1.311,1.311,0,0,1-.356-1.829l2.845-4.216a1.317,1.317,0,1,1,2.184,1.473L47.045,246.4A1.2,1.2,0,0,1,45.979,246.955Zm2.438-5.791-2.845,4.216a.437.437,0,1,0,.711.508l2.845-4.216a.415.415,0,0,0-.1-.61A.427.427,0,0,0,48.417,241.164Z" transform="translate(-20.945 -224.401)"/>
    <path id="Tracé_850" data-name="Tracé 850" d="M288.859,252.684V247.6a.914.914,0,1,0-1.829,0v5.08a.911.911,0,0,0,.914.914A.982.982,0,0,0,288.859,252.684Z" transform="translate(-247.469 -230.536)" fill="#fff"/>
    <path id="Tracé_851" data-name="Tracé 851" d="M282.145,248.205h0a1.345,1.345,0,0,1-1.321-1.321V241.8a1.321,1.321,0,1,1,2.641,0v5.08A1.281,1.281,0,0,1,282.145,248.205Zm0-6.858a.455.455,0,0,0-.457.457v5.08a.457.457,0,1,0,.914,0V241.8A.455.455,0,0,0,282.145,241.348Z" transform="translate(-241.669 -224.737)"/>
    <path id="Tracé_852" data-name="Tracé 852" d="M215.1,347.956a.722.722,0,0,1-.3-.1l-2.184-1.981a.433.433,0,0,1,.559-.66l2.184,1.981a.418.418,0,0,1,.051.61A.439.439,0,0,1,215.1,347.956Z" transform="translate(-177.772 -322.506)"/>
    <path id="Tracé_853" data-name="Tracé 853" d="M197.778,366.32a.722.722,0,0,1-.3-.1l-1.93-1.727a.433.433,0,1,1,.559-.66l1.93,1.727a.418.418,0,0,1,.051.61A.307.307,0,0,1,197.778,366.32Z" transform="translate(-161.823 -339.905)"/>
    <path id="Tracé_854" data-name="Tracé 854" d="M189.127,387.4a.439.439,0,0,1-.3-.152l-1.168-1.168a.431.431,0,0,1,.61-.61l1.168,1.168a.464.464,0,0,1,0,.61A.362.362,0,0,1,189.127,387.4Z" transform="translate(-154.493 -360.125)"/>
    <path id="Tracé_855" data-name="Tracé 855" d="M143.366,389.407h0a.871.871,0,0,0-1.219-.051l-.61.508a.865.865,0,0,0,1.117,1.321l.61-.508A.9.9,0,0,0,143.366,389.407Z" transform="translate(-111.221 -363.653)" fill="#fdbf5e"/>
    <path id="Tracé_856" data-name="Tracé 856" d="M136.974,385.493h0a1.251,1.251,0,0,1-.965-.457,1.291,1.291,0,0,1,.152-1.829l.61-.508a1.3,1.3,0,0,1,1.676,1.981l-.61.508A1.38,1.38,0,0,1,136.974,385.493Zm.61-2.235a.328.328,0,0,0-.254.1l-.61.508a.433.433,0,0,0,.559.66l.61-.508a.463.463,0,0,0,.051-.61A.675.675,0,0,0,137.583,383.258Z" transform="translate(-106.048 -357.351)"/>
    <path id="Tracé_857" data-name="Tracé 857" d="M90.242,341.565a.736.736,0,0,0-1.067-.051l-.508.406a.736.736,0,0,0-.051,1.067h0a.736.736,0,0,0,1.067.051l.508-.406A.738.738,0,0,0,90.242,341.565Z" transform="translate(-61.856 -318.96)" fill="#fdbf5e"/>
    <path id="Tracé_858" data-name="Tracé 858" d="M83.866,337.563h0a1.272,1.272,0,0,1-.914-.406,1.249,1.249,0,0,1,.1-1.676l.508-.406a1.187,1.187,0,1,1,1.575,1.778l-.508.406A1.12,1.12,0,0,1,83.866,337.563Zm.457-1.93a.384.384,0,0,0-.2.051l-.508.406a.315.315,0,0,0-.051.406.385.385,0,0,0,.2.1h0a.384.384,0,0,0,.2-.051l.508-.406a.315.315,0,0,0,.051-.406C84.526,335.683,84.425,335.632,84.323,335.632Z" transform="translate(-56.496 -312.875)"/>
    <path id="Tracé_859" data-name="Tracé 859" d="M123.653,366.506a.816.816,0,0,0-1.168-.1l-1.118,1.016a.82.82,0,0,0-.1,1.168h0a.864.864,0,0,0,1.168.1l1.118-1.016A.777.777,0,0,0,123.653,366.506Z" transform="translate(-92.371 -342.225)" fill="#fdbf5e"/>
    <path id="Tracé_860" data-name="Tracé 860" d="M115.166,362.609h0a1.294,1.294,0,0,1-1.27-1.372,1.131,1.131,0,0,1,.457-.864l1.118-1.016a1.338,1.338,0,0,1,1.829.1,1.3,1.3,0,0,1-.152,1.829l-1.118,1.016A1.379,1.379,0,0,1,115.166,362.609Zm1.168-2.642a.328.328,0,0,0-.254.1l-1.118,1.016a.279.279,0,0,0-.152.254.722.722,0,0,0,.1.3.4.4,0,0,0,.559.051l1.118-1.016a.4.4,0,0,0,.051-.559A.439.439,0,0,0,116.334,359.967Z" transform="translate(-85.662 -335.533)"/>
    <path id="Tracé_861" data-name="Tracé 861" d="M103.562,344.305a.8.8,0,0,0-1.118-.1l-1.727,1.524a.793.793,0,1,0,1.016,1.219l1.727-1.524A.754.754,0,0,0,103.562,344.305Z" transform="translate(-73.093 -321.497)" fill="#fdbf5e"/>
    <path id="Tracé_862" data-name="Tracé 862" d="M95.085,341.884h0a1.189,1.189,0,0,1-.914-.406,1.418,1.418,0,0,1-.3-.914,1.252,1.252,0,0,1,.406-.864L96,338.176a1.312,1.312,0,0,1,1.727.1,1.418,1.418,0,0,1,.3.914,1.252,1.252,0,0,1-.406.864L95.9,341.579A1.44,1.44,0,0,1,95.085,341.884Zm1.727-3.1a.328.328,0,0,0-.254.1l-1.727,1.524a.391.391,0,0,0-.051.508c.051.1.152.1.254.1h0a.328.328,0,0,0,.254-.1l1.727-1.524a.388.388,0,0,0,.1-.254c0-.1,0-.2-.1-.254C97.015,338.785,96.914,338.785,96.812,338.785Z" transform="translate(-66.953 -315.774)"/>
    <path id="Tracé_863" data-name="Tracé 863" d="M262.128,10.487H252.121L253.8,6.982h6.654Z" transform="translate(-214.846 -6.525)" fill="#ec603e"/>
    <path id="Tracé_864" data-name="Tracé 864" d="M255.852,4.419H245.845a.428.428,0,0,1-.356-.2.407.407,0,0,1-.051-.406L247.115.254A.4.4,0,0,1,247.521,0h6.705a.518.518,0,0,1,.406.254l1.625,3.454a.388.388,0,0,1,.1.254A.54.54,0,0,1,255.852,4.419Zm-9.346-.914h8.635L253.871.864h-6.1Z" transform="translate(-208.57)"/>
    <rect id="Rectangle_1448" data-name="Rectangle 1448" width="1.829" height="1.829" transform="translate(36.107 6.553)" fill="#fff"/>
    <path id="Tracé_865" data-name="Tracé 865" d="M229.583,95.058h-1.829a.455.455,0,0,1-.457-.457V92.772a.455.455,0,0,1,.457-.457h1.829a.455.455,0,0,1,.457.457V94.6A.455.455,0,0,1,229.583,95.058Zm-1.371-.864h.965v-.965h-.965Z" transform="translate(-191.647 -86.27)"/>
    <rect id="Rectangle_1449" data-name="Rectangle 1449" width="1.829" height="1.829" transform="translate(36.107 11.125)" fill="#fff"/>
    <g id="Groupe_1113" data-name="Groupe 1113" transform="translate(35.65 6.959)">
      <path id="Tracé_866" data-name="Tracé 866" d="M229.583,165.652h-1.829a.455.455,0,0,1-.457-.457v-1.829a.455.455,0,0,1,.457-.457h1.829a.455.455,0,0,1,.457.457v1.829A.455.455,0,0,1,229.583,165.652Zm-1.371-.914h.965v-.965h-.965Z" transform="translate(-227.297 -159.201)"/>
      <path id="Tracé_867" data-name="Tracé 867" d="M314.833,107.192h-6.4a.457.457,0,0,1,0-.914h6.4a.455.455,0,0,1,.457.457A.536.536,0,0,1,314.833,107.192Z" transform="translate(-302.693 -106.278)"/>
      <path id="Tracé_868" data-name="Tracé 868" d="M314.833,177.786h-6.4a.457.457,0,0,1,0-.914h6.4a.455.455,0,0,1,.457.457A.536.536,0,0,1,314.833,177.786Z" transform="translate(-302.693 -172.249)"/>
      <path id="Tracé_869" data-name="Tracé 869" d="M346.731,247.605h-4.165a.457.457,0,0,1,0-.914h4.165a.455.455,0,0,1,.457.457A.536.536,0,0,1,346.731,247.605Z" transform="translate(-334.591 -237.497)"/>
      <rect id="Rectangle_1450" data-name="Rectangle 1450" width="0.864" height="0.864" transform="translate(7.518 12.903)"/>
      <rect id="Rectangle_1451" data-name="Rectangle 1451" width="0.864" height="0.864" transform="translate(9.6 12.903)"/>
      <rect id="Rectangle_1452" data-name="Rectangle 1452" width="0.864" height="0.864" transform="translate(11.683 12.903)"/>
    </g>
  </g>
</svg>
