<svg xmlns="http://www.w3.org/2000/svg" viewBox="0 0 38.33 38.33"><defs><style>.a{fill:#ec603e;}.b{fill:#ffa791;}.c{fill:#f8481d;opacity:0.764;}.d{fill:none;stroke:#000;stroke-linecap:round;stroke-linejoin:round;}</style></defs><g transform="translate(-1630 -949)"><path class="a" d="M13.106,0c7.238,0,13.106,10.588,13.106,17.826S20.344,28,13.106,28,0,25.064,0,17.826,5.868,0,13.106,0Z" transform="translate(1649.796 949) rotate(45)"/><g transform="translate(1636 960)"><path class="b" d="M20.877,10l-.686,10.772a1.144,1.144,0,0,1-1.1,1.121H13.284a1.144,1.144,0,0,1-1.121-1.121L11.5,10Z" transform="translate(-3.62 -6.466)"/><path class="c" d="M20.739,10H11.5l.654,7.623c.012.434.5.784,1.1.793h1.149l-.586-7.768h6.851Z" transform="translate(-3.62 -5.6)"/><path class="d" d="M6,3.861H19.216m-9.15,0V2.907A.952.952,0,0,1,11.058,2h3.1a.952.952,0,0,1,.991.907v.954m2.669,0L17.081,14.82a1.221,1.221,0,0,1-1.245,1.14H9.38a1.221,1.221,0,0,1-1.245-1.14L7.4,3.861m5.21,1.861V14.1M10.067,5.723l.508,8.376M15.15,5.723,14.641,14.1" transform="translate(0 0)"/></g></g></svg>