<svg xmlns="http://www.w3.org/2000/svg" xmlns:xlink="http://www.w3.org/1999/xlink" width="130.09" height="130.091" viewBox="0 0 130.09 130.091"><defs><filter id="a" x="0" y="0" width="130.09" height="130.091" filterUnits="userSpaceOnUse"><feOffset dy="8" input="SourceAlpha"/><feGaussianBlur stdDeviation="5" result="b"/><feFlood flood-opacity="0.09"/><feComposite operator="in" in2="b"/><feComposite in="SourceGraphic"/></filter></defs><g transform="translate(-1430 -145)"><g transform="matrix(1, 0, 0, 1, 1430, 145)" filter="url(#a)"><path d="M34.222,0c18.9,0,34.222,27.649,34.222,46.55S53.123,73.1,34.223,73.1,0,65.45,0,46.549,15.322,0,34.222,0Z" transform="translate(66.69 7) rotate(45)" fill="#fbbe44"/></g><g transform="translate(918.477 -548.173)"><g transform="translate(568.017 739.571)"><path d="M17.738,19.2a7.511,7.511,0,0,1-3.527.954c-1.548,0-5.23-.55-6.219-1.874a6.247,6.247,0,0,1-1.022-2.57h10V13.1H6.538v-.587c0-.4,0-.768.029-1.139h10.4V8.772H7.034a6.052,6.052,0,0,1,.992-2.386c.957-1.361,4.548-1.984,6-1.984a8.114,8.114,0,0,1,3.464.882L18.356,1.1A10.286,10.286,0,0,0,13.714,0,8.644,8.644,0,0,0,6.568,3.782,12.026,12.026,0,0,0,4.432,8.774l-.34,2.6c0,.37-.032.735-.032,1.1.083,1.409,0,.444.311,3.231A10.817,10.817,0,0,0,6.1,20.483a8.79,8.79,0,0,0,7.549,4.186,9.181,9.181,0,0,0,4.829-1.392Z" transform="translate(-4.06 0)" fill="#fff"/></g><g transform="translate(563 739.173)"><path d="M20.226,19.51a10.36,10.36,0,0,1-4.252.97,6.237,6.237,0,0,1-4.814-1.9,5.837,5.837,0,0,1-1.232-2.611h9.366V13.316H9.408v-.6c0-.411,0-.781.035-1.157H19.3V8.914H10.005A5.684,5.684,0,0,1,11.2,6.49a5.766,5.766,0,0,1,4.553-2.016,11.246,11.246,0,0,1,4.177.9l1.042-4.251A14.3,14.3,0,0,0,15.376,0,11.077,11.077,0,0,0,6.76,3.844,11.341,11.341,0,0,0,4.185,8.916h-2.5v2.646H3.776c0,.376-.038.747-.038,1.12v.634H1.684v2.65H4.112A10.463,10.463,0,0,0,6.2,20.814a11.175,11.175,0,0,0,9.1,4.253,12.6,12.6,0,0,0,5.822-1.414Z" transform="translate(-1.684)" fill="none" stroke="#000" stroke-width="1"/></g></g></g></svg>