<svg xmlns="http://www.w3.org/2000/svg" viewBox="0 0 147.769 147.769"><defs><style>.a{fill:#fbbe44;}.b{fill:#fff0c9;}.c{fill:#ffdec7;}.d{fill:#fff;}.e{fill:#ffc943;}.f{fill:#f9bd95;}.g{fill:#d8902a;}</style></defs><g transform="translate(-634 -2838)"><path class="a" d="M50.524,0c27.9,0,50.524,40.82,50.524,68.723s-22.621,39.2-50.524,39.2S0,96.627,0,68.723,22.621,0,50.524,0Z" transform="translate(710.317 2838) rotate(45)"/><g transform="translate(687 2893.131)"><path class="b" d="M299.118,18.736V14.914a25.851,25.851,0,0,0-4.291-1.144,25.852,25.852,0,0,0-4.291,1.144v3.813h.03l-.03.01L288.1,22.17a36.513,36.513,0,0,1,3.778-.194c1.008,0,2,.04,2.96.118.963-.078,1.952-.118,2.96-.118a36.57,36.57,0,0,1,3.772.193Zm0,0" transform="translate(-266.779 -12.751)"/><path class="c" d="M300.961,130.673v-.6l-5.582-.945-5.572.945-.029,5.752a3.68,3.68,0,0,0,1.539,2.809l4.052,2.317,4.04-2.317a3.692,3.692,0,0,0,1.552-2.809v-1.4a1.876,1.876,0,0,0,0-3.752Zm0,0" transform="translate(-268.335 -119.574)"/><path class="d" d="M290.255,322.181l-6.142-1.822a.489.489,0,0,0-.83,0l-6.147,1.822a2.69,2.69,0,0,0-1.828,2.432v6.7h16.774v-6.7A2.691,2.691,0,0,0,290.255,322.181Zm0,0" transform="translate(-254.937 -296.44)"/><path class="e" d="M238.8,331.871h1.173v10.82H238.8Zm0,0" transform="translate(-221.134 -307.314)"/><path class="d" d="M423.3,331.871h2.345v10.82H423.3Zm0,0" transform="translate(-391.981 -307.314)"/><path class="e" d="M437.332,331.871h1.307v10.82h-1.307Zm0,0" transform="translate(-404.971 -307.314)"/><path class="d" d="M297.606,285.332h-2.75v2.645l3.281,3.258,1.374-1.367-1.9-1.891Zm0,0" transform="translate(-273.037 -264.218)"/><path class="f" d="M335.827,290.543h-3.8v2.42l1.9,1.73,1.9-1.73Zm0,0" transform="translate(-307.455 -269.044)"/><path class="g" d="M282.58,71.29a29.265,29.265,0,0,0-7.353-.767,11.808,11.808,0,0,0-1.557.231l-3.431,4.133a43.654,43.654,0,0,1,15.128.308Zm0,0" transform="translate(-250.242 -65.305)"/><path d="M.75,468H.74a.74.74,0,0,0,0,1.48H.75a.74.74,0,0,0,0-1.48Zm0,0" transform="translate(0 -433.369)"/><path d="M37.886,28.173a3.414,3.414,0,0,0-2.325-3.131l-.033-.01-6.122-1.816a.419.419,0,0,1-.295-.286V21.114c0-.024,0-.049,0-.072L31.442,19.7l.04-.025a4.426,4.426,0,0,0,1.882-3.37c0-.019,0-.038,0-.056v-.767a2.614,2.614,0,0,0,1.3-4.142c.332.105.659.215.979.332a.74.74,0,0,0,.856-1.125l-3.425-4.8V2.163a.74.74,0,0,0-.476-.691A24.19,24.19,0,0,0,25.088,0a24.193,24.193,0,0,0-7.515,1.472.74.74,0,0,0-.476.691V5.749l-3.41,4.8a.74.74,0,0,0,.857,1.124c.312-.114.632-.221.957-.324a2.614,2.614,0,0,0,1.308,4.135v.767c0,.019,0,.038,0,.056a4.42,4.42,0,0,0,1.868,3.37l.041.025,2.361,1.35c0,.02,0,.04,0,.061V22.6a.746.746,0,0,0-.012.13v.178c0,.117-.122.243-.3.308l-6.128,1.816-.033.011a3.414,3.414,0,0,0-2.325,3.131v6.458H7.548V27.379H8.954a2.593,2.593,0,0,0,2.59-2.59V14.648a.74.74,0,1,0-1.48,0V24.789a1.111,1.111,0,0,1-1.11,1.11H8.193V14.58a.74.74,0,0,0-1.48,0V25.9H4.841V14.58a.74.74,0,0,0-1.48,0V25.9H2.59a1.111,1.111,0,0,1-1.11-1.11V14.648a.74.74,0,1,0-1.48,0V24.789a2.593,2.593,0,0,0,2.59,2.59H4v7.252H2.959a.74.74,0,1,0,0,1.48H37.146a.74.74,0,0,0,.74-.74Zm-1.48,0v6.458h-2V26.243l.682.2A1.967,1.967,0,0,1,36.406,28.173ZM25.088,1.48A22.351,22.351,0,0,1,31.6,2.687V5.056a34.758,34.758,0,0,0-6.684-.578,31.079,31.079,0,0,0-6.338.558V2.687A22.31,22.31,0,0,1,25.088,1.48Zm-6.8,5.145a26.924,26.924,0,0,1,6.624-.667,31.233,31.233,0,0,1,6.979.677l2.12,2.971A34.405,34.405,0,0,0,25.1,8.485a34.4,34.4,0,0,0-8.924,1.124Zm0,9.6V14.851a.74.74,0,0,0-.74-.74,1.136,1.136,0,1,1,0-2.273.74.74,0,0,0,.739-.7l.025-.512a35.308,35.308,0,0,1,13.573,0V11.1a.74.74,0,0,0,.74.74,1.136,1.136,0,0,1,0,2.273.74.74,0,0,0-.74.74v1.371a2.94,2.94,0,0,1-1.2,2.209l-4.5,2.581-.04.024a1.866,1.866,0,0,1-2.113,0l-.041-.025-4.513-2.58A2.936,2.936,0,0,1,18.289,16.223Zm4.947,6.063a3.348,3.348,0,0,0,3.7,0l.693-.4v.787c0,.018,0,.036,0,.054v.178c0,.022,0,.044,0,.066v.478L25.1,25.973l-2.54-2.523V21.9Zm-2.028,2.343.033-.011a2.188,2.188,0,0,0,.274-.117l3.062,3.041a.74.74,0,0,0,1.043,0l3.049-3.035a2.167,2.167,0,0,0,.264.112l.032.011L32.929,25.8v8.827h-.865V29.424a.74.74,0,1,0-1.48,0v5.206h-11V29.424a.74.74,0,1,0-1.48,0v5.206h-.865V25.805Zm-7.445,3.545a1.967,1.967,0,0,1,1.316-1.728l.679-.2v8.387H13.763ZM5.476,34.631V27.379h.592v7.252Zm0,0"/><path d="M369.823,167.025a.839.839,0,1,0-.839-.839A.84.84,0,0,0,369.823,167.025Zm0,0" transform="translate(-341.681 -153.112)"/><path d="M287.264,165.348a.839.839,0,1,0,.838.839A.84.84,0,0,0,287.264,165.348Zm0,0" transform="translate(-265.231 -153.112)"/><path d="M245.392,359.057a.74.74,0,0,0,.74-.74v-.011a.74.74,0,1,0-1.48,0v.011A.74.74,0,0,0,245.392,359.057Zm0,0" transform="translate(-226.549 -331.108)"/><path d="M414.045,359.057a.74.74,0,0,0,.74-.74v-.011a.74.74,0,1,0-1.48,0v.011A.74.74,0,0,0,414.045,359.057Zm0,0" transform="translate(-382.721 -331.108)"/></g></g></svg>