<svg xmlns="http://www.w3.org/2000/svg" viewBox="0 0 147.769 147.769"><defs><style>.a,.l{fill:#ec603e;}.b{fill:#98d400;}.b,.c,.e,.h,.i,.j,.l{stroke:#000;}.b,.c,.e,.i,.j,.l{stroke-width:2px;}.c{fill:#fd4e26;}.d{fill:#fd3018;}.e,.h{fill:#f8937b;}.f{fill:#ffdec7;}.g{fill:#e8d7cc;}.i{fill:#fe9923;}.j{fill:#b22f65;}.k{fill:#762957;}</style></defs><g transform="translate(-634 -3201)"><path class="a" d="M50.524,0c27.9,0,50.524,40.82,50.524,68.723s-22.621,39.2-50.524,39.2S0,96.627,0,68.723,22.621,0,50.524,0Z" transform="translate(710.317 3201) rotate(45)"/><g transform="translate(686.044 3259.044)"><path class="b" d="M10.015,35.686l-1.691-4.2a3.157,3.157,0,0,0-4.867-1.311L1.218,31.923a3.156,3.156,0,0,0,.076,5.039l3.654,2.67a1.052,1.052,0,0,0,1.47-.229l3.015-2.347A1.054,1.054,0,0,0,10.015,35.686Z" transform="translate(0 -27.441)"/><path class="c" d="M74.459,116.4l-3.535-5.955a4.808,4.808,0,0,0-7.049-1.3,4.744,4.744,0,0,0-1.81,3.493,4.619,4.619,0,0,0,.673,2.736l1.389,1.578,2.315,2.294a.987.987,0,0,0,.736.316h6.376a1.042,1.042,0,0,0,1.052-1.052v-1.557A1.02,1.02,0,0,0,74.459,116.4Z" transform="translate(-57.701 -100.545)"/><path class="d" d="M76.86,168.6,73.3,171.29l-.561-.643a2.366,2.366,0,0,1-.646-.967l3.48-2.738A1.05,1.05,0,1,1,76.86,168.6Z" transform="translate(-66.654 -155.992)"/><path class="e" d="M61.52,301H32.059a.977.977,0,0,0-.8.379.958.958,0,0,0-.231.842l1.81,10.928a3.145,3.145,0,0,0,3.114,2.651H57.627a3.145,3.145,0,0,0,3.114-2.651l1.81-10.928C62.614,301.926,61.835,301,61.52,301Z" transform="translate(-28.833 -279.887)"/><path class="a" d="M269.814,302.07l-1.586,9.578a2.756,2.756,0,0,1-2.729,2.324H256V301h12.91a.857.857,0,0,1,.7.332A.84.84,0,0,1,269.814,302.07Z" transform="translate(-236.991 -278.9)"/><g transform="translate(8.488 25.322)"><path class="f" d="M122.052,367.383A1.052,1.052,0,0,1,121,366.331v-4.279a1.052,1.052,0,1,1,2.1,0v4.279A1.052,1.052,0,0,1,122.052,367.383Z" transform="translate(-121 -361)"/><path class="f" d="M182.052,367.383A1.052,1.052,0,0,1,181,366.331v-4.279a1.052,1.052,0,1,1,2.1,0v4.279A1.052,1.052,0,0,1,182.052,367.383Z" transform="translate(-176.791 -361)"/><path class="f" d="M243.1,362.052v4.279a1.052,1.052,0,1,1-2.1,0v-4.279a1.052,1.052,0,1,1,2.1,0Z" transform="translate(-232.583 -361)"/></g><g transform="translate(17.957 25.322)"><path class="g" d="M302.052,367.383A1.052,1.052,0,0,1,301,366.331v-4.279a1.052,1.052,0,1,1,2.1,0v4.279A1.052,1.052,0,0,1,302.052,367.383Z" transform="translate(-297.844 -361)"/><path class="g" d="M362.052,367.383A1.052,1.052,0,0,1,361,366.331v-4.279a1.052,1.052,0,0,1,2.1,0v4.279A1.052,1.052,0,0,1,362.052,367.383Z" transform="translate(-353.635 -361)"/><path class="g" d="M257.052,362.052v4.279A1.042,1.042,0,0,1,256,367.383V361A1.042,1.042,0,0,1,257.052,362.052Z" transform="translate(-256 -361)"/></g><path class="h" d="M214.156,0A3.152,3.152,0,0,0,211,3.156v14.8a1.042,1.042,0,0,0,1.052,1.052h4.209a1.042,1.042,0,0,0,1.052-1.052V3.156A3.152,3.152,0,0,0,214.156,0Z" transform="translate(-196.2 0)"/><path class="i" d="M378.95,75.73h-1.725a1.052,1.052,0,0,1-.992-1.4,5.277,5.277,0,0,0-2.563-6.436,1.053,1.053,0,0,1-.476-1.372,9.468,9.468,0,0,1,8.6-5.519,1.052,1.052,0,0,1,1.052,1.052v6.313a9.455,9.455,0,0,1-3.2,7.1A1.053,1.053,0,0,1,378.95,75.73Z" transform="translate(-346.93 -56.721)"/><path class="j" d="M282.216,131.879H272.052A1.052,1.052,0,0,1,271,130.827v-6.818a1.056,1.056,0,0,1,.355-.788,7.538,7.538,0,0,1,8.269-1.053,7.381,7.381,0,0,1,3.584,9.011A1.051,1.051,0,0,1,282.216,131.879Z" transform="translate(-251.991 -112.87)"/><circle class="k" cx="1.052" cy="1.052" r="1.052" transform="translate(23.218 12.696)"/><path class="a" d="M258.729,2.316l.152,14.75a.974.974,0,0,1-.962,1h-1.924L255.959-.506A2.692,2.692,0,0,1,258.729,2.316Z" transform="translate(-238.039 0.94)"/><path class="e" d="M33.617,241H4.156a3.156,3.156,0,1,0,0,6.313h29.46a3.156,3.156,0,1,0,0-6.313Z" transform="translate(-0.93 -224.095)"/><path class="l" d="M273.887,244.156a3.152,3.152,0,0,1-3.156,3.156H256V241h14.73A3.152,3.152,0,0,1,273.887,244.156Z" transform="translate(-238.043 -224.095)"/></g></g></svg>