<svg xmlns="http://www.w3.org/2000/svg" viewBox="0 0 147.769 147.769"><defs><style>.a{fill:#006381;}.b{fill:#ddf7ff;}.c{fill:#ffdec7;}.d{fill:#d8902a;}.e{fill:none;stroke:#000;stroke-linecap:round;stroke-linejoin:round;stroke-width:2px;}</style></defs><g transform="translate(-634 -3564)"><path class="a" d="M50.524,0c27.9,0,50.524,40.82,50.524,68.723s-22.621,39.2-50.524,39.2S0,96.627,0,68.723,22.621,0,50.524,0Z" transform="translate(710.317 3564) rotate(45)"/><g transform="translate(686.004 3617)"><path class="b" d="M9.393,49.925C1.629,51.158,2,56.7,2,56.7H20.484l-6.285-8.2a12.751,12.751,0,0,1-4.806,1.417Zm22.183,0c-2.711-.431-4.252-1.048-5.114-1.725l-5.977,8.5H38.97S38.97,51.158,31.576,49.925Z" transform="translate(0 -17.732)"/><path class="c" d="M33.718,16.162V14.93S33.41,10,28.789,10s-5.546,4.93-12.94,4.93v1.232c-1.232,0-1.849,1.849-1.849,3.081,0,2.465.863,4.313,2.711,4.313a9.428,9.428,0,0,0,3.451,5.484v1.849a2.662,2.662,0,0,1-1.356,2.9l6.285,8.257,5.977-8.5a2.6,2.6,0,0,1-1.048-2.588V28.609a11.091,11.091,0,0,0,2.958-5.114c1.849,0,2.588-1.787,2.588-4.252C35.567,17.949,35.567,16.162,33.718,16.162Z" transform="translate(-4.607 -3.07)"/><path class="d" d="M34.87,11.859V10.627C34.87,4.218,30.31,2,26.243,2S17,4.157,17,10.565v1.294c7.394,0,8.011-4.93,12.94-4.93S34.87,11.859,34.87,11.859Z" transform="translate(-5.759 0)"/><path class="a" d="M14.569,19.33c.616,2.588,3.081,4.313,4.683,5.484v1.849a2.662,2.662,0,0,1-1.356,2.9,11.708,11.708,0,0,1-3.7,1.232,2.556,2.556,0,0,0,1.356-2.834V26.108h.062A9.428,9.428,0,0,1,12.1,20.563c-1.849,0-2.711-1.849-2.711-4.313,0-1.232.616-3.081,1.849-3.081V10.642c0-5.546,3.882-7.949,7.641-8.442a7.857,7.857,0,0,0-3.944,7.209v2.526S13.644,17.482,14.569,19.33Zm9.613,18.486H6.928A4.991,4.991,0,0,1,9.393,32.27C1.629,33.5,2,39.048,2,39.048H38.97a5.238,5.238,0,0,0-.185-1.232Z" transform="translate(0 -0.077)"/><path class="e" d="M34.062,45.053a2.6,2.6,0,0,1-1.048-2.588V40m-9.859.616v1.849a2.662,2.662,0,0,1-1.356,2.9" transform="translate(-7.601 -14.585)"/><path class="e" d="M23.935,26.648a10.352,10.352,0,0,0,4.437-6.224c1.849,0,2.588-1.787,2.588-4.252,0-1.232,0-3.019-1.849-3.019V11.859m-17.87,0v1.232c-1.232,0-1.849,1.849-1.849,3.081,0,2.465.863,4.313,2.711,4.313a9.366,9.366,0,0,0,4.437,6.162m12.57-14.789V10.627C29.111,4.218,24.551,2,20.484,2s-9.243,2.157-9.243,8.565v1.294c7.394,0,8.011-4.93,12.94-4.93S29.111,11.859,29.111,11.859ZM9.393,32.194C1.629,33.426,2,38.972,2,38.972H20.484l-6.285-8.2a12.751,12.751,0,0,1-4.806,1.417Zm22.183,0c-2.711-.431-4.252-1.048-5.114-1.725l-5.977,8.5H38.97S38.97,33.426,31.576,32.194Z" transform="translate(0 0)"/><path d="M370.029,167.437a1.045,1.045,0,1,0-1.045-1.045A1.046,1.046,0,0,0,370.029,167.437Zm0,0" transform="translate(-345.973 -151.104)"/><path d="M287.47,165.348a1.045,1.045,0,1,0,1.045,1.045A1.046,1.046,0,0,0,287.47,165.348Zm0,0" transform="translate(-271.025 -151.104)"/></g></g></svg>