<svg xmlns="http://www.w3.org/2000/svg" viewBox="0 0 42.397 57"><defs><style>.a{fill:#d6d1d1;}</style></defs><g transform="translate(0)"><g transform="translate(7.633 6.626)"><path class="a" d="M44.439,35.537a6.021,6.021,0,0,1,2.051.968,3.556,3.556,0,0,1,1.291,1.8,3.408,3.408,0,0,1,.171,1.025,3.08,3.08,0,0,1-.152.93A4.39,4.39,0,0,1,46.774,41.9,10.615,10.615,0,0,1,45.2,43.226a11.718,11.718,0,0,1,2.013,1.614,6.059,6.059,0,0,1,1.462,2.183,3.148,3.148,0,0,1,.209,1.1,3.509,3.509,0,0,1-.323,1.405,4.887,4.887,0,0,1-1.614,1.69,8.919,8.919,0,0,1-2.278,1.063,8.219,8.219,0,0,1-2.354.38h-.171a1.592,1.592,0,0,1-1.823-1.785v-.171c0-.228,0-.456.019-.684.019-.209.019-.4.019-.608.019-1.348.038-2.7.038-4.044,0-.684,0-1.348-.019-2.032V41.347c0-.778,0-1.481-.019-2.089,0-.608-.019-1.31-.057-2.089v-.228a1.866,1.866,0,0,1,.494-1.5,2.14,2.14,0,0,1,1.329-.342,4.459,4.459,0,0,1,.494.019A8.832,8.832,0,0,1,44.439,35.537Zm-1.253,7.006a.4.4,0,0,1,.114-.076l.019-.019h.019l.019-.019h.019l.019-.019a6.819,6.819,0,0,0,1.823-1.12,3.659,3.659,0,0,0,1.063-1.5,1.658,1.658,0,0,0,.095-.589,1.782,1.782,0,0,0-.285-.949,3.709,3.709,0,0,0-1.937-1.234,2.092,2.092,0,0,0-.589-.114.333.333,0,0,0-.285.114,1.146,1.146,0,0,0-.114.589,1.083,1.083,0,0,0,.019.247c0,.038.019.076.019.114,0,.7.019,1.386.019,2.032v.93C43.186,41.461,43.186,41.973,43.186,42.543Zm0,1.329v1.405c0,.513.019,1.006.019,1.519,0,1.006-.019,2.013-.038,3.019,0,.665.152,1.025.475,1.044h.114a2.7,2.7,0,0,0,1.082-.285.27.27,0,0,1,.114-.038,3.825,3.825,0,0,0,1.728-1.12,2.136,2.136,0,0,0,.437-1.253v-.114c-.076-1.158-.854-2.24-2.316-3.247q-.712-.456-1.481-.854l-.019-.019h-.019V43.91h0l-.019-.019-.019-.019h-.019l-.019-.019h-.019l-.019-.019.019.038Z" transform="translate(-40.3 -35.062)"/><path class="a" d="M95.553,53.042a9.433,9.433,0,0,1-.247-2.449c.019-1.424.038-2.848.038-4.272,0-2.24,0-4.4.019-6.493v-.019c-.171,0-.342.019-.513.019-.323-.133-.494-.342-.494-.57v-.095c0-.513.38-.816,1.12-.892l2.544-.171c.513.095.759.3.759.627v.266c0,.361-.342.608-1.006.74a1.777,1.777,0,0,1,.076.3,10.175,10.175,0,0,1,.171,1.386c.019.418.038.759.038,1.025v2.639c0,.589-.019,1.177-.019,1.766,0,1.215.019,2.449.038,3.664a10.737,10.737,0,0,1-.266,2.506c.646.038.968.285.968.759-.019.532-.323.8-.892.8H96.256c-.38,0-.721.019-1.082.038-.589,0-.873-.247-.873-.759q0-.8,1.2-.8h.057Z" transform="translate(-84.047 -37.492)"/><path class="a" d="M135.953,34.938a3.494,3.494,0,0,1,2.183.987,5.477,5.477,0,0,1,1.253,2.013,13.57,13.57,0,0,1,.627,2.316,21.044,21.044,0,0,1,.266,3.266,20.648,20.648,0,0,1-.494,4.424,9.669,9.669,0,0,1-1.025,2.506,4.737,4.737,0,0,1-1.785,1.785,3.7,3.7,0,0,1-1.823.437,5.2,5.2,0,0,1-.911-.076,3.2,3.2,0,0,1-1.728-.873,4.88,4.88,0,0,1-1.044-1.557,11.311,11.311,0,0,1-.627-1.8,19.417,19.417,0,0,1-.608-3.778c-.019-.4-.038-.816-.038-1.215a19.762,19.762,0,0,1,.228-3,9.09,9.09,0,0,1,1.31-3.55,4.352,4.352,0,0,1,1.8-1.557,4.753,4.753,0,0,1,1.842-.361C135.554,34.9,135.744,34.919,135.953,34.938Zm2.07,13.575a17.3,17.3,0,0,0,.418-2.7q.114-1.253.114-2.62c0-.361,0-.721-.019-1.1A13.794,13.794,0,0,0,138,38.583a3.009,3.009,0,0,0-1.5-2.013,1.72,1.72,0,0,0-.608-.114,1.373,1.373,0,0,0-.7.209,2.988,2.988,0,0,0-1.006.949,5.812,5.812,0,0,0-.608,1.177,14.052,14.052,0,0,0-.551,3.513c-.019.323-.019.646-.019.949a20.962,20.962,0,0,0,.228,3.076,11.247,11.247,0,0,0,.987,3.4c.4.74.854,1.158,1.31,1.215.057,0,.114.019.171.019a1.593,1.593,0,0,0,1.139-.532,4.215,4.215,0,0,0,.987-1.538A1.423,1.423,0,0,0,138.022,48.513Z" transform="translate(-113.131 -34.9)"/></g><g transform="translate(7.386 25.542)"><path class="a" d="M40.785,138.653v-.816a.587.587,0,0,0-.171-.437,1.673,1.673,0,0,0-.323-.038,2.115,2.115,0,0,0-.323.038,1.534,1.534,0,0,1-.285.019,1.871,1.871,0,0,1-.323-.038.52.52,0,0,1-.361-.437v-.114a.406.406,0,0,1,.133-.342.716.716,0,0,1,.456-.19c.38-.038.74-.076,1.1-.114l.646-.057c.095,0,.209-.019.4-.038.266-.019.551-.057.873-.095s.627-.057.892-.076a2.952,2.952,0,0,1,.38-.019h.171a.606.606,0,0,1,.456.323.458.458,0,0,1-.019.475.81.81,0,0,1-.589.323q-.228.028-.4.057a1.251,1.251,0,0,0-.494.114.377.377,0,0,0-.171.3,3.09,3.09,0,0,0-.019.456v4.272c0,1.367,0,2.753.019,4.12v.19c0,.228-.019.456-.038.684a1.313,1.313,0,0,1-.3.74.779.779,0,0,1-.646.247h-.171a.893.893,0,0,1-.74-.494,2.145,2.145,0,0,1-.209-.968v-.266c0-.266.019-.532.038-.778a4.814,4.814,0,0,0,.019-.494v-6.55Z" transform="translate(-39 -135.639)"/><path class="a" d="M75.677,134.539a2.6,2.6,0,0,1,1.595.721,3.979,3.979,0,0,1,.911,1.462,9.3,9.3,0,0,1,.456,1.69,14.65,14.65,0,0,1-.171,5.582,7.652,7.652,0,0,1-.74,1.823,3.472,3.472,0,0,1-1.31,1.31,2.7,2.7,0,0,1-1.329.323,4.1,4.1,0,0,1-.665-.057,2.455,2.455,0,0,1-1.253-.627,3.628,3.628,0,0,1-.759-1.139,8.951,8.951,0,0,1-.456-1.31,14.175,14.175,0,0,1-.437-2.753c-.019-.3-.019-.589-.019-.873a13.5,13.5,0,0,1,.171-2.164,6.64,6.64,0,0,1,.949-2.582,3.354,3.354,0,0,1,1.31-1.139,3.321,3.321,0,0,1,1.329-.266A1.537,1.537,0,0,1,75.677,134.539Zm1.5,9.854a10.9,10.9,0,0,0,.3-1.956c.057-.608.095-1.234.095-1.9,0-.266,0-.532-.019-.8a11.045,11.045,0,0,0-.38-2.544,2.2,2.2,0,0,0-1.082-1.462,1.3,1.3,0,0,0-.437-.095,1.062,1.062,0,0,0-.513.152,2.252,2.252,0,0,0-.721.684,3.647,3.647,0,0,0-.437.854,9.8,9.8,0,0,0-.4,2.544c-.019.228-.019.456-.019.7a14.838,14.838,0,0,0,.171,2.24,7.734,7.734,0,0,0,.721,2.468c.3.551.608.835.949.873h.133a1.245,1.245,0,0,0,.835-.38,2.931,2.931,0,0,0,.721-1.12A1.6,1.6,0,0,0,77.177,144.393Z" transform="translate(-65.329 -134.525)"/><path class="a" d="M122.908,143.853a5.813,5.813,0,0,0,.076.8,11.514,11.514,0,0,0,.247,1.215,5.152,5.152,0,0,0,.38,1.12c.152.3.323.475.532.494h.019c.19,0,.4-.228.646-.665a6.3,6.3,0,0,0,.475-1.462,8.245,8.245,0,0,0,.209-1.519q.057-2.193.057-4.386v-1.861a1.96,1.96,0,0,1,.076-.57.5.5,0,0,1,.513-.38.474.474,0,0,1,.437.266,1.784,1.784,0,0,1,.152.589,2.675,2.675,0,0,1,.019.38v.475c0,.418.019.835.019,1.253.019.551.038,1.12.038,1.69v.684c0,.57-.038,1.215-.076,1.918a11.962,11.962,0,0,1-.323,2.145,5.213,5.213,0,0,1-.835,1.861,2.912,2.912,0,0,1-1.557,1.1,2.32,2.32,0,0,1-.494.057,1.407,1.407,0,0,1-1.025-.437,4.076,4.076,0,0,1-.93-1.595,10.684,10.684,0,0,1-.475-2.013c-.095-.684-.171-1.2-.19-1.595-.057-1.1-.095-2.089-.095-2.924,0-.532,0-1.063.019-1.576v-.911a2.158,2.158,0,0,1,.209-.93.92.92,0,0,1,.873-.475.9.9,0,0,1,.8.437,2.061,2.061,0,0,1,.247.949v.361c0,.228-.019.456-.038.684a3.665,3.665,0,0,0-.019.437v.759c0,.38,0,.759.019,1.139v.646A14.705,14.705,0,0,0,122.908,143.853Z" transform="translate(-105.269 -136.206)"/><path class="a" d="M160.085,138.653v-.816a.587.587,0,0,0-.171-.437,1.673,1.673,0,0,0-.323-.038,2.115,2.115,0,0,0-.323.038,1.534,1.534,0,0,1-.285.019,1.871,1.871,0,0,1-.323-.038.52.52,0,0,1-.361-.437v-.114a.406.406,0,0,1,.133-.342.716.716,0,0,1,.456-.19c.38-.038.74-.076,1.1-.114l.646-.057c.095,0,.209-.019.4-.038.266-.019.551-.057.873-.095s.627-.057.892-.076a2.952,2.952,0,0,1,.38-.019h.171a.606.606,0,0,1,.456.323.458.458,0,0,1-.019.475.81.81,0,0,1-.589.323q-.228.028-.4.057a1.251,1.251,0,0,0-.494.114.377.377,0,0,0-.171.3,3.09,3.09,0,0,0-.019.456v4.272c0,1.367,0,2.753.019,4.12v.19c0,.228-.019.456-.038.684a1.313,1.313,0,0,1-.3.74.779.779,0,0,1-.646.247h-.171a.893.893,0,0,1-.74-.494,2.145,2.145,0,0,1-.209-.968v-.266c0-.266.019-.532.038-.778a4.814,4.814,0,0,0,.019-.494v-6.55Z" transform="translate(-135.649 -135.639)"/></g><g transform="translate(7.424 39.701)"><path class="a" d="M41.611,210.019a2.064,2.064,0,0,1,.342-.019,1.777,1.777,0,0,1,1.177.342,2.343,2.343,0,0,1,.7,1.4,1.7,1.7,0,0,1,.038.342v.038a.993.993,0,0,1-.057.342.264.264,0,0,1-.266.152.476.476,0,0,1-.38-.3,2.859,2.859,0,0,1-.209-.608,1.9,1.9,0,0,0-.228-.589l-.133-.133a.6.6,0,0,0-.38-.152.808.808,0,0,0-.209.038l-.095.038-.095.038a1.639,1.639,0,0,0-.854.949,5.181,5.181,0,0,0-.323,1.614c-.019.247-.019.513-.019.759,0,.342.019.665.038.987.057.57.114,1.025.19,1.4a4.612,4.612,0,0,0,.247.8,1.686,1.686,0,0,0,.494.721.6.6,0,0,0,.38.152,1.014,1.014,0,0,0,.38-.095,1.1,1.1,0,0,0,.494-.608,3.424,3.424,0,0,0,.19-.759,2.929,2.929,0,0,1,.133-.551.366.366,0,0,1,.3-.247h.019a.333.333,0,0,1,.323.171.864.864,0,0,1,.095.38v.038a2.37,2.37,0,0,1-.038.4,4.75,4.75,0,0,1-.3.968,1.966,1.966,0,0,1-1.88,1.234,2.506,2.506,0,0,1-.74-.114,1.931,1.931,0,0,1-1.082-1.006,5.046,5.046,0,0,1-.532-1.69,10.757,10.757,0,0,1-.133-1.728v-.133a8.778,8.778,0,0,1,.114-1.538,6.552,6.552,0,0,1,.342-1.367,3.173,3.173,0,0,1,.721-1.1A1.934,1.934,0,0,1,41.611,210.019Z" transform="translate(-39.2 -209.829)"/><path class="a" d="M73.381,210.164a1.87,1.87,0,0,1,1.139.513,2.936,2.936,0,0,1,.646,1.044,7.192,7.192,0,0,1,.323,1.215,10.365,10.365,0,0,1,.133,1.709,10.677,10.677,0,0,1-.247,2.316,4.992,4.992,0,0,1-.532,1.31,2.432,2.432,0,0,1-.93.93,1.9,1.9,0,0,1-.949.228,4.337,4.337,0,0,1-.475-.038,1.672,1.672,0,0,1-.892-.456,2.476,2.476,0,0,1-.551-.816,5.594,5.594,0,0,1-.323-.949,9.807,9.807,0,0,1-.3-1.975c-.019-.209-.019-.418-.019-.627a10.546,10.546,0,0,1,.114-1.557,4.538,4.538,0,0,1,.684-1.842,2.267,2.267,0,0,1,.949-.816,2.233,2.233,0,0,1,.949-.19A1.424,1.424,0,0,1,73.381,210.164Zm1.082,7.082a7.974,7.974,0,0,0,.228-1.4q.057-.655.057-1.367c0-.19,0-.38-.019-.57a6.553,6.553,0,0,0-.285-1.823,1.546,1.546,0,0,0-.778-1.044.944.944,0,0,0-.3-.057.785.785,0,0,0-.361.095,1.417,1.417,0,0,0-.513.494,1.9,1.9,0,0,0-.3.627,7.985,7.985,0,0,0-.285,1.823c0,.171-.019.342-.019.494a11.736,11.736,0,0,0,.114,1.614,5.393,5.393,0,0,0,.513,1.766q.313.6.684.627h.095a.878.878,0,0,0,.589-.266,2.406,2.406,0,0,0,.513-.8A.925.925,0,0,0,74.463,217.246Z" transform="translate(-64.476 -209.955)"/><path class="a" d="M107.038,216.64a4.624,4.624,0,0,0,.057.57,8.8,8.8,0,0,0,.171.873,5.591,5.591,0,0,0,.266.8c.095.228.228.342.38.342h.019c.133,0,.285-.152.456-.475a5.615,5.615,0,0,0,.342-1.044,6.342,6.342,0,0,0,.152-1.1c.019-1.044.038-2.089.038-3.152V212.1a1.693,1.693,0,0,1,.057-.418.37.37,0,0,1,.361-.285.346.346,0,0,1,.323.19.905.905,0,0,1,.095.418c0,.095.019.19.019.266v.342c0,.3.019.608.019.911.019.4.038.8.038,1.215v.475c0,.4-.019.873-.057,1.386a8.644,8.644,0,0,1-.247,1.538,4.045,4.045,0,0,1-.589,1.329,2.112,2.112,0,0,1-1.12.8,1.23,1.23,0,0,1-.361.038,1,1,0,0,1-.74-.3,2.786,2.786,0,0,1-.665-1.139,9.379,9.379,0,0,1-.342-1.443c-.076-.475-.114-.854-.133-1.139-.038-.8-.076-1.5-.076-2.108,0-.38,0-.759.019-1.139v-.57h0a1.552,1.552,0,0,1,.152-.665c.095-.228.3-.323.627-.342a.683.683,0,0,1,.57.3,1.3,1.3,0,0,1,.171.684v.266a4.293,4.293,0,0,1-.019.494c0,.114-.019.228-.019.3v.551c0,.266,0,.551.019.816v.456C107.019,215.672,107.038,216.109,107.038,216.64Z" transform="translate(-92.912 -210.963)"/><path class="a" d="M140.764,218.688a.613.613,0,0,1-.4-.152,2.239,2.239,0,0,1-.494-1.006l-.323-1.044a25.73,25.73,0,0,0-.892-2.468.555.555,0,0,1-.038-.171.449.449,0,0,1,.266-.4,2.541,2.541,0,0,0,1.177-1.139,1.657,1.657,0,0,0,.171-.7c0-.8-.551-1.329-1.671-1.614l-.019,3.645c0,2.089.019,3.4.038,3.968a1.672,1.672,0,0,1-.114.627.661.661,0,0,1-.627.342q-.684-.028-.74-.854v-.3a2.543,2.543,0,0,1,.019-.38c.019-1.481.038-2.639.038-3.494,0-.8-.019-1.956-.038-3.494a1.149,1.149,0,0,1,.171-.665.853.853,0,0,1,.721-.285,3.027,3.027,0,0,1,.911.133,3.56,3.56,0,0,1,1.291.627,2.215,2.215,0,0,1,.759,1.063,2.01,2.01,0,0,1,.095.589,2.785,2.785,0,0,1-.152.835,3.068,3.068,0,0,1-1.367,1.633c.3.7.589,1.386.873,2.089l.627,1.481a1.7,1.7,0,0,1,.19.684.562.562,0,0,1-.038.19C141.163,218.593,141.011,218.669,140.764,218.688Z" transform="translate(-118.512 -209.1)"/><path class="a" d="M162.872,213.094v-.589a.332.332,0,0,0-.133-.3.953.953,0,0,0-.228-.038.925.925,0,0,0-.228.019.852.852,0,0,1-.209.019.925.925,0,0,1-.228-.019c-.133-.019-.209-.133-.247-.323v-.095a.361.361,0,0,1,.095-.247.458.458,0,0,1,.323-.133c.266-.019.532-.057.8-.076a3.688,3.688,0,0,1,.456-.038c.057,0,.152-.019.285-.038q.285-.029.627-.057c.228-.019.456-.038.646-.057.114,0,.209-.019.266-.019h.114a.466.466,0,0,1,.323.228.446.446,0,0,1,.038.152.366.366,0,0,1-.057.19.6.6,0,0,1-.437.228,1.975,1.975,0,0,1-.285.038,1.157,1.157,0,0,0-.361.076.279.279,0,0,0-.133.228,1.54,1.54,0,0,0-.019.323v3.076c0,.987,0,1.975.019,2.962v.133a4.677,4.677,0,0,1-.038.494.956.956,0,0,1-.209.532.561.561,0,0,1-.456.171h-.133a.649.649,0,0,1-.532-.361,1.513,1.513,0,0,1-.152-.684v-.19c0-.19,0-.38.019-.57,0-.133.019-.247.019-.361v-3.342A10.376,10.376,0,0,0,162.872,213.094Z" transform="translate(-138.36 -210.72)"/></g><path class="a" d="M5.528,56.77c-1.424-.038-2.848-.076-4.253-.133a2.169,2.169,0,0,1-1.1-1.462C.041,54.4.117,50.333.155,48.644a.746.746,0,0,1,.759-.74h0a.764.764,0,0,1,.759.816l-.4,6.626c1.424-.057,2.848-.095,4.253-.133a.79.79,0,0,1,.816.778h0A.8.8,0,0,1,5.528,56.77Zm27.417-.778a1.034,1.034,0,0,1,1.063-1.044H34.1c.778.019,1.538.076,2.335.114,1.576.114,3.19.266,4.918.456-.076-1.975-.114-3.911-.114-5.867a.579.579,0,0,1,.646-.57h0a.59.59,0,0,1,.513.57c0,2.259-.038,4.538-.114,6.778-1.633.171-3.4.342-5.221.456q-1.367.085-2.734.114h-.3a1.008,1.008,0,0,1-1.082-1.006ZM31.692.816a.734.734,0,0,1,.759-.74c3.133.019,6.266.057,9.379.095h.019a.652.652,0,0,1,.646.646h0l-.076,6.323a.576.576,0,0,1-.589.57h0a.588.588,0,0,1-.589-.57L41.166.816l.646.646c-3.133.038-6.266.076-9.379.095a.741.741,0,0,1-.74-.74Zm-21.094.8c-3.114-.019-6.228-.057-9.341-.152L1.9.816c.247,4.215.38,8.43.475,12.626A1.123,1.123,0,0,1,1.237,14.6h0A1.135,1.135,0,0,1,.1,13.443C.212,9.227.364,5.012.61.816V.8A.694.694,0,0,1,1.256.152C4.37.057,7.484.019,10.6,0a.81.81,0,0,1,.816.816h0A.832.832,0,0,1,10.6,1.614Z" transform="translate(-0.097)"/></g></svg>