<svg xmlns="http://www.w3.org/2000/svg" xmlns:xlink="http://www.w3.org/1999/xlink" viewBox="0 0 130.09 130.09"><defs><style>.a{fill:#fbbe44;}.b{fill:#fff0c9;}.c{fill:#ffdec7;}.d{fill:#fff;}.e{fill:#ffc943;}.f{fill:#f9bd95;}.g{fill:#d8902a;}.h{filter:url(#a);}</style><filter id="a" x="0" y="0" width="130.09" height="130.09" filterUnits="userSpaceOnUse"><feOffset dy="8" input="SourceAlpha"/><feGaussianBlur stdDeviation="5" result="b"/><feFlood flood-opacity="0.09"/><feComposite operator="in" in2="b"/><feComposite in="SourceGraphic"/></filter></defs><g transform="translate(-1244 -2951.68)"><g class="h" transform="matrix(1, 0, 0, 1, 1244, 2951.68)"><path class="a" d="M34.222,0c18.9,0,34.222,27.649,34.222,46.55S53.123,73.1,34.223,73.1,0,65.45,0,46.549,15.322,0,34.222,0Z" transform="translate(66.69 7) rotate(45)"/></g><g transform="translate(1296 2999.059)"><path class="b" d="M295.706,17.2V14.559a17.846,17.846,0,0,0-2.962-.79,17.848,17.848,0,0,0-2.962.79v2.632h.021l-.021.007-1.683,2.37a25.207,25.207,0,0,1,2.608-.134c.7,0,1.378.028,2.043.081.665-.054,1.348-.081,2.043-.081a25.247,25.247,0,0,1,2.6.133Zm0,0" transform="translate(-273.38 -13.066)"/><path class="c" d="M297.5,130.195v-.413l-3.854-.653-3.847.653-.02,3.971a2.54,2.54,0,0,0,1.062,1.939l2.8,1.6,2.789-1.6a2.549,2.549,0,0,0,1.071-1.939v-.967a1.3,1.3,0,0,0,0-2.591Zm0,0" transform="translate(-274.974 -122.532)"/><path class="d" d="M285.627,321.546l-4.24-1.258a.338.338,0,0,0-.573,0l-4.244,1.258a1.857,1.857,0,0,0-1.262,1.679v4.624h11.581v-4.624A1.858,1.858,0,0,0,285.627,321.546Zm0,0" transform="translate(-261.244 -303.775)"/><path class="e" d="M238.8,331.871h.81v7.47h-.81Zm0,0" transform="translate(-226.605 -314.917)"/><path class="d" d="M423.3,331.871h1.619v7.47H423.3Zm0,0" transform="translate(-401.68 -314.917)"/><path class="e" d="M437.332,331.871h.9v7.47h-.9Zm0,0" transform="translate(-414.991 -314.917)"/><path class="d" d="M296.754,285.332h-1.9v1.826l2.265,2.249.948-.944-1.314-1.305Zm0,0" transform="translate(-279.793 -270.756)"/><path class="f" d="M334.649,290.543h-2.626v1.671l1.314,1.194,1.311-1.194Zm0,0" transform="translate(-315.062 -275.701)"/><path class="g" d="M278.759,71.053a20.2,20.2,0,0,0-5.076-.529,8.151,8.151,0,0,0-1.075.159l-2.369,2.853a30.138,30.138,0,0,1,10.444.213Zm0,0" transform="translate(-256.433 -66.921)"/><path d="M.518,468H.511a.511.511,0,0,0,0,1.022H.518a.511.511,0,0,0,0-1.022Zm0,0" transform="translate(0 -444.092)"/><path d="M26.156,19.45a2.357,2.357,0,0,0-1.6-2.162l-.023-.007L20.3,16.027a.289.289,0,0,1-.2-.2V14.576c0-.017,0-.034,0-.05l1.611-.924.027-.017a3.056,3.056,0,0,0,1.3-2.327c0-.013,0-.026,0-.039v-.53a1.8,1.8,0,0,0,.9-2.86c.229.073.455.148.676.229a.511.511,0,0,0,.591-.777L22.836,3.968V1.493a.511.511,0,0,0-.329-.477A16.7,16.7,0,0,0,17.32,0a16.7,16.7,0,0,0-5.188,1.016.511.511,0,0,0-.328.477V3.969L9.449,7.284a.511.511,0,0,0,.592.776c.216-.079.437-.153.661-.224a1.8,1.8,0,0,0,.9,2.855v.53c0,.013,0,.026,0,.039a3.051,3.051,0,0,0,1.29,2.327l.028.017,1.63.932c0,.014,0,.028,0,.042V15.6a.515.515,0,0,0-.008.09v.123c0,.081-.084.167-.205.212l-4.23,1.254-.023.007a2.357,2.357,0,0,0-1.6,2.161v4.458H5.211V18.9h.971a1.79,1.79,0,0,0,1.788-1.788v-7a.511.511,0,0,0-1.022,0v7a.767.767,0,0,1-.766.766H5.656V10.065a.511.511,0,1,0-1.022,0V17.88H3.342V10.065a.511.511,0,1,0-1.022,0V17.88H1.788a.767.767,0,0,1-.766-.766v-7a.511.511,0,0,0-1.022,0v7A1.79,1.79,0,0,0,1.788,18.9h.971v5.006H2.043a.511.511,0,1,0,0,1.022h23.6a.511.511,0,0,0,.511-.511Zm-1.022,0v4.458H23.755V18.117l.471.14A1.358,1.358,0,0,1,25.134,19.45ZM17.32,1.022a15.431,15.431,0,0,1,4.495.834V3.49a24,24,0,0,0-4.614-.4,21.456,21.456,0,0,0-4.375.386V1.855A15.4,15.4,0,0,1,17.32,1.022ZM12.627,4.574A18.588,18.588,0,0,1,17.2,4.113a21.562,21.562,0,0,1,4.818.468l1.464,2.051a23.752,23.752,0,0,0-6.156-.774,23.751,23.751,0,0,0-6.161.776Zm0,6.626v-.947a.511.511,0,0,0-.511-.511.784.784,0,1,1,0-1.569.511.511,0,0,0,.51-.486l.017-.354a24.376,24.376,0,0,1,9.37,0v.328a.511.511,0,0,0,.511.511.784.784,0,0,1,0,1.569.511.511,0,0,0-.511.511V11.2a2.03,2.03,0,0,1-.83,1.525l-3.107,1.782-.028.017a1.289,1.289,0,0,1-1.459,0l-.028-.017-3.116-1.781A2.027,2.027,0,0,1,12.626,11.2Zm3.416,4.185a2.312,2.312,0,0,0,2.556,0l.478-.274v.543c0,.012,0,.025,0,.038v.123c0,.015,0,.03,0,.045v.33l-1.749,1.741L15.574,16.19V15.117ZM14.642,17,14.665,17a1.511,1.511,0,0,0,.189-.081l2.114,2.1a.511.511,0,0,0,.72,0l2.105-2.1a1.5,1.5,0,0,0,.182.077L20,17l2.735.812v6.094h-.6V20.314a.511.511,0,0,0-1.022,0v3.594H13.52V20.314a.511.511,0,0,0-1.022,0v3.594h-.6V17.815ZM9.5,19.45a1.358,1.358,0,0,1,.909-1.193l.469-.139v5.79H9.5ZM3.78,23.908V18.9h.409v5.006Zm0,0"/><path d="M369.563,166.506a.579.579,0,1,0-.579-.579A.58.58,0,0,0,369.563,166.506Zm0,0" transform="translate(-350.135 -156.901)"/><path d="M287,165.348a.579.579,0,1,0,.579.579A.58.58,0,0,0,287,165.348Zm0,0" transform="translate(-271.794 -156.901)"/><path d="M245.163,358.6a.511.511,0,0,0,.511-.511v-.007a.511.511,0,0,0-1.022,0v.007A.511.511,0,0,0,245.163,358.6Zm0,0" transform="translate(-232.154 -339.3)"/><path d="M413.816,358.6a.511.511,0,0,0,.511-.511v-.007a.511.511,0,0,0-1.022,0v.007A.511.511,0,0,0,413.816,358.6Zm0,0" transform="translate(-392.191 -339.3)"/></g></g></svg>