<svg xmlns="http://www.w3.org/2000/svg" viewBox="0 0 167.249 161.934"><defs><style>.a,.b{fill:#006381;}.a{opacity:0.2;}.c{fill:#fff;}.d{fill:#fbbe44;}.e,.f{stroke:none;}</style></defs><g transform="translate(-797.999 -892.5)"><g transform="translate(797.999 892.501)"><path class="a" d="M54.641,0c30.177,0,54.641,44.145,54.641,74.323s-24.464,42.4-54.641,42.4S0,104.5,0,74.323,24.464,0,54.641,0Z" transform="translate(89.974 2.125) rotate(45)"/><path class="b" d="M54.641,0c30.177,0,54.641,44.145,54.641,74.323s-24.464,42.4-54.641,42.4S0,104.5,0,74.323,24.464,0,54.641,0Z" transform="translate(82.535 0) rotate(45)"/></g><g transform="translate(4.666 14.857)"><g class="c" transform="translate(12421.77 7626.245)"><path class="e" d="M -11547.12890625 -6638.2529296875 L -11547.185546875 -6638.2529296875 L -11547.197265625 -6638.2529296875 L -11547.208984375 -6638.25341796875 C -11548.2060546875 -6638.2763671875 -11549.4296875 -6638.4677734375 -11550.0537109375 -6639.75146484375 C -11550.4521484375 -6640.5703125 -11550.5146484375 -6641.64697265625 -11550.609375 -6643.27734375 C -11550.6630859375 -6644.19189453125 -11550.72265625 -6645.22900390625 -11550.853515625 -6646.4853515625 L -11550.8564453125 -6646.509765625 L -11550.857421875 -6646.53466796875 L -11551.669921875 -6661.46240234375 C -11559.53125 -6661.46240234375 -11564.48046875 -6661.60888671875 -11566.384765625 -6661.8974609375 C -11570.3330078125 -6662.2548828125 -11572.576171875 -6662.6953125 -11573.8828125 -6663.3681640625 C -11575.46875 -6664.18505859375 -11575.67578125 -6665.345703125 -11575.6640625 -6666.478515625 L -11575.6640625 -6666.48388671875 L -11575.6640625 -6666.4892578125 C -11575.642578125 -6667.486328125 -11575.4541015625 -6668.71142578125 -11574.169921875 -6669.33642578125 C -11573.3515625 -6669.734375 -11572.275390625 -6669.796875 -11570.646484375 -6669.8916015625 C -11569.732421875 -6669.94482421875 -11568.6953125 -6670.00537109375 -11567.439453125 -6670.13623046875 L -11567.4150390625 -6670.138671875 L -11567.390625 -6670.14013671875 L -11552.1875 -6670.966796875 L -11553.12109375 -6688.10009765625 L -11553.1220703125 -6688.10791015625 L -11553.1220703125 -6688.1162109375 C -11553.189453125 -6689.8623046875 -11552.5859375 -6691.5302734375 -11551.466796875 -6692.69287109375 C -11550.486328125 -6693.7119140625 -11549.1875 -6694.2734375 -11547.810546875 -6694.2734375 C -11546.3798828125 -6694.2734375 -11545.0400390625 -6693.685546875 -11544.0390625 -6692.61865234375 C -11543.048828125 -6691.5634765625 -11542.5029296875 -6690.15087890625 -11542.5 -6688.640625 C -11542.376953125 -6682.5107421875 -11542.28515625 -6676.61474609375 -11542.234375 -6671.50732421875 L -11525.818359375 -6672.39892578125 L -11525.8095703125 -6672.3994140625 L -11525.8017578125 -6672.39990234375 C -11525.712890625 -6672.40283203125 -11525.6240234375 -6672.40478515625 -11525.5361328125 -6672.40478515625 C -11522.232421875 -6672.40478515625 -11519.64453125 -6670.072265625 -11519.64453125 -6667.0947265625 C -11519.64453125 -6665.6611328125 -11520.232421875 -6664.3203125 -11521.2998046875 -6663.3193359375 C -11522.353515625 -6662.33056640625 -11523.765625 -6661.78466796875 -11525.2763671875 -6661.7822265625 C -11529.5263671875 -6661.6953125 -11535.8193359375 -6661.5810546875 -11542.1826171875 -6661.515625 C -11542.19140625 -6654.08056640625 -11542.3369140625 -6649.3818359375 -11542.6142578125 -6647.53955078125 C -11542.970703125 -6643.6259765625 -11543.40625 -6641.39453125 -11544.0673828125 -6640.0810546875 C -11544.8779296875 -6638.47021484375 -11546.0703125 -6638.2529296875 -11547.12890625 -6638.2529296875 Z"/><path class="f" d="M -11547.12890625 -6639.2529296875 C -11545.33203125 -6639.2529296875 -11544.31640625 -6639.8583984375 -11543.607421875 -6647.66015625 C -11543.28515625 -6649.751953125 -11543.1796875 -6655.6328125 -11543.181640625 -6662.505859375 C -11536.34765625 -6662.5703125 -11529.591796875 -6662.6943359375 -11525.287109375 -6662.7822265625 C -11522.66796875 -6662.7822265625 -11520.64453125 -6664.7216796875 -11520.64453125 -6667.0947265625 C -11520.64453125 -6669.50341796875 -11522.7880859375 -6671.40478515625 -11525.5361328125 -6671.40478515625 C -11525.611328125 -6671.40478515625 -11525.6875 -6671.4033203125 -11525.763671875 -6671.400390625 L -11543.224609375 -6670.4521484375 C -11543.287109375 -6677.3837890625 -11543.412109375 -6684.267578125 -11543.5 -6688.6298828125 C -11543.5 -6691.25 -11545.4453125 -6693.2734375 -11547.810546875 -6693.2734375 C -11550.29296875 -6693.2734375 -11552.232421875 -6691.0146484375 -11552.123046875 -6688.154296875 L -11551.134765625 -6670.0224609375 L -11567.3359375 -6669.1416015625 C -11572.876953125 -6668.5634765625 -11574.603515625 -6669.31640625 -11574.6640625 -6666.4677734375 C -11574.68359375 -6664.6318359375 -11574.140625 -6663.6015625 -11566.263671875 -6662.890625 C -11564.1923828125 -6662.56884765625 -11558.416015625 -6662.46240234375 -11551.638671875 -6662.46240234375 C -11551.3359375 -6662.46240234375 -11551.029296875 -6662.46240234375 -11550.72265625 -6662.462890625 L -11549.859375 -6646.5888671875 C -11549.28125 -6641.0419921875 -11550.033203125 -6639.3193359375 -11547.185546875 -6639.2529296875 C -11547.166015625 -6639.2529296875 -11547.146484375 -6639.2529296875 -11547.12890625 -6639.2529296875 M -11547.12890625 -6637.2529296875 L -11547.185546875 -6637.2529296875 L -11547.208984375 -6637.2529296875 L -11547.232421875 -6637.25341796875 C -11547.912109375 -6637.26953125 -11549.9833984375 -6637.3173828125 -11550.953125 -6639.31396484375 C -11551.4384765625 -6640.3125 -11551.505859375 -6641.46875 -11551.607421875 -6643.21923828125 C -11551.66015625 -6644.12353515625 -11551.7197265625 -6645.14794921875 -11551.8486328125 -6646.38134765625 L -11551.853515625 -6646.4306640625 L -11551.8564453125 -6646.48046875 L -11552.6171875 -6660.462890625 C -11560.03515625 -6660.474609375 -11564.5849609375 -6660.619140625 -11566.50390625 -6660.904296875 C -11570.5703125 -6661.27392578125 -11572.916015625 -6661.74560546875 -11574.3408203125 -6662.4794921875 C -11576.693359375 -6663.69140625 -11576.671875 -6665.72412109375 -11576.6640625 -6666.4892578125 L -11576.6640625 -6666.49951171875 L -11576.6640625 -6666.51025390625 C -11576.6494140625 -6667.19140625 -11576.60546875 -6669.26318359375 -11574.607421875 -6670.2353515625 C -11573.609375 -6670.72119140625 -11572.4541015625 -6670.78857421875 -11570.705078125 -6670.89013671875 C -11569.80078125 -6670.9423828125 -11568.7763671875 -6671.001953125 -11567.5439453125 -6671.130859375 L -11567.494140625 -6671.1357421875 L -11567.4443359375 -6671.138671875 L -11553.240234375 -6671.9111328125 L -11554.1201171875 -6688.04541015625 L -11554.12109375 -6688.0615234375 L -11554.1220703125 -6688.07763671875 C -11554.1982421875 -6690.09423828125 -11553.494140625 -6692.029296875 -11552.1875 -6693.38623046875 C -11551.0166015625 -6694.60302734375 -11549.4619140625 -6695.2734375 -11547.810546875 -6695.2734375 C -11546.1005859375 -6695.2734375 -11544.501953125 -6694.57373046875 -11543.3095703125 -6693.302734375 C -11542.1474609375 -6692.06396484375 -11541.5048828125 -6690.4130859375 -11541.5 -6688.6513671875 C -11541.384765625 -6682.935546875 -11541.2978515625 -6677.4228515625 -11541.2451171875 -6672.5625 L -11525.8720703125 -6673.3974609375 L -11525.85546875 -6673.3984375 L -11525.83984375 -6673.39892578125 C -11525.73828125 -6673.40283203125 -11525.63671875 -6673.40478515625 -11525.5361328125 -6673.40478515625 C -11523.720703125 -6673.40478515625 -11522.0166015625 -6672.7822265625 -11520.736328125 -6671.65234375 C -11519.3876953125 -6670.46142578125 -11518.64453125 -6668.8427734375 -11518.64453125 -6667.0947265625 C -11518.64453125 -6665.3818359375 -11519.3447265625 -6663.78173828125 -11520.615234375 -6662.58984375 C -11521.853515625 -6661.42919921875 -11523.50390625 -6660.78759765625 -11525.265625 -6660.7822265625 C -11529.296875 -6660.7001953125 -11535.1630859375 -6660.5927734375 -11541.1845703125 -6660.5263671875 C -11541.2041015625 -6653.568359375 -11541.34765625 -6649.26953125 -11541.62109375 -6647.42041015625 C -11541.9892578125 -6643.3916015625 -11542.4541015625 -6641.060546875 -11543.173828125 -6639.63134765625 C -11544.2470703125 -6637.49951171875 -11545.9453125 -6637.2529296875 -11547.12890625 -6637.2529296875 Z"/></g><path class="d" d="M46.508,45.617c.619-4.883.265-30.372.088-40.972C46.6,2.025,45.005,0,43.061,0h0c-2.033,0-3.625,2.263-3.536,5.122l1.857,41.568c.474,5.543-.144,7.268,2.193,7.333C45.08,54.037,45.922,53.5,46.508,45.617Z" transform="translate(831.728 932.97)"/><path class="d" d="M46.735,44.913c.222-4.9.289-29.788.112-40.26C46.847,2.065,45.005,0,43.061,0h0c-2.033,0-3.625,2.235-3.536,5.059L41.381,46.12c.474,5.475-.144,7.179,2.193,7.244C45.08,53.378,46.148,52.7,46.735,44.913Z" transform="translate(900.929 916.792) rotate(90)"/></g></g></svg>