<svg xmlns="http://www.w3.org/2000/svg" width="38.33" height="38.33" viewBox="0 0 38.33 38.33">
  <g id="Groupe_290" data-name="Groupe 290" transform="translate(-958 -493.695)">
    <g id="Groupe_317" data-name="Groupe 317">
      <path id="Tracé_503" data-name="Tracé 503" d="M13.106,0c7.238,0,13.106,10.588,13.106,17.826S20.344,28,13.106,28,0,25.064,0,17.826,5.868,0,13.106,0Z" transform="translate(977.796 493.695) rotate(45)" fill="#fbbe44"/>
      <g id="farmer" transform="translate(971 504.003)">
        <path id="Tracé_232" data-name="Tracé 232" d="M294.5,16.656V14.434a15.023,15.023,0,0,0-2.494-.665,15.023,15.023,0,0,0-2.493.665V16.65h.017l-.017.006-1.417,2a21.218,21.218,0,0,1,2.2-.113c.586,0,1.16.024,1.72.069.56-.045,1.134-.069,1.72-.069a21.251,21.251,0,0,1,2.192.112Zm0,0" transform="translate(-275.709 -13.177)" fill="#fff0c9"/>
        <path id="Tracé_233" data-name="Tracé 233" d="M296.276,130.026v-.348l-3.244-.549-3.238.549-.017,3.342a2.138,2.138,0,0,0,.894,1.632L293.026,136l2.348-1.346a2.145,2.145,0,0,0,.9-1.632v-.814a1.09,1.09,0,0,0,0-2.181Zm0,0" transform="translate(-277.317 -123.576)" fill="#ffdec7"/>
        <path id="Tracé_234" data-name="Tracé 234" d="M283.994,321.322l-3.569-1.059a.284.284,0,0,0-.482,0l-3.572,1.059a1.563,1.563,0,0,0-1.062,1.413v3.892h9.748v-3.892A1.564,1.564,0,0,0,283.994,321.322Zm0,0" transform="translate(-263.47 -306.363)" fill="#fff"/>
        <path id="Tracé_235" data-name="Tracé 235" d="M238.8,331.871h.681v6.288H238.8Zm0,0" transform="translate(-228.536 -317.6)" fill="#ffc943"/>
        <path id="Tracé_236" data-name="Tracé 236" d="M423.3,331.871h1.363v6.288H423.3Zm0,0" transform="translate(-405.102 -317.6)" fill="#fff"/>
        <path id="Tracé_237" data-name="Tracé 237" d="M437.332,331.871h.76v6.288h-.76Zm0,0" transform="translate(-418.526 -317.6)" fill="#ffc943"/>
        <path id="Tracé_238" data-name="Tracé 238" d="M296.454,285.332h-1.6v1.537l1.906,1.893.8-.794-1.106-1.1Zm0,0" transform="translate(-282.176 -273.062)" fill="#fff"/>
        <path id="Tracé_239" data-name="Tracé 239" d="M334.234,290.543h-2.21v1.406l1.106,1.005,1.1-1.005Zm0,0" transform="translate(-317.746 -278.049)" fill="#f9bd95"/>
        <path id="Tracé_240" data-name="Tracé 240" d="M277.41,70.969a17.006,17.006,0,0,0-4.273-.446,6.86,6.86,0,0,0-.905.134l-1.994,2.4a25.369,25.369,0,0,1,8.791.179Zm0,0" transform="translate(-258.618 -67.491)" fill="#d8902a"/>
        <path id="Tracé_241" data-name="Tracé 241" d="M.436,468H.43a.43.43,0,0,0,0,.86H.436a.43.43,0,0,0,0-.86Zm0,0" transform="translate(0 -447.875)"/>
        <path id="Tracé_242" data-name="Tracé 242" d="M22.017,16.372a1.984,1.984,0,0,0-1.351-1.819l-.019-.006-3.558-1.056a.244.244,0,0,1-.171-.166V12.27c0-.014,0-.028,0-.042l1.356-.778.023-.014a2.572,2.572,0,0,0,1.094-1.958c0-.011,0-.022,0-.033V9a1.519,1.519,0,0,0,.757-2.407c.193.061.383.125.569.193a.43.43,0,0,0,.5-.654l-1.99-2.79V1.257a.43.43,0,0,0-.277-.4A14.057,14.057,0,0,0,14.579,0a14.059,14.059,0,0,0-4.367.855.43.43,0,0,0-.276.4V3.341L7.954,6.131a.43.43,0,0,0,.5.653c.182-.066.368-.128.556-.188A1.519,1.519,0,0,0,9.768,9v.446c0,.011,0,.022,0,.033a2.568,2.568,0,0,0,1.086,1.959l.024.014,1.372.784c0,.012,0,.023,0,.035v.863a.434.434,0,0,0-.007.076v.1c0,.068-.071.141-.173.179L8.508,14.546l-.019.006a1.984,1.984,0,0,0-1.351,1.819v3.753H4.386V15.91H5.2a1.507,1.507,0,0,0,1.505-1.505V8.512a.43.43,0,0,0-.86,0v5.893a.646.646,0,0,1-.645.645H4.761V8.473a.43.43,0,0,0-.86,0V15.05H2.813V8.473a.43.43,0,0,0-.86,0V15.05H1.505a.646.646,0,0,1-.645-.645V8.512a.43.43,0,0,0-.86,0v5.893A1.507,1.507,0,0,0,1.505,15.91h.817v4.214h-.6a.43.43,0,1,0,0,.86H21.587a.43.43,0,0,0,.43-.43Zm-.86,0v3.753H20V15.25l.4.118A1.143,1.143,0,0,1,21.157,16.372ZM14.579.86a12.989,12.989,0,0,1,3.783.7V2.938A20.2,20.2,0,0,0,14.478,2.6a18.061,18.061,0,0,0-3.683.325V1.561A12.965,12.965,0,0,1,14.579.86Zm-3.95,2.99a15.646,15.646,0,0,1,3.85-.388,18.15,18.15,0,0,1,4.055.394l1.232,1.727a19.994,19.994,0,0,0-5.182-.652A19.993,19.993,0,0,0,9.4,5.584Zm0,5.577v-.8a.43.43,0,0,0-.43-.43.66.66,0,1,1,0-1.321.43.43,0,0,0,.43-.409l.015-.3a20.518,20.518,0,0,1,7.887,0V6.45a.43.43,0,0,0,.43.43.66.66,0,0,1,0,1.321.43.43,0,0,0-.43.43v.8a1.708,1.708,0,0,1-.7,1.284l-2.615,1.5-.023.014a1.085,1.085,0,0,1-1.228,0l-.024-.014-2.623-1.5A1.706,1.706,0,0,1,10.628,9.427ZM13.5,12.95a1.946,1.946,0,0,0,2.152,0l.4-.231v.457c0,.01,0,.021,0,.032v.1c0,.013,0,.025,0,.038v.278l-1.472,1.466-1.476-1.466v-.9Zm-1.179,1.362.019-.006a1.272,1.272,0,0,0,.159-.068l1.78,1.767a.43.43,0,0,0,.606,0l1.772-1.764a1.26,1.26,0,0,0,.153.065l.019.006,2.3.683v5.129h-.5V17.1a.43.43,0,1,0-.86,0v3.025H11.38V17.1a.43.43,0,1,0-.86,0v3.025h-.5V15ZM8,16.372a1.143,1.143,0,0,1,.765-1l.394-.117v4.874H8ZM3.182,20.125V15.91h.344v4.214Zm0,0"/>
        <path id="Tracé_243" data-name="Tracé 243" d="M369.472,166.322a.487.487,0,1,0-.487-.487A.488.488,0,0,0,369.472,166.322Zm0,0" transform="translate(-353.118 -158.238)"/>
        <path id="Tracé_244" data-name="Tracé 244" d="M286.913,165.348a.487.487,0,1,0,.487.487A.488.488,0,0,0,286.913,165.348Zm0,0" transform="translate(-274.109 -158.238)"/>
        <path id="Tracé_245" data-name="Tracé 245" d="M245.082,358.433a.43.43,0,0,0,.43-.43V358a.43.43,0,0,0-.86,0V358A.43.43,0,0,0,245.082,358.433Zm0,0" transform="translate(-234.132 -342.191)"/>
        <path id="Tracé_246" data-name="Tracé 246" d="M413.735,358.433a.43.43,0,0,0,.43-.43V358a.43.43,0,0,0-.86,0V358A.43.43,0,0,0,413.735,358.433Zm0,0" transform="translate(-395.532 -342.191)"/>
      </g>
    </g>
  </g>
</svg>
