<svg xmlns="http://www.w3.org/2000/svg" width="147" height="110" style=""><rect id="backgroundrect" width="100%" height="100%" x="0" y="0" fill="none" stroke="none" class="" style=""/>
  
<g class="currentLayer" style=""><title>Layer 1</title>
    <path id="Tracé_185" data-name="Tracé 185" d="M126.8410166015625,-23.684210300445557 c27.9,0 50.524,40.82 50.524,68.723 s-22.621,39.2 -50.524,39.2 S76.3170166015625,72.9427896995544 76.3170166015625,45.0387896995544 S98.93801660156248,-23.684210300445557 126.8410166015625,-23.684210300445557 z" transform="rotate(45 76.31701660156249,-23.68421554565431) " fill="#fbbe44" class=""/>
    <g id="farmer" class="">
      <path id="Tracé_232" data-name="Tracé 232" d="M90.28819544698116,37.56751270818309 V32.53856219839692 a34.01449493157863,34.01449493157863 0 0 0 -5.646056158423424,-1.5052640981674195 a34.01581072187424,34.01581072187424 0 0 0 -5.646056158423424,1.5052640981674195 v5.017108397126198 h0.03947370886802703 l-0.03947370886802703,0.013157902956009009 L75.79081797005058,42.0859365832768 a48.043451063275334,48.043451063275334 0 0 1 4.9710557367801655,-0.25526331734657437 c1.3263166179656984,0 2.6315805912017822,0.052631611824035814 3.8947392749786376,0.15526325488090612 c1.267106054663659,-0.1026316430568697 2.5684226570129396,-0.15526325488090612 3.8947392749786376,-0.15526325488090612 a48.11845111012459,48.11845111012459 0 0 1 4.963160995006562,0.2539475270509735 zm0,0 " fill="#fff0c9"/>
      <path id="Tracé_233" data-name="Tracé 233" d="M90.66582758305651,44.29646810462423 v-0.7894741773605356 l-7.344741430044174,-1.243421829342843 l-7.331583527088165,1.243421829342843 l-0.03815791857242608,7.568425780296326 a4.842108287811279,4.842108287811279 0 0 0 2.0250012649297715,3.6960549403429033 l5.33158227777481,3.048686114907265 l5.3157927942276,-3.048686114907265 a4.85789777135849,4.85789777135849 0 0 0 2.042106538772583,-3.6960549403429033 v-1.8421064138412475 a2.468422594547272,2.468422594547272 0 0 0 0,-4.9368451890945435 zm0,0 " fill="#ffdec7"/>
      <path id="Tracé_234" data-name="Tracé 234" d="M94.20792847343786,63.56226310774606 l-8.081583995580674,-2.3973699185848236 a0.6434214545488364,0.6434214545488364 0 0 0 -1.0921059453487405,0 l-8.088162947058677,2.3973699185848236 a3.5394758951663983,3.5394758951663983 0 0 0 -2.405264660358429,3.2000019989013673 v8.81579498052597 h22.071066418409348 v-8.81579498052597 A3.5407916854619987,3.5407916854619987 0 0 0 94.20792847343786,63.56226310774606 zm0,0 " fill="#fff"/>
      <path id="Tracé_235" data-name="Tracé 235" d="M70.98158998392539,62.00437671365276 h1.5434220167398456 v14.236850998401643 H70.98158998392539 zm0,0 " fill="#ffc943"/>
      <path id="Tracé_236" data-name="Tracé 236" d="M88.946094806512,62.00437671365276 h3.08552824318409 v14.236850998401643 H88.946094806512 zm0,0 " fill="#fff"/>
      <path id="Tracé_237" data-name="Tracé 237" d="M90.31712098930956,62.00437671365276 h1.7197379163503648 v14.236850998401643 h-1.7197379163503648 zm0,0 " fill="#ffc943"/>
      <path id="Tracé_238" data-name="Tracé 238" d="M80.06451063244381,57.474121647986024 h-3.6184233129024506 v3.480265331864357 l4.317107959866524,4.2868447830677034 l1.8078958661556248,-1.7986853340864184 l-2.500001561641693,-2.488159448981285 zm0,0 " fill="#fff"/>
      <path id="Tracé_239" data-name="Tracé 239" d="M85.0684620903276,57.98067553400135 h-5.000003123283386 v3.1842125153541563 l2.500001561641693,2.2763172113895416 l2.500001561641693,-2.2763172113895416 zm0,0 " fill="#f9bd95"/>
      <path id="Tracé_240" data-name="Tracé 240" d="M90.28686295231657,37.56751283868608 a38.50660300076008,38.50660300076008 0 0 0 -9.675006043553353,-1.0092111567258892 a15.536851810455323,15.536851810455323 0 0 0 -2.0486854902505875,0.30394755828380593 l-4.514476504206658,5.438161291718483 a57.439509564161305,57.439509564161305 0 0 1 19.90527559185028,0.405263411045077 zm0,0 " fill="#d8902a"/>
      <path id="Tracé_241" data-name="Tracé 241" d="M48.72368487715721,75.25965778867197 H48.710526974201215 a0.9736848187446645,0.9736848187446645 0 0 0 0,1.9473696374893188 H48.72368487715721 a0.9736848187446645,0.9736848187446645 0 0 0 0,-1.9473696374893188 zm0,0 "/>
      <path id="Tracé_242" data-name="Tracé 242" d="M97.58687329459185,66.76226831902574 a4.492108069181443,4.492108069181443 0 0 0 -3.059212437272072,-4.11973941552639 l-0.04342107975482956,-0.013157902956009004 l-8.055268189668656,-2.389475176811218 a0.5513161338567737,0.5513161338567737 0 0 1 -0.3881581372022634,-0.37631602454185537 V57.474104622379386 c0,-0.03157896709442156 0,-0.06447372448444384 0,-0.09473690128326423 L89.10792062973977,55.61357714439944 l0.052631611824035814,-0.032894757390022504 a5.823687848329544,5.823687848329544 0 0 0 2.4763173363208772,-4.434213296175003 c0,-0.025000015616417 0,-0.050000031232833884 0,-0.07368425655365009 v-1.009211156725889 a3.439475832700729,3.439475832700729 0 0 0 1.7105273842811584,-5.450003404378892 c0.436842378139499,0.13815798103809362 0.8671058048009935,0.28289491355419216 1.2881586993932723,0.436842378139499 a0.9736848187446644,0.9736848187446644 0 0 0 1.1263164930343637,-1.4802640825510025 l-4.5065817624330515,-6.315793418884277 V32.53856273044686 a0.9736848187446644,0.9736848187446644 0 0 0 -0.6263161807060244,-0.9092110942602227 A31.828967250585556,31.828967250585556 0 0 0 80.74738909149166,29.692508321062128 a31.832914621472362,31.832914621472362 0 0 0 -9.888164071440697,1.936843315124512 a0.9736848187446644,0.9736848187446644 0 0 0 -0.6263161807060244,0.9092110942602227 V37.256986730471375 l-4.486844907999039,6.315793418884277 a0.9736848187446644,0.9736848187446644 0 0 0 1.127632283329966,1.4789482922554018 c0.4105265722274806,-0.15000009369850234 0.8315794668197685,-0.2907896553277983 1.2592113128900537,-0.4263160557746916 a3.439475832700729,3.439475832700729 0 0 0 1.7210537066459657,5.440792872309684 v1.009211156725889 c0,0.025000015616417 0,0.050000031232833884 0,0.07368425655365009 a5.8157931065559385,5.8157931065559385 0 0 0 2.457896272182465,4.434213296175003 l0.05394740211963669,0.032894757390022504 l3.106580887913704,1.7763168990612028 c0,0.026315805912018 0,0.052631611824035814 0,0.08026320803165493 V59.429369001642144 a0.9815795605182697,0.9815795605182697 0 0 0 -0.015789483547210787,0.17105273842811586 v0.23421067261695888 c0,0.15394746458530523 -0.1605264160633089,0.3197370418310168 -0.3947370886802678,0.40526341104507696 l-8.06316293144226,2.389475176811218 l-0.04342107975482956,0.014473693251609932 a4.492108069181443,4.492108069181443 0 0 0 -3.059212437272072,4.11973941552639 v8.497373728990555 H57.66842730665208 V65.7175308243188 H59.518428462266854 a3.4118442364931107,3.4118442364931107 0 0 0 3.407896865606308,-3.407896865606308 V48.96620457102416 a0.9736848187446644,0.9736848187446644 0 1 0 -1.9473696374893188,0 V62.309633958712894 a1.46184301841259,1.46184301841259 0 0 1 -1.4605272281169892,1.4605272281169892 H58.517112047314626 V48.876730830923016 a0.9736848187446644,0.9736848187446644 0 0 0 -1.9473696374893188,0 V63.77147697712532 H54.10658297646047 V48.876730830923016 a0.9736848187446644,0.9736848187446644 0 0 0 -1.9473696374893188,0 V63.77147697712532 H51.14473902106289 a1.46184301841259,1.46184301841259 0 0 1 -1.4605272281169892,-1.4605272281169892 V48.96620457102416 a0.9736848187446644,0.9736848187446644 0 1 0 -1.9473696374893188,0 V62.309633958712894 a3.4118442364931107,3.4118442364931107 0 0 0 3.407896865606308,3.407896865606308 H53.00000333786011 v9.542111223697662 H51.63026564013951 a0.9736848187446644,0.9736848187446644 0 1 0 0,1.9473696374893188 H96.6131884758472 a0.9736848187446644,0.9736848187446644 0 0 0 0.9736848187446644,-0.9736848187446644 zm-1.9473696374893188,0 v8.497373728990555 h-2.6315805912017822 V64.22279304851622 l0.8973689815998144,0.26315805912017826 A2.588159511446953,2.588159511446953 0 0 1 95.63950365710252,66.76226831902574 zM80.74738909149166,31.639877958551466 A29.409228896975517,29.409228896975517 0 0 1 89.31581549644473,33.228036845341585 V36.34514405562029 a45.73423909449578,45.73423909449578 0 0 0 -8.794742335796357,-0.7605267908573158 a40.8934465969801,40.8934465969801 0 0 0 -8.339478893518448,0.7342109849452974 V33.228036845341585 A29.35528149485588,29.35528149485588 0 0 1 80.74738909149166,31.639877958551466 zm-8.94737401008606,6.769741070866584 a35.42633791875839,35.42633791875839 0 0 1 8.715794918060304,-0.877632127165801 a41.09607830250263,41.09607830250263 0 0 1 9.18290047299862,0.89079003012181 l2.78947542667389,3.909212968230247 A45.26976512014866,45.26976512014866 0 0 0 80.76317857503894,40.85698897923585 a45.26318616867065,45.26318616867065 0 0 0 -11.742112597942352,1.4789482922554018 zm0,12.631586837768554 V49.2333100010311 a0.9736848187446644,0.9736848187446644 0 0 0 -0.9736848187446644,-0.9736848187446644 a1.4947377758026126,1.4947377758026126 0 1 1 0,-2.9907913419008256 a0.9736848187446644,0.9736848187446644 0 0 0 0.9723690284490635,-0.9210532069206245 l0.032894757390022504,-0.6736846313476563 a46.457923757076266,46.457923757076266 0 0 1 17.859221682190896,0 V44.297780602231896 a0.9736848187446644,0.9736848187446644 0 0 0 0.9736848187446644,0.9736848187446644 a1.4947377758026126,1.4947377758026126 0 0 1 0,2.9907913419008256 a0.9736848187446644,0.9736848187446644 0 0 0 -0.9736848187446644,0.9736848187446644 v1.8039484952688216 a3.8684234690666197,3.8684234690666197 0 0 1 -1.5789483547210692,2.906580762982369 l-5.92105633020401,3.3960547529458998 l-0.052631611824035814,0.03157896709442156 a2.455264691591263,2.455264691591263 0 0 1 -2.780264894604683,0 l-0.05394740211963669,-0.032894757390022504 l-5.9381616040468215,-3.3947389626502993 A3.863160307884216,3.863160307884216 0 0 1 71.80133087170123,51.03857428659532 zm6.509214592337608,7.977636562228202 a4.405265909671783,4.405265909671783 0 0 0 4.8684240937232985,0 l0.9118426748514251,-0.5263161182403564 v1.0355269626379013 c0,0.023684225320816113 0,0.0473684506416321 0,0.07105267596244867 v0.23421067261695888 c0,0.028947386503219867 0,0.057894773006439665 0,0.08684215950965954 v0.6289477612972264 L80.76317857503894,63.86752966870401 l-3.3421073508262635,-3.3197389158010484 V58.50831579472175 zm-2.6684227194786074,3.082896662592888 l0.04342107975482956,-0.014473693251609932 a2.87894916677475,2.87894916677475 0 0 0 0.3605265409946444,-0.15394746458530523 l4.028949885129928,4.00131828892231 a0.9736848187446644,0.9736848187446644 0 0 0 1.3723692783117294,0 l4.011844611287117,-3.9934235471487045 a2.8513175705671308,2.8513175705671308 0 0 0 0.3473686380386354,0.14736851310730015 l0.042105289459228666,0.014473693251609932 L91.06450079929826,63.639897947565345 v11.614480939269066 h-1.1381586056947757 V68.40832197882271 a0.9736848187446644,0.9736848187446644 0 1 0 -1.9473696374893188,0 v6.85000427889824 h-14.473693251609802 V68.40832197882271 a0.9736848187446644,0.9736848187446644 0 1 0 -1.9473696374893188,0 v6.85000427889824 h-1.1381586056947757 V63.646476899042895 zm-9.796058750748635,4.664476597905159 a2.588159511446953,2.588159511446953 0 0 1 1.7315800290107728,-2.27368563079834 l0.8934216107130117,-0.26315805912017826 v11.035533209204674 H65.84606399381165 zM54.942109814167026,75.25964204801639 V65.7175308243188 h0.7789478549957285 v9.542111223697662 zm0,0 "/>
      <path id="Tracé_243" data-name="Tracé 243" d="M84.76581297549465,47.999099346233166 a1.1039480580091485,1.1039480580091485 0 1 0 -1.1039480580091485,-1.1039480580091485 A1.1052638483047494,1.1052638483047494 0 0 0 84.76581297549465,47.999099346233166 zm0,0 "/>
      <path id="Tracé_244" data-name="Tracé 244" d="M76.72766612156211,45.7925190205103 a1.1039480580091485,1.1039480580091485 0 1 0 1.1026322677135476,1.1039480580091485 A1.1052638483047494,1.1052638483047494 0 0 0 76.72766612156211,45.7925190205103 zm0,0 "/>
      <path id="Tracé_245" data-name="Tracé 245" d="M72.53028399588891,66.46752904414609 a0.9736848187446645,0.9736848187446645 0 0 0 0.9736848187446645,-0.9736848187446645 v-0.014473693251609935 a0.9736848187446645,0.9736848187446645 0 1 0 -1.9473696374893188,0 v0.014473693251609935 A0.9736848187446645,0.9736848187446645 0 0 0 72.53028399588891,66.46752904414609 zm0,0 "/>
      <path id="Tracé_246" data-name="Tracé 246" d="M88.95264645277146,66.46752904414609 a0.9736848187446645,0.9736848187446645 0 0 0 0.9736848187446645,-0.9736848187446645 v-0.014473693251609935 a0.9736848187446645,0.9736848187446645 0 1 0 -1.9473696374893188,0 v0.014473693251609935 A0.9736848187446645,0.9736848187446645 0 0 0 88.95264645277146,66.46752904414609 zm0,0 "/>
    </g>
  </g></svg>