<svg xmlns="http://www.w3.org/2000/svg" xmlns:xlink="http://www.w3.org/1999/xlink" viewBox="0 0 130.09 130.09"><defs><style>.a,.k{fill:#ec603e;}.b{fill:#98d400;}.b,.c,.e,.h,.i,.k{stroke:#000;}.c{fill:#fd4e26;}.d{fill:#fd3018;}.e{fill:#f8937b;}.f{fill:#ffdec7;}.g{fill:#e8d7cc;}.h{fill:#fe9923;}.i{fill:#b22f65;}.j{fill:#762957;}.l{filter:url(#a);}</style><filter id="a" x="0" y="0" width="130.09" height="130.09" filterUnits="userSpaceOnUse"><feOffset dy="8" input="SourceAlpha"/><feGaussianBlur stdDeviation="5" result="b"/><feFlood flood-opacity="0.09"/><feComposite operator="in" in2="b"/><feComposite in="SourceGraphic"/></filter></defs><g transform="translate(-1244 -2818.68)"><g class="l" transform="matrix(1, 0, 0, 1, 1244, 2818.68)"><path class="a" d="M34.222,0c18.9,0,34.222,27.649,34.222,46.55S53.123,73.1,34.223,73.1,0,65.45,0,46.549,15.322,0,34.222,0Z" transform="translate(66.69 7) rotate(45)"/></g><g transform="translate(1294.963 2864.963)"><path class="b" d="M7.453,34.107,6.195,30.984a2.349,2.349,0,0,0-3.622-.976l-1.666,1.3a2.349,2.349,0,0,0,.057,3.75l2.719,1.987a.783.783,0,0,0,1.094-.17L7.02,35.126A.784.784,0,0,0,7.453,34.107Z" transform="translate(0 -27.971)"/><path class="c" d="M71.286,114.282l-2.631-4.432a3.578,3.578,0,0,0-5.246-.971,3.53,3.53,0,0,0-1.347,2.6,3.437,3.437,0,0,0,.5,2.036L63.6,114.69l1.723,1.707a.735.735,0,0,0,.548.235h4.745a.775.775,0,0,0,.783-.783V114.69A.759.759,0,0,0,71.286,114.282Z" transform="translate(-58.815 -102.485)"/><path class="d" d="M75.641,168.122l-2.646,2-.418-.479a1.761,1.761,0,0,1-.481-.72l2.59-2.038a.782.782,0,1,1,.955,1.237Z" transform="translate(-68.046 -158.736)"/><path class="e" d="M53.714,301H31.79a.728.728,0,0,0-.6.282.713.713,0,0,0-.172.626l1.347,8.133a2.34,2.34,0,0,0,2.318,1.973h16.13a2.34,2.34,0,0,0,2.318-1.973l1.347-8.133C54.529,301.689,53.949,301,53.714,301Z" transform="translate(-29.389 -285.288)"/><path class="a" d="M266.28,301.8l-1.18,7.128a2.051,2.051,0,0,1-2.031,1.729H256V301h9.607a.637.637,0,0,1,.521.247A.625.625,0,0,1,266.28,301.8Z" transform="translate(-241.854 -284.553)"/><g transform="translate(6.316 18.844)"><path class="f" d="M121.783,365.75a.783.783,0,0,1-.783-.783v-3.184a.783.783,0,1,1,1.566,0v3.184A.783.783,0,0,1,121.783,365.75Z" transform="translate(-121 -361)"/><path class="f" d="M181.783,365.75a.783.783,0,0,1-.783-.783v-3.184a.783.783,0,1,1,1.566,0v3.184A.783.783,0,0,1,181.783,365.75Z" transform="translate(-177.868 -361)"/><path class="f" d="M242.566,361.783v3.184a.783.783,0,0,1-1.566,0v-3.184a.783.783,0,1,1,1.566,0Z" transform="translate(-234.736 -361)"/></g><g transform="translate(13.363 18.844)"><path class="g" d="M301.783,365.75a.782.782,0,0,1-.783-.783v-3.184a.783.783,0,1,1,1.566,0v3.184A.783.783,0,0,1,301.783,365.75Z" transform="translate(-298.651 -361)"/><path class="g" d="M361.783,365.75a.783.783,0,0,1-.783-.783v-3.184a.783.783,0,1,1,1.566,0v3.184A.783.783,0,0,1,361.783,365.75Z" transform="translate(-355.519 -361)"/><path class="g" d="M256.783,361.783v3.184a.775.775,0,0,1-.783.783V361A.775.775,0,0,1,256.783,361.783Z" transform="translate(-256 -361)"/></g><path class="e" d="M213.349,0A2.346,2.346,0,0,0,211,2.349V13.363a.775.775,0,0,0,.783.783h3.132a.775.775,0,0,0,.783-.783V2.349A2.346,2.346,0,0,0,213.349,0Z" transform="translate(-199.986 0)"/><path class="h" d="M377.454,71.962H376.17a.783.783,0,0,1-.738-1.045,3.927,3.927,0,0,0-1.907-4.79.783.783,0,0,1-.354-1.021,7.046,7.046,0,0,1,6.4-4.107.783.783,0,0,1,.783.783v4.7a7.036,7.036,0,0,1-2.38,5.286A.784.784,0,0,1,377.454,71.962Z" transform="translate(-353.625 -57.816)"/><path class="i" d="M279.347,129.194h-7.564a.783.783,0,0,1-.783-.783v-5.074a.786.786,0,0,1,.264-.586,5.609,5.609,0,0,1,6.154-.784,5.493,5.493,0,0,1,2.667,6.706A.782.782,0,0,1,279.347,129.194Z" transform="translate(-256.854 -115.048)"/><ellipse class="j" cx="0.783" cy="0.783" rx="0.783" ry="0.783" transform="translate(17.278 9.448)"/><path class="a" d="M257.437,1.046V10.8c0,.36.193.668-.153.668H255.73V-.725A1.641,1.641,0,0,1,257.437,1.046Z" transform="translate(-242.391 1.379)"/><path class="e" d="M25.273,241H3.349a2.349,2.349,0,0,0,0,4.7H25.273a2.349,2.349,0,0,0,0-4.7Z" transform="translate(-0.948 -228.42)"/><path class="k" d="M269.311,243.349a2.346,2.346,0,0,1-2.349,2.349H256V241h10.962A2.346,2.346,0,0,1,269.311,243.349Z" transform="translate(-242.637 -228.42)"/></g></g></svg>