<svg xmlns="http://www.w3.org/2000/svg" viewBox="0 0 167.249 161.934"><defs><style>.a,.b{fill:#006381;}.a{opacity:0.2;}.c{fill:#fff;}.d{fill:#fbbe44;}.e,.f{stroke:none;}</style></defs><g transform="translate(-797.999 -892.5)"><g transform="translate(797.999 892.501)"><path class="a" d="M54.641,0c30.177,0,54.641,44.145,54.641,74.323s-24.464,42.4-54.641,42.4S0,104.5,0,74.323,24.464,0,54.641,0Z" transform="translate(89.974 2.125) rotate(45)"/><path class="b" d="M54.641,0c30.177,0,54.641,44.145,54.641,74.323s-24.464,42.4-54.641,42.4S0,104.5,0,74.323,24.464,0,54.641,0Z" transform="translate(82.535 0) rotate(45)"/></g><g class="c" transform="translate(899.938 906.546) rotate(41)"><path class="e" d="M 29.83016967773438 84.13744354248047 C 26.8226375579834 84.13744354248047 23.51774787902832 84.07112121582031 20.32168197631836 84.00698852539062 C 17.16378211975098 83.94362640380859 13.89835929870605 83.87808990478516 10.96382617950439 83.87808990478516 C 9.447481155395508 83.87808990478516 8.133638381958008 83.89503479003906 6.947448253631592 83.92988586425781 C 6.842068195343018 83.93479919433594 6.735598087310791 83.93728637695312 6.630849361419678 83.93728637695312 C 6.630618095397949 83.93728637695312 6.630401611328125 83.93728637695312 6.630170345306396 83.93728637695312 C 4.628414630889893 83.93708038330078 2.732714653015137 83.05558013916016 1.292259097099304 81.45516967773438 C -0.100007563829422 79.90828704833984 -0.9138075709342957 77.86050415039062 -0.9992187023162842 75.68903350830078 L -0.9999964833259583 75.66938781738281 L -0.9999964833259583 75.64971923828125 C -0.9999964833259583 73.47925567626953 -0.2059853374958038 71.41529846191406 1.235770225524902 69.83805847167969 C 2.674203634262085 68.26444244384766 4.640525817871094 67.36193084716797 6.630548000335693 67.36193084716797 C 6.735815048217773 67.36193084716797 6.84253454208374 67.36443328857422 6.947884082794189 67.36933135986328 L 7.877425670623779 67.39710235595703 C 18.98658752441406 67.72895050048828 30.46269798278809 68.07177734375 41.84291458129883 68.56461334228516 L 38.52862548828125 7.690389633178711 L 38.52817153930664 7.682044982910156 L 38.52785873413086 7.673700332641602 C 38.43464660644531 5.201300621032715 39.28651428222656 2.843200445175171 40.86503601074219 1.204056143760681 C 42.23376846313477 -0.2172550112009048 44.04117965698242 -0.999999463558197 45.95432662963867 -0.999999463558197 C 47.95361328125 -0.999999463558197 49.82480239868164 -0.1782438904047012 51.22319412231445 1.313900589942932 C 52.61279296875 2.796688079833984 53.37907791137695 4.785524845123291 53.38150787353516 6.91526985168457 C 53.70640563964844 22.89639854431152 54.33938217163086 60.82411956787109 53.21018981933594 68.15933227539062 C 52.89975357055664 70.38257598876953 52.18999481201172 72.52398681640625 51.10057067871094 74.52424621582031 C 50.23193740844727 76.11912536621094 49.12186050415039 77.62677001953125 47.80118179321289 79.00532531738281 C 45.71126556396484 81.18682098388672 43.76689529418945 82.34473419189453 43.43271255493164 82.53607177734375 C 41.75955200195312 83.67292785644531 37.80484008789062 84.13744354248047 29.83016967773438 84.13744354248047 Z"/><path class="f" d="M 29.83026504516602 83.137451171875 C 36.09052276611328 83.137451171875 41.24563980102539 82.85292816162109 42.90141677856445 81.68772125244141 C 42.90141677856445 81.68772125244141 50.93539428710938 77.24789428710938 52.22082901000977 68.01371002197266 C 53.3455924987793 60.73288345336914 52.70286560058594 22.73034477233887 52.38150405883789 6.925532341003418 C 52.38150405883789 3.018744945526123 49.48928070068359 7.495117188227596e-06 45.95433044433594 7.495117188227596e-06 C 42.25870513916016 7.495117188227596e-06 39.36648178100586 3.37391996383667 39.52715682983398 7.636020183563232 L 42.90141677856445 69.61188507080078 C 30.85046768188477 69.07925415039062 18.79950523376465 68.72394561767578 6.909217357635498 68.36862182617188 C 6.816060066223145 68.36415100097656 6.723042964935303 68.36193084716797 6.630541801452637 68.36193084716797 C 3.053455352783203 68.36193084716797 4.934692242386518e-06 71.66818237304688 4.934692242386518e-06 75.64971923828125 C 0.1566101014614105 79.63055419921875 3.06139349937439 82.93691253662109 6.630268573760986 82.93728637695312 C 6.723015785217285 82.93729400634766 6.815608978271484 82.93507385253906 6.909217357635498 82.93057250976562 C 8.178010940551758 82.89317321777344 9.540700912475586 82.87808227539062 10.96374797821045 82.87808227539062 C 16.87042617797852 82.87808227539062 23.85300827026367 83.137451171875 29.83026504516602 83.137451171875 M 29.83026695251465 85.13744354248047 C 26.81269264221191 85.13744354248047 23.5026683807373 85.07102203369141 20.3016300201416 85.00678253173828 C 17.14861679077148 84.94350433349609 13.88825511932373 84.87808227539062 10.96374225616455 84.87808227539062 C 9.460871696472168 84.87808227539062 8.158991813659668 84.89481353759766 6.984511852264404 84.92922973632812 C 6.866793155670166 84.9345703125 6.74798583984375 84.93727874755859 6.63104248046875 84.93727874755859 C 4.341167449951172 84.93704223632812 2.181529998779297 83.93798065185547 0.5489799380302429 82.1241455078125 C -0.9991700649261475 80.40406799316406 -1.903870105743408 78.13265991210938 -1.9984450340271 75.72833251953125 L -1.999995112419128 75.68904876708984 L -1.999995112419128 75.64971923828125 C -1.999995112419128 73.22893524169922 -1.112970113754272 70.92536926269531 0.4976674318313599 69.16336059570312 C 2.125079870223999 67.38301849365234 4.360429763793945 66.36193084716797 6.630542278289795 66.36193084716797 C 6.748385429382324 66.36193084716797 6.867721080780029 66.36464691162109 6.985561847686768 66.37000274658203 L 7.911805152893066 66.39768218994141 C 18.66451072692871 66.71889495849609 29.76102828979492 67.05038452148438 40.78447723388672 67.51831817626953 L 37.53011703491211 7.744744777679443 L 37.52920532226562 7.728057384490967 L 37.52857971191406 7.711357593536377 C 37.42519378662109 4.968870162963867 38.37874221801758 2.344219923019409 40.14472961425781 0.5103949904441833 C 41.70370483398438 -1.108455061912537 43.76692962646484 -1.999992489814758 45.95433044433594 -1.999992489814758 C 48.23305511474609 -1.999992489814758 50.36336898803711 -1.065942525863647 51.95284271240234 0.6301075220108032 C 53.51430892944336 2.296259641647339 54.37633895874023 4.52354907989502 54.3814811706543 6.904003620147705 C 54.78540420532227 26.77486991882324 55.29795074462891 61.13961410522461 54.19974517822266 68.30367279052734 C 53.87217330932617 70.64433288574219 53.12496566772461 72.89805603027344 51.97876739501953 75.00254821777344 C 51.06779098510742 76.67515563964844 49.90520477294922 78.25464630126953 48.52329254150391 79.69710540771484 C 46.41447830200195 81.89832305908203 44.42108154296875 83.11795806884766 43.96366119384766 83.38409423828125 C 42.07125473022461 84.64456176757812 38.07835006713867 85.13744354248047 29.83026695251465 85.13744354248047 Z"/></g><path class="d" d="M6.4,82.983c11.158-.329,29.975,1.206,33.325-1.151,0,0,7.438-4.111,8.629-12.661,1.041-6.741.45-47.495.153-62.128C48.5,3.426,45.8,0,42.531,0h0c-3.422,0-3.815,4-4.242,7.715l2.636,64.7c-11.158-.493-23.461-1.43-34.47-1.759C3.033,70.5,0,72.46,0,76.241H0C.149,80.023,2.975,83.147,6.4,82.983Z" transform="translate(902.9 909.117) rotate(41)"/></g></svg>