<svg xmlns="http://www.w3.org/2000/svg" viewBox="0 0 21.498 23.031"><defs><style>.a{fill:#def7ff;}.b{fill:#9bcad9;}.c{fill:#fff;}.d{fill:#006381;}</style></defs><g transform="translate(-1357 -317.957)"><g transform="translate(1357 319.464)"><path class="a" d="M32.176,2.813a3.01,3.01,0,0,0-.527-.427l-.025-.025c-.025-.025-.05-.025-.075-.05a1.018,1.018,0,0,0-.226-.126H31.3a3.714,3.714,0,0,0-1.758-.427H27.982c-4.058,0-8.406-.05-10.925-.05H15.5a3.663,3.663,0,0,0-1.381.276,3.907,3.907,0,0,0-1.256.829,4.291,4.291,0,0,0-.527.653,4.451,4.451,0,0,0-.377.779,3.036,3.036,0,0,0-.126.452,3.833,3.833,0,0,0-.075.753V19.539a3.687,3.687,0,0,0,3.692,3.692H29.564a3.687,3.687,0,0,0,3.692-3.692V5.45A7.3,7.3,0,0,0,32.176,2.813Z" transform="translate(-11.758 -1.708)"/></g><g transform="translate(1362.935 319.464)"><path class="b" d="M26.97,2.813a2.518,2.518,0,0,0-.389-.427l-.019-.025c-.019-.025-.037-.025-.056-.05a.725.725,0,0,0-.167-.126h-.019a2.186,2.186,0,0,0-1.3-.427H23.878c-2.992,0-6.2-.05-8.056-.05H14.674c-.352,0-.314.477-1.587.477V23.231H25.044a2.435,2.435,0,0,0,1.926-1.08,4.433,4.433,0,0,0,.8-2.612V5.45A8.944,8.944,0,0,0,26.97,2.813Z" transform="translate(-13.086 -1.708)"/></g><g transform="translate(1357 317.957)"><path d="M33.181,4.5a3.724,3.724,0,0,0-1-1.884,3.01,3.01,0,0,0-.527-.427l-.025-.025c-.025-.025-.05-.025-.075-.05a1.018,1.018,0,0,0-.226-.126H31.3a3.714,3.714,0,0,0-1.758-.427H27.982V.477a.477.477,0,0,0-.954,0v1.03H18.012V.477A.494.494,0,0,0,17.534,0a.477.477,0,0,0-.477.477v1.03H15.5a3.663,3.663,0,0,0-1.381.276,3.907,3.907,0,0,0-1.256.829,4.291,4.291,0,0,0-.527.653,4.451,4.451,0,0,0-.377.779,3.036,3.036,0,0,0-.126.452,3.833,3.833,0,0,0-.075.753V19.338A3.687,3.687,0,0,0,15.45,23.03H29.564a3.687,3.687,0,0,0,3.692-3.692V5.249A3.833,3.833,0,0,0,33.181,4.5Zm-20.443.728a3.762,3.762,0,0,1,.05-.553,4.157,4.157,0,0,1,.151-.527,3.458,3.458,0,0,1,.352-.6c.075-.1.151-.176.226-.276a3.914,3.914,0,0,1,.5-.4,2.79,2.79,0,0,1,1.432-.4h1.557v1.03a.477.477,0,0,0,.954,0V2.461H27.1v1.03a.477.477,0,0,0,.954,0V2.461h1.557a2.722,2.722,0,0,1,1.432.4,3.914,3.914,0,0,1,.5.4A2.66,2.66,0,0,1,32.3,4.671a4.107,4.107,0,0,1,.05.553V7.283H12.738ZM32.377,19.313A2.745,2.745,0,0,1,29.614,22.1H15.5a2.744,2.744,0,0,1-2.763-2.763V8.212H32.377v11.1Z" transform="translate(-11.758)"/></g><rect class="c" width="2.771" height="2.078" rx="1.039" transform="translate(1361.529 328.701)"/><rect class="c" width="2.771" height="2.078" rx="1.039" transform="translate(1361.529 331.701)"/><rect class="c" width="2.771" height="2.078" rx="1.039" transform="translate(1361.529 334.701)"/><rect class="c" width="2.771" height="2.078" rx="1.039" transform="translate(1366.529 328.701)"/><rect class="c" width="2.771" height="2.078" rx="1.039" transform="translate(1366.529 331.701)"/><rect class="c" width="2.771" height="2.078" rx="1.039" transform="translate(1366.529 334.701)"/><rect class="c" width="2.771" height="2.078" rx="1.039" transform="translate(1371.529 328.701)"/><rect class="c" width="2.771" height="2.078" rx="1.039" transform="translate(1371.529 331.701)"/><rect class="c" width="2.771" height="2.078" rx="1.039" transform="translate(1371.529 334.701)"/><rect class="d" width="2.079" height="2.078" rx="1.039" transform="translate(1362.222 328.701)"/><rect class="d" width="2.079" height="2.078" rx="1.039" transform="translate(1362.222 331.701)"/><rect class="d" width="2.079" height="2.078" rx="1.039" transform="translate(1362.222 334.701)"/><rect class="d" width="2.079" height="2.078" rx="1.039" transform="translate(1367.222 328.701)"/><rect class="d" width="2.079" height="2.078" rx="1.039" transform="translate(1367.222 331.701)"/><rect class="d" width="2.079" height="2.078" rx="1.039" transform="translate(1367.222 334.701)"/><rect class="d" width="2.079" height="2.078" rx="1.039" transform="translate(1372.222 328.701)"/><rect class="d" width="2.079" height="2.078" rx="1.039" transform="translate(1372.222 331.701)"/><rect class="d" width="2.079" height="2.078" rx="1.039" transform="translate(1372.222 334.701)"/></g></svg>