<svg xmlns="http://www.w3.org/2000/svg" viewBox="0 0 38.33 38.33"><defs><style>.a{fill:#fbbe44;}.b{fill:#006381;}.c{fill:#054f65;}.d{fill:#fddab3;}.e{fill:#2e4369;}.f{fill:none;stroke:#000;stroke-linecap:round;stroke-linejoin:round;stroke-width:0.5px;}</style></defs><g transform="translate(-474 -442.695)"><path class="a" d="M13.106,0c7.238,0,13.106,10.588,13.106,17.826S20.344,28,13.106,28,0,25.064,0,17.826,5.868,0,13.106,0Z" transform="translate(493.796 442.695) rotate(45)"/><g transform="translate(471.734 441.344)"><path class="b" d="M286.67,18.134l.18-.18a1.668,1.668,0,0,0-.18-2.466,1.646,1.646,0,0,0-2.446-.18l-.18.18" transform="translate(-260.395 0)"/><path class="b" d="M250.3,38.9l1.163-1.143-2.646-2.646-1.143,1.163" transform="translate(-225.19 -19.626)"/><path class="b" d="M42.776,80.743l6.615-6.635-2.626-2.626L40.13,78.1" transform="translate(-24.279 -54.83)"/><path class="c" d="M46.765,71.481,40.13,78.1l.882.882,6.635-6.615-.882-.882Z" transform="translate(-24.279 -54.83)"/><path class="d" d="M26.387,281.047,23.741,278.4l-.541,2.285.9.9Z" transform="translate(-7.891 -255.134)"/><path class="e" d="M16.211,350.784l-.9-.9-.261,1.163Z" transform="translate(0 -324.33)"/><path class="f" d="M15.049,26.714l3.448-.8-2.646-2.646Zm11.226-8.58.18-.18a1.668,1.668,0,0,0-.18-2.466,1.646,1.646,0,0,0-2.446-.18l-.18.18m1.463,3.789,1.163-1.143-2.646-2.646-1.143,1.163" transform="translate(0 0)"/><path class="f" d="M42.776,80.743l6.615-6.635-2.626-2.626L40.13,78.1" transform="translate(-24.279 -54.83)"/></g></g></svg>