<svg xmlns="http://www.w3.org/2000/svg" viewBox="0 0 33.461 32.631"><defs><style>.a{fill:#ec603e;}.b{fill:#006381;}.c{fill:#fbbe44;}.d{opacity:0.11;}</style></defs><g transform="translate(-976.438 -630.971)"><g transform="translate(-167.301 889.844) rotate(-45)"><path class="a" d="M6.43,0c3.551,0,6.43,5.2,6.43,8.747s-2.879,4.99-6.43,4.99S0,12.3,0,8.747,2.879,0,6.43,0Z" transform="translate(991.796 625.695) rotate(45)"/><path class="b" d="M6.43,0c3.551,0,6.43,5.2,6.43,8.747s-2.879,4.99-6.43,4.99S0,12.3,0,8.747,2.879,0,6.43,0Z" transform="translate(1001.796 642) rotate(45)"/><path class="c" d="M6.43,0c3.551,0,6.43,5.2,6.43,8.747s-2.879,4.99-6.43,4.99S0,12.3,0,8.747,2.879,0,6.43,0Z" transform="translate(982.796 642) rotate(45)"/></g><g class="d" transform="translate(-165.301 890.844) rotate(-45)"><path class="a" d="M6.43,0c3.551,0,6.43,5.2,6.43,8.747s-2.879,4.99-6.43,4.99S0,12.3,0,8.747,2.879,0,6.43,0Z" transform="translate(991.796 625.695) rotate(45)"/><path class="b" d="M6.43,0c3.551,0,6.43,5.2,6.43,8.747s-2.879,4.99-6.43,4.99S0,12.3,0,8.747,2.879,0,6.43,0Z" transform="translate(1001.796 642) rotate(45)"/><path class="c" d="M6.43,0c3.551,0,6.43,5.2,6.43,8.747s-2.879,4.99-6.43,4.99S0,12.3,0,8.747,2.879,0,6.43,0Z" transform="translate(982.796 642) rotate(45)"/></g></g></svg>