<svg xmlns="http://www.w3.org/2000/svg" viewBox="0 0 38.33 38.33"><defs><style>.a{fill:#006381;}.b{fill:#ddf7ff;}.c{fill:#ffdec7;}.d{fill:#d8902a;}.e{fill:#fdfcfb;}.f{fill:none;stroke:#000;stroke-linecap:round;stroke-linejoin:round;stroke-width:1.2px;}</style></defs><g transform="translate(-1528 -40.695)"><path class="a" d="M13.106,0c7.238,0,13.106,10.588,13.106,17.826S20.344,28,13.106,28,0,25.064,0,17.826,5.868,0,13.106,0Z" transform="translate(1547.796 40.695) rotate(45)"/><g transform="translate(1538.309 47)"><path class="b" d="M6.2,49.138c-4.41.67-4.2,3.686-4.2,3.686H12.5l-3.57-4.457a7.476,7.476,0,0,1-2.73.771Zm12.6,0a6.611,6.611,0,0,1-2.9-.938l-3.4,4.624H23S23,49.808,18.8,49.138Z" transform="translate(0 -29.824)"/><path class="c" d="M25.541,13.523v-.7S25.36,10,22.655,10s-3.246,2.818-7.574,2.818v.7c-.721,0-1.082,1.057-1.082,1.761,0,1.409.5,2.466,1.587,2.466a5.376,5.376,0,0,0,2.02,3.135v1.057a1.508,1.508,0,0,1-.793,1.656l3.679,4.721,3.5-4.862a1.468,1.468,0,0,1-.613-1.48V20.639a6.309,6.309,0,0,0,1.731-2.924c1.082,0,1.515-1.022,1.515-2.431C26.623,14.545,26.623,13.523,25.541,13.523Z" transform="translate(-7.982 -5.319)"/><path class="d" d="M26.718,7.362v-.67A4.373,4.373,0,0,0,22.027,2C19.815,2,17,3.173,17,6.658v.7c4.021,0,4.356-2.681,7.037-2.681A2.626,2.626,0,0,1,26.718,7.362Z" transform="translate(-9.544 0)"/><path class="e" d="M9.137,11.931c.35,1.47,1.75,2.45,2.66,3.115V16.1a1.512,1.512,0,0,1-.77,1.645,6.649,6.649,0,0,1-2.1.7,1.452,1.452,0,0,0,.77-1.61v-1.05h.035a5.356,5.356,0,0,1-1.995-3.15c-1.05,0-1.54-1.05-1.54-2.45,0-.7.35-1.75,1.05-1.75V7a4.613,4.613,0,0,1,4.34-4.8,4.464,4.464,0,0,0-2.24,4.1V7.731S8.612,10.881,9.137,11.931Zm5.46,10.5H4.8a2.836,2.836,0,0,1,1.4-3.15c-4.41.7-4.2,3.851-4.2,3.851H23a2.976,2.976,0,0,0-.1-.7Z" transform="translate(0 -0.133)"/><path class="f" d="M28.469,42.748a1.414,1.414,0,0,1-.57-1.407V40m-5.362.335V41.34a1.447,1.447,0,0,1-.737,1.575" transform="translate(-12.727 -24.604)"/><path class="f" d="M14.457,16a5.88,5.88,0,0,0,2.52-3.535c1.05,0,1.47-1.015,1.47-2.415,0-.7,0-1.715-1.05-1.715V7.6m-10.15,0v.7c-.7,0-1.05,1.05-1.05,1.75,0,1.4.49,2.45,1.54,2.45a5.32,5.32,0,0,0,2.52,3.5M17.4,7.6V6.9A4.568,4.568,0,0,0,12.5,2c-2.31,0-5.25,1.225-5.25,4.865V7.6c4.2,0,4.55-2.8,7.35-2.8A2.742,2.742,0,0,1,17.4,7.6ZM6.2,19.15C1.787,19.85,2,23,2,23H12.5l-3.57-4.655a7.243,7.243,0,0,1-2.73.805Zm12.6,0a6.427,6.427,0,0,1-2.9-.98L12.5,23H23S23,19.85,18.8,19.15Z" transform="translate(0 0)"/><path d="M369.553,166.484a.568.568,0,1,0-.568-.568A.569.569,0,0,0,369.553,166.484Zm0,0" transform="translate(-355.021 -156.376)"/><path d="M286.994,165.348a.568.568,0,1,0,.568.568A.569.569,0,0,0,286.994,165.348Zm0,0" transform="translate(-276.797 -156.376)"/></g></g></svg>