<svg xmlns="http://www.w3.org/2000/svg" viewBox="0 0 282.991 274"><defs><style>.a,.b{fill:#006381;}.a{opacity:0.2;}.c{fill:#fbbe44;}.d{fill:#ec603e;}.e{fill:#e8f2f6;}.f{fill:#000064;opacity:0.15;}.g{fill:none;stroke:#000;stroke-linecap:round;stroke-linejoin:round;stroke-width:4px;}</style></defs><g transform="translate(-780.759 -821.918)"><g transform="translate(780.759 821.918)"><g transform="translate(0 0)"><path class="a" d="M92.455,0c51.061,0,92.455,74.7,92.455,125.757S143.516,197.5,92.455,197.5,0,176.819,0,125.758,41.393,0,92.455,0Z" transform="translate(152.24 3.596) rotate(45)"/><path class="b" d="M92.455,0c51.061,0,92.455,74.7,92.455,125.757S143.516,197.5,92.455,197.5,0,176.819,0,125.758,41.393,0,92.455,0Z" transform="translate(139.653 0) rotate(45)"/></g></g><g transform="translate(870.871 914.359)"><path class="c" d="M38,38h69.344V84.23H38Z" transform="translate(66.017 42.902)"/><path class="d" d="M140.689,16.934A6.934,6.934,0,0,0,133.754,10H8.934A6.934,6.934,0,0,0,2,16.934v16.18H140.689Z" transform="translate(-2 -10)"/><path class="e" d="M2,18V80.41a6.934,6.934,0,0,0,6.934,6.934h97.082V75.787h34.672V18Z" transform="translate(-2 5.115)"/><path class="f" d="M32,68.23H49.336V79.787H32ZM66.672,22A17.336,17.336,0,0,0,49.336,39.336V68.23H84.008V39.336A17.336,17.336,0,0,0,66.672,22Z" transform="translate(54.681 12.672)"/><path class="g" d="M106.017,102.459H8.934A6.934,6.934,0,0,1,2,95.525V16.934A6.934,6.934,0,0,1,8.934,10h124.82a6.934,6.934,0,0,1,6.934,6.934V44.672M2,33.115H140.689M25.4,56.23H71.344M25.115,79.344H45.34" transform="translate(-2 -10)"/><path class="g" d="M38,68.23h69.344v46.23H38Zm17.336,0V39.336a17.336,17.336,0,0,1,34.672,0V68.23M72.672,85.566V97.123" transform="translate(66.017 12.672)"/></g></g></svg>