<svg xmlns="http://www.w3.org/2000/svg" viewBox="0 0 19.008 11.684"><defs><style>.a{fill:#fff;}.b,.e,.f{fill:none;stroke-linecap:round;stroke-linejoin:round;}.c{fill:#006381;}.d{fill:#fbbe44;}.e,.f{stroke:#000;}.e{stroke-width:0.5px;}.f{stroke-width:0.25px;}.g{fill:#000028;opacity:0.15;}.h,.i{stroke:none;}</style></defs><g transform="translate(-78.188 -455.893)"><path class="a" d="M87.692,456.393c-5.25,0-9,5.341-9,5.341s3.754,5.341,9,5.341,9-5.341,9-5.341S92.942,456.393,87.692,456.393Z" transform="translate(0 0)"/><g class="b" transform="translate(0 0)"><path class="h" d="M87.692,456.393c-5.25,0-9,5.341-9,5.341s3.754,5.341,9,5.341,9-5.341,9-5.341S92.942,456.393,87.692,456.393Z"/><path class="i" d="M 87.69244384765625 456.3934326171875 C 82.44270324707031 456.3934326171875 78.68852233886719 461.7347412109375 78.68852233886719 461.7347412109375 C 78.68852233886719 461.7347412109375 82.44270324707031 467.0760498046875 87.69244384765625 467.0760498046875 C 92.94218444824219 467.0760498046875 96.69636535644531 461.7347412109375 96.69636535644531 461.7347412109375 C 96.69636535644531 461.7347412109375 92.94218444824219 456.3934326171875 87.69244384765625 456.3934326171875 M 87.69244384765625 455.8934326171875 C 89.95781707763672 455.8934326171875 92.30631256103516 456.8572692871094 94.48405456542969 458.6807250976562 C 96.11044311523438 460.0425415039062 97.06556701660156 461.3905029296875 97.10543060302734 461.4472351074219 C 97.22667694091797 461.6197204589844 97.22667694091797 461.8497619628906 97.10543060302734 462.0222473144531 C 97.06556701660156 462.0789794921875 96.11044311523438 463.4269409179688 94.48405456542969 464.7887573242188 C 92.30631256103516 466.6122131347656 89.95781707763672 467.5760498046875 87.69244384765625 467.5760498046875 C 85.42707061767578 467.5760498046875 83.07857513427734 466.6122131347656 80.90083312988281 464.7887573242188 C 79.27444458007812 463.4269409179688 78.31932067871094 462.0789794921875 78.27945709228516 462.0222473144531 C 78.15821075439453 461.8497619628906 78.15821075439453 461.6197204589844 78.27945709228516 461.4472351074219 C 78.31932067871094 461.3905029296875 79.27444458007812 460.0425415039062 80.90083312988281 458.6807250976562 C 83.07857513427734 456.8572692871094 85.42707061767578 455.8934326171875 87.69244384765625 455.8934326171875 Z"/></g><path class="c" d="M87.692,456.393c-5.25,0-5.009,5.1-5.009,5.1s-.241,5.445,5.009,5.445,9-5.273,9-5.273S92.942,456.393,87.692,456.393Z" transform="translate(0 0.137)"/><circle class="d" cx="3.052" cy="3.052" r="3.052" transform="translate(84.64 458.53)"/><circle class="c" cx="1.526" cy="1.526" r="1.526" transform="translate(86.167 460.056)"/><circle class="a" cx="0.61" cy="0.61" r="0.61" transform="translate(87.387 460.666)"/><circle class="e" cx="3.052" cy="3.052" r="3.052" transform="translate(84.64 458.53)"/><path class="f" d="M880.342,928.525a1.221,1.221,0,0,0,1.068,1.831" transform="translate(-793.718 -467.553)"/><path class="g" d="M87.082,457.309c4.883,0,8.455,4.609,8.943,5.28.427-.488.671-.824.671-.824s-3.754-5.372-9-5.372-9,5.341-9,5.341l.061.092C80.062,460.3,83.145,457.309,87.082,457.309Z"/></g></svg>