<svg xmlns="http://www.w3.org/2000/svg" viewBox="0 0 21.563 21.564"><defs><style>.a{fill:#f8937b;}.b{fill:#ec603e;}.c,.d{fill:none;}.c{stroke:#e8d7cc;stroke-linecap:round;stroke-width:2px;}.d{stroke:#000;}</style></defs><g transform="translate(-344.5 -895.457)"><path class="a" d="M10.282,0A10.282,10.282,0,1,0,20.564,10.282,10.312,10.312,0,0,0,10.282,0Z" transform="translate(345 895.957)"/><path class="b" d="M7.919,0C3.564,0,0,4.33,0,9.621s3.564,9.621,7.919,9.621,7.919-4.33,7.919-9.621S12.275,0,7.919,0Z" transform="translate(349.999 896.764)"/><path class="c" d="M363.11,905.242l.051,5.735,4.823,3.013" transform="translate(-8.084 -4.145)"/><path class="d" d="M10.282,0A10.282,10.282,0,1,0,20.564,10.282,10.312,10.312,0,0,0,10.282,0Z" transform="translate(345 895.957)"/></g></svg>