<svg xmlns="http://www.w3.org/2000/svg" width="28.078" height="21.574" viewBox="0 0 28.078 21.574">
  <g id="Groupe_576" data-name="Groupe 576" transform="translate(-687.49 -4306.5)">
    <g id="Orion_man" transform="translate(688 4307)">
      <path id="layer3" d="M6.112,49.16C1.791,49.846,2,52.932,2,52.932H12.284l-3.5-4.561a7.1,7.1,0,0,1-2.675.789Zm12.344,0a6.3,6.3,0,0,1-2.846-.96l-3.326,4.732H22.571S22.571,49.846,18.456,49.16Z" transform="translate(-1.995 -32.358)" fill="#ddf7ff"/>
      <path id="layer2" d="M24.973,13.429v-.686S24.8,10,22.23,10s-3.086,2.743-7.2,2.743v.686c-.686,0-1.029,1.029-1.029,1.715,0,1.372.48,2.4,1.509,2.4a5.246,5.246,0,0,0,1.92,3.052v1.029a1.481,1.481,0,0,1-.754,1.612l3.5,4.595L23.5,23.1a1.447,1.447,0,0,1-.583-1.44v-1.3a6.172,6.172,0,0,0,1.646-2.846c1.029,0,1.44-.994,1.44-2.366C26,14.423,26,13.429,24.973,13.429Z" transform="translate(-9.884 -7.257)" fill="#ffdec7"/>
      <path id="layer1" d="M26.944,7.486V6.8a4.475,4.475,0,0,0-4.8-4.8C19.88,2,17,3.2,17,6.766v.72c4.115,0,4.458-2.743,7.2-2.743A2.687,2.687,0,0,1,26.944,7.486Z" transform="translate(-11.855 -2)" fill="#d8902a"/>
      <path id="opacity" d="M8.992,11.733c.343,1.44,1.715,2.4,2.606,3.052v1.029a1.481,1.481,0,0,1-.754,1.612,6.515,6.515,0,0,1-2.057.686,1.422,1.422,0,0,0,.754-1.577V15.5h.034a5.246,5.246,0,0,1-1.955-3.086c-1.029,0-1.509-1.029-1.509-2.4,0-.686.343-1.715,1.029-1.715V6.9a4.519,4.519,0,0,1,4.252-4.7A4.372,4.372,0,0,0,9.2,6.212V7.618S8.478,10.7,8.992,11.733ZM14.341,22.02H4.74a2.778,2.778,0,0,1,1.372-3.086C1.791,19.619,2,22.706,2,22.706H22.571a2.915,2.915,0,0,0-.1-.686Z" transform="translate(-1.995 -2.131)" fill="#006381"/>
      <path id="stroke" d="M28.624,42.812a1.447,1.447,0,0,1-.583-1.44V40m-5.486.343v1.029a1.481,1.481,0,0,1-.754,1.612" transform="translate(-15.009 -26.97)" fill="none" stroke="#000" stroke-linecap="round" stroke-linejoin="round" stroke-width="1"/>
      <path id="stroke-2" data-name="stroke" d="M14.2,15.716a5.761,5.761,0,0,0,2.469-3.463c1.029,0,1.44-.994,1.44-2.366,0-.686,0-1.68-1.029-1.68v-.72m-9.944,0v.686c-.686,0-1.029,1.029-1.029,1.715,0,1.372.48,2.4,1.509,2.4a5.212,5.212,0,0,0,2.469,3.429m7-8.23V6.8a4.475,4.475,0,0,0-4.8-4.8C10.021,2,7.141,3.2,7.141,6.766v.72c4.115,0,4.458-2.743,7.2-2.743A2.687,2.687,0,0,1,17.085,7.486ZM6.112,18.8C1.791,19.488,2,22.574,2,22.574H12.284l-3.5-4.561a7.1,7.1,0,0,1-2.675.789Zm12.344,0a6.3,6.3,0,0,1-2.846-.96l-3.326,4.732H22.571S22.571,19.488,18.456,18.8Z" transform="translate(-1.995 -2)" fill="none" stroke="#000" stroke-linecap="round" stroke-linejoin="round" stroke-width="1"/>
      <path id="Tracé_269" data-name="Tracé 269" d="M369.566,166.511a.581.581,0,1,0-.582-.581A.582.582,0,0,0,369.566,166.511Zm0,0" transform="translate(-357.289 -158.535)"/>
      <path id="Tracé_270" data-name="Tracé 270" d="M287.007,165.348a.581.581,0,1,0,.581.582A.582.582,0,0,0,287.007,165.348Zm0,0" transform="translate(-278.966 -158.535)"/>
    </g>
    <g id="Orion_man-2" data-name="Orion_man" transform="translate(705.251 4308.603)">
      <path id="layer3-2" data-name="layer3" d="M4.01,48.67C1.9,49.005,2,50.516,2,50.516H7.03L5.319,48.284A3.472,3.472,0,0,1,4.01,48.67Zm6.041,0a3.081,3.081,0,0,1-1.393-.47L7.03,50.516h5.034S12.064,49.005,10.05,48.67Z" transform="translate(-1.995 -40.448)" fill="#d6d1d1"/>
      <path id="layer2-2" data-name="layer2" d="M19.369,11.678v-.336S19.286,10,18.027,10s-1.51,1.342-3.524,1.342v.336c-.336,0-.5.5-.5.839,0,.671.235,1.175.738,1.175a2.567,2.567,0,0,0,.94,1.493v.5a.725.725,0,0,1-.369.789l1.711,2.248,1.628-2.316a.708.708,0,0,1-.285-.7v-.638a3.02,3.02,0,0,0,.805-1.393c.5,0,.7-.487.7-1.158C19.873,12.165,19.873,11.678,19.369,11.678Z" transform="translate(-11.986 -8.658)" fill="#a86231"/>
      <path id="layer1-2" data-name="layer1" d="M21.866,4.685V4.349A2.19,2.19,0,0,0,19.517,2,2.3,2.3,0,0,0,17,4.332v.352c2.014,0,2.181-1.342,3.524-1.342A1.315,1.315,0,0,1,21.866,4.685Z" transform="translate(-14.482 -2)" fill="#ec603e"/>
      <path id="opacity-2" data-name="opacity" d="M5.419,6.865A2.906,2.906,0,0,0,6.694,8.358v.5a.725.725,0,0,1-.369.789,3.188,3.188,0,0,1-1.007.336.7.7,0,0,0,.369-.772v-.5H5.7A2.567,2.567,0,0,1,4.748,7.2c-.5,0-.738-.5-.738-1.175,0-.336.168-.839.5-.839V4.5A2.212,2.212,0,0,1,6.594,2.2,2.14,2.14,0,0,0,5.52,4.163v.688A4.792,4.792,0,0,0,5.419,6.865ZM8.037,11.9h-4.7a1.359,1.359,0,0,1,.671-1.51C1.9,10.724,2,12.234,2,12.234H12.064a1.426,1.426,0,0,0-.05-.336Z" transform="translate(-1.995 -2.166)" fill="#fff"/>
      <path id="stroke-3" data-name="stroke" d="M25.139,41.376a.708.708,0,0,1-.285-.7V40m-2.685.168v.5a.725.725,0,0,1-.369.789" transform="translate(-18.477 -33.624)" fill="none" stroke="#000" stroke-linecap="round" stroke-linejoin="round" stroke-width="0.5"/>
      <path id="stroke-4" data-name="stroke" d="M7.97,8.712A2.819,2.819,0,0,0,9.178,7.017c.5,0,.7-.487.7-1.158,0-.336,0-.822-.5-.822V4.685m-4.866,0V5.02c-.336,0-.5.5-.5.839,0,.671.235,1.175.738,1.175A2.55,2.55,0,0,0,5.956,8.712M9.379,4.685V4.349A2.19,2.19,0,0,0,7.03,2,2.3,2.3,0,0,0,4.513,4.332v.352c2.014,0,2.181-1.342,3.524-1.342A1.315,1.315,0,0,1,9.379,4.685ZM4.01,10.222C1.9,10.557,2,12.068,2,12.068H7.03L5.319,9.836A3.472,3.472,0,0,1,4.01,10.222Zm6.041,0a3.081,3.081,0,0,1-1.393-.47L7.03,12.068h5.034S12.064,10.557,10.05,10.222Z" transform="translate(-1.995 -2)" fill="none" stroke="#000" stroke-linecap="round" stroke-linejoin="round" stroke-width="0.5"/>
      <path id="Tracé_269-2" data-name="Tracé 269" d="M369.269,165.917a.285.285,0,1,0-.285-.284A.285.285,0,0,0,369.269,165.917Zm0,0" transform="translate(-363.262 -162.014)"/>
      <path id="Tracé_270-2" data-name="Tracé 270" d="M286.71,165.348a.285.285,0,1,0,.284.285A.285.285,0,0,0,286.71,165.348Zm0,0" transform="translate(-282.776 -162.014)"/>
    </g>
  </g>
</svg>
