<svg xmlns="http://www.w3.org/2000/svg" xmlns:xlink="http://www.w3.org/1999/xlink" viewBox="0 0 38.33 38.33"><defs><style>.a{fill:#fff;}.b{fill:#ec603e;}.c{clip-path:url(#a);}.d{clip-path:url(#b);}</style><clipPath id="a"><path class="a" d="M11.348-17.71,10.058-19,5.674-14.616,1.29-19,0-17.71l4.384,4.384L0-8.942l1.29,1.29,4.384-4.384,4.384,4.384,1.29-1.29L6.964-13.326Z"/></clipPath><clipPath id="b"><path class="a" d="M-260,426.445H351.592V-43H-260Z" transform="translate(260 43)"/></clipPath></defs><g transform="translate(-1402 -2150)"><path class="b" d="M13.106,0c7.238,0,13.106,10.588,13.106,17.826S20.344,28,13.106,28,0,25.064,0,17.826,5.868,0,13.106,0Z" transform="translate(1421.796 2150) rotate(45)"/><g class="c" transform="translate(1414.826 2183.131)"><g class="d" transform="translate(-155.287 -33.334)"><path class="a" d="M-5-24H12.32V-6.68H-5Z" transform="translate(157.301 35.348)"/></g></g></g></svg>