<svg xmlns="http://www.w3.org/2000/svg" viewBox="0 0 44.197 46.988"><defs><style>.a{fill:#005373;}.b{fill:#006381;}.c{fill:#000028;opacity:0.15;}.d{fill:none;stroke:#000;stroke-linecap:round;stroke-linejoin:round;stroke-width:2px;}.e,.f{stroke:none;}</style></defs><g transform="translate(3770 7114.4)"><g transform="translate(-3768 -7098.308)"><g class="a" transform="translate(0 -40.217)"><path class="e" d="M 31.57345008850098 70.11086273193359 L 31.57340049743652 70.11086273193359 L 31.57333946228027 70.11086273193359 L 8.165559768676758 70.10832214355469 C 3.11169958114624 70.10832214355469 -1.000000357627869 65.99662017822266 -1.000000357627869 60.94265747070312 C -1.000000357627869 59.31303787231445 -0.5612403750419617 57.71417999267578 0.2688396275043488 56.31889724731445 C 0.9358551502227783 55.19773101806641 1.842833280563354 54.22488403320312 2.917769908905029 53.47154235839844 C 2.817771911621094 53.0199089050293 2.768669605255127 52.58330535888672 2.768669605255127 52.15134811401367 C 2.768669605255127 48.48281860351562 5.75322961807251 45.49826049804688 9.421750068664551 45.49826049804688 C 9.803242683410645 45.49826049804688 10.19081974029541 45.53754043579102 10.59249496459961 45.6174430847168 C 11.56646347045898 43.83975982666016 12.95901298522949 42.32847595214844 14.65752983093262 41.21406936645508 C 16.64879035949707 39.90756988525391 18.96471977233887 39.21699905395508 21.35495948791504 39.21699905395508 C 24.43169021606445 39.21699905395508 27.37014007568359 40.36413955688477 29.62899017333984 42.44712066650391 C 31.6865119934082 44.34442520141602 33.02931594848633 46.87210845947266 33.4577522277832 49.62770462036133 C 37.98417282104492 50.82748794555664 41.19747924804688 54.9461784362793 41.19747924804688 59.68642807006836 C 41.19747924804688 62.5034294128418 40.27054977416992 65.10507202148438 38.58742904663086 67.01210021972656 C 36.82379913330078 69.01036834716797 34.33285140991211 70.11086273193359 31.57345008850098 70.11086273193359 Z"/><path class="f" d="M 21.35495948791504 40.21699523925781 C 16.80858039855957 40.21699523925781 12.9155387878418 42.91538238525391 11.12149047851562 46.78718948364258 C 10.58128929138184 46.61504745483398 10.0184497833252 46.49826049804688 9.421749114990234 46.49826049804688 C 6.299949645996094 46.49826049804688 3.768669128417969 49.03080749511719 3.768669128417969 52.15134811401367 C 3.768669128417969 52.77193832397461 3.893039703369141 53.35866928100586 4.07769775390625 53.91516876220703 C 1.649440765380859 55.33103942871094 0 57.9301872253418 0 60.94265747070312 C 0 65.45263671875 3.655689239501953 69.10832214355469 8.165660858154297 69.10832214355469 L 31.57345008850098 69.11085510253906 C 36.77935028076172 69.11085510253906 40.19747924804688 64.89106750488281 40.19747924804688 59.68642807006836 C 40.19747924804688 55.09354019165039 36.90605926513672 51.27835083007812 32.55318832397461 50.44667816162109 C 32.00300979614258 44.7144775390625 27.23051071166992 40.21699523925781 21.35495948791504 40.21699523925781 M 21.35495948791504 38.21699523925781 C 24.68362998962402 38.21699523925781 27.86282920837402 39.45819854736328 30.30690002441406 41.71196746826172 C 32.37339782714844 43.61756134033203 33.77294158935547 46.11114120483398 34.33245086669922 48.84387588500977 C 38.96554183959961 50.35715866088867 42.19747924804688 54.70917892456055 42.19747924804688 59.68642807006836 C 42.19747924804688 62.74729919433594 41.18167114257812 65.58393859863281 39.33718109130859 67.67382049560547 C 37.38101959228516 69.89022827148438 34.62379837036133 71.11085510253906 31.57345008850098 71.11085510253906 L 8.165439605712891 71.10832214355469 C 2.560298919677734 71.10832214355469 -2 66.54801940917969 -2 60.94265747070312 C -2 59.13315963745117 -1.512630462646484 57.35749053955078 -0.5905685424804688 55.8076171875 C 0.0391082763671875 54.74920272827148 0.8614158630371094 53.81023025512695 1.826900482177734 53.03955459594727 C 1.787937164306641 52.74108123779297 1.768669128417969 52.44586181640625 1.768669128417969 52.15134811401367 C 1.768669128417969 47.93141937255859 5.201828002929688 44.49826049804688 9.421749114990234 44.49826049804688 C 9.636213302612305 44.49826049804688 9.851627349853516 44.50870513916016 10.06908798217773 44.52977752685547 C 11.09419822692871 42.87093353271484 12.4697322845459 41.45346832275391 14.10894966125488 40.37796020507812 C 16.26363945007324 38.96424865722656 18.7692699432373 38.21699523925781 21.35495948791504 38.21699523925781 Z"/></g></g><g transform="translate(-3756.927 -7098.308)"><path class="b" d="M27.342,50.447A11.272,11.272,0,0,0,5.874,46.787V69.111H25.562v0a9.413,9.413,0,0,0,1.779-18.662Z" transform="translate(-5.874 -40.217)"/></g><path class="c" d="M11.433,0h0A21.614,21.614,0,0,0,0,3.2l8.338,8.977Z" transform="translate(-3744.004 -7101.217) rotate(45)"/><path class="d" d="M193.421,52.117V26.174m-7.512,8.875,7.51-8.875,7.51,8.875" transform="translate(-3940.253 -7139.574)"/></g></svg>