<svg xmlns="http://www.w3.org/2000/svg" viewBox="0 0 38.33 38.33"><defs><style>.a,.k{fill:#ec603e;}.b{fill:#98d400;}.b,.c,.e,.h,.i,.k{stroke:#000;}.c{fill:#fd4e26;}.d{fill:#fd3018;}.e{fill:#f8937b;}.f{fill:#ffdec7;}.g{fill:#e8d7cc;}.h{fill:#fe9923;}.i{fill:#b22f65;}.j{fill:#762957;}</style></defs><g transform="translate(-15284 -6085.695)"><g transform="translate(13655 5769)"><path class="a" d="M13.106,0c7.238,0,13.106,10.588,13.106,17.826S20.344,28,13.106,28,0,25.064,0,17.826,5.868,0,13.106,0Z" transform="translate(1648.796 316.695) rotate(45)"/></g><g transform="translate(15298.963 6093.618)"><path class="b" d="M6.155,33.306,5.116,30.727a1.94,1.94,0,0,0-2.991-.806L.749,30.993A1.94,1.94,0,0,0,.8,34.09l2.245,1.641a.647.647,0,0,0,.9-.141L5.8,34.148A.648.648,0,0,0,6.155,33.306Z" transform="translate(0 -28.239)"/><path class="c" d="M69.677,113.211l-2.173-3.66a2.955,2.955,0,0,0-4.332-.8,2.916,2.916,0,0,0-1.112,2.147,2.839,2.839,0,0,0,.414,1.681l.854.97,1.422,1.41a.607.607,0,0,0,.453.194h3.918a.64.64,0,0,0,.647-.647v-.957A.627.627,0,0,0,69.677,113.211Z" transform="translate(-59.379 -103.468)"/><path class="d" d="M75.024,167.877l-2.185,1.651-.345-.4a1.455,1.455,0,0,1-.4-.594l2.138-1.683a.645.645,0,1,1,.789,1.022Z" transform="translate(-68.751 -160.126)"/><path class="e" d="M49.759,301h-18.1a.6.6,0,0,0-.491.233.589.589,0,0,0-.142.517l1.112,6.716a1.933,1.933,0,0,0,1.914,1.629h13.32a1.933,1.933,0,0,0,1.914-1.629l1.112-6.716C50.431,301.569,49.953,301,49.759,301Z" transform="translate(-29.671 -288.024)"/><path class="a" d="M264.489,301.657l-.975,5.886a1.694,1.694,0,0,1-1.677,1.428H256V301h7.934a.526.526,0,0,1,.431.2A.516.516,0,0,1,264.489,301.657Z" transform="translate(-244.318 -287.418)"/><g transform="translate(5.216 15.562)"><path class="f" d="M121.647,364.923a.646.646,0,0,1-.647-.647v-2.63a.647.647,0,1,1,1.293,0v2.63A.646.646,0,0,1,121.647,364.923Z" transform="translate(-121 -361)"/><path class="f" d="M181.647,364.923a.646.646,0,0,1-.647-.647v-2.63a.647.647,0,1,1,1.293,0v2.63A.646.646,0,0,1,181.647,364.923Z" transform="translate(-178.414 -361)"/><path class="f" d="M242.293,361.647v2.63a.647.647,0,0,1-1.293,0v-2.63a.647.647,0,1,1,1.293,0Z" transform="translate(-235.827 -361)"/></g><g transform="translate(11.035 15.562)"><path class="g" d="M301.647,364.923a.646.646,0,0,1-.647-.647v-2.63a.647.647,0,1,1,1.293,0v2.63A.646.646,0,0,1,301.647,364.923Z" transform="translate(-299.06 -361)"/><path class="g" d="M361.647,364.923a.646.646,0,0,1-.647-.647v-2.63a.647.647,0,1,1,1.293,0v2.63A.646.646,0,0,1,361.647,364.923Z" transform="translate(-356.474 -361)"/><path class="g" d="M256.647,361.647v2.63a.64.64,0,0,1-.647.647V361A.64.64,0,0,1,256.647,361.647Z" transform="translate(-256 -361)"/></g><path class="e" d="M212.94,0A1.937,1.937,0,0,0,211,1.94v9.1a.64.64,0,0,0,.647.647h2.586a.64.64,0,0,0,.647-.647V1.94A1.937,1.937,0,0,0,212.94,0Z" transform="translate(-201.904 0)"/><path class="h" d="M376.7,70.053h-1.06a.647.647,0,0,1-.609-.863,3.243,3.243,0,0,0-1.575-3.956.647.647,0,0,1-.292-.843A5.818,5.818,0,0,1,378.442,61a.646.646,0,0,1,.647.647v3.88a5.811,5.811,0,0,1-1.966,4.365A.647.647,0,0,1,376.7,70.053Z" transform="translate(-357.018 -58.37)"/><path class="i" d="M277.893,127.834h-6.246a.646.646,0,0,1-.647-.647V123a.649.649,0,0,1,.218-.484,4.632,4.632,0,0,1,5.082-.647,4.536,4.536,0,0,1,2.2,5.538A.646.646,0,0,1,277.893,127.834Z" transform="translate(-259.318 -116.151)"/><ellipse class="j" cx="0.647" cy="0.647" rx="0.647" ry="0.647" transform="translate(14.268 7.803)"/><path class="a" d="M257.139.737V8.793c0,.3.159.552-.126.552H255.73V-.725A1.355,1.355,0,0,1,257.139.737Z" transform="translate(-244.714 1.265)"/><path class="e" d="M21.044,241H2.94a1.94,1.94,0,0,0,0,3.88h18.1a1.94,1.94,0,0,0,0-3.88Z" transform="translate(-0.957 -230.611)"/><path class="k" d="M266.992,242.94a1.937,1.937,0,0,1-1.94,1.94H256V241h9.052A1.937,1.937,0,0,1,266.992,242.94Z" transform="translate(-244.965 -230.611)"/></g></g></svg>