<svg xmlns="http://www.w3.org/2000/svg" viewBox="0 0 12.534 15.977"><defs><style>.a{fill:#fbbe44;}.b{fill:none;stroke:#000;stroke-width:0.5px;}</style></defs><g transform="translate(-562.75 -738.922)"><g transform="translate(566.098 739.419)"><path class="a" d="M12.5,11.854a4.637,4.637,0,0,1-2.177.589c-.956,0-3.229-.339-3.839-1.157A3.857,3.857,0,0,1,5.856,9.7h6.171V8.091H5.59V7.728c0-.25,0-.474.018-.7h6.42V5.416H5.9a3.737,3.737,0,0,1,.612-1.473C7.1,3.1,9.315,2.718,10.214,2.718a5.009,5.009,0,0,1,2.139.544L12.886.68A6.35,6.35,0,0,0,10.02,0,5.337,5.337,0,0,0,5.608,2.335,7.425,7.425,0,0,0,4.29,5.417L4.08,7.025c0,.229-.02.454-.02.681.051.87,0,.274.192,1.995a6.678,6.678,0,0,0,1.069,2.946,5.427,5.427,0,0,0,4.66,2.584,5.667,5.667,0,0,0,2.981-.859Z" transform="translate(-4.06 0)"/></g><g transform="translate(563 739.173)"><path class="b" d="M13.131,12.045a6.4,6.4,0,0,1-2.625.6,3.85,3.85,0,0,1-2.972-1.176,3.6,3.6,0,0,1-.761-1.612h5.782V8.221h-6.1V7.853c0-.254,0-.482.022-.714h6.083V5.5H6.821a3.509,3.509,0,0,1,.738-1.5A3.559,3.559,0,0,1,10.37,2.762a6.942,6.942,0,0,1,2.578.553L13.591.691A8.827,8.827,0,0,0,10.136,0,6.838,6.838,0,0,0,4.818,2.373,7,7,0,0,0,3.228,5.5H1.684V7.138H2.975c0,.232-.024.461-.024.692v.391H1.684V9.857h1.5a6.46,6.46,0,0,0,1.289,2.993,6.9,6.9,0,0,0,5.618,2.626,7.78,7.78,0,0,0,3.594-.873Z" transform="translate(-1.684)"/></g></g></svg>