<svg xmlns="http://www.w3.org/2000/svg" viewBox="0 0 23.643 25.342"><defs><style>.a{fill:#005373;}.b{fill:#006381;}.c{fill:#000028;opacity:0.15;}.d{fill:none;stroke:#000;stroke-linecap:round;stroke-linejoin:round;}.e,.f{stroke:none;}</style></defs><g transform="translate(3769 7106.275)"><g transform="translate(-3768 -7105.275)"><g class="a" transform="translate(0 -40.217)"><path class="e" d="M 16.9991397857666 56.27345275878906 L 16.99909019470215 56.27345275878906 L 4.396339416503906 56.2720832824707 C 1.69650936126709 56.2720832824707 -0.5000006556510925 54.0755729675293 -0.5000006556510925 51.37569427490234 C -0.5000006556510925 49.75760650634766 0.2831564247608185 48.28666687011719 1.613925099372864 47.36940002441406 C 1.55698549747467 47.12024688720703 1.529049396514893 46.87998199462891 1.529049396514893 46.64245223999023 C 1.529049396514893 44.68849563598633 3.118709325790405 43.09883499145508 5.072669506072998 43.09883499145508 C 5.284241676330566 43.09883499145508 5.499458789825439 43.12157821655273 5.723143577575684 43.16787719726562 C 6.245108604431152 42.20552444458008 6.995574951171875 41.38764953613281 7.912679195404053 40.78592300415039 C 8.978499412536621 40.08663558959961 10.21810913085938 39.71700286865234 11.49750900268555 39.71700286865234 C 13.14434909820557 39.71700286865234 14.71715927124023 40.33101272583008 15.92621898651123 41.4459228515625 C 17.03372383117676 42.46719360351562 17.75438690185547 43.82982635498047 17.9795093536377 45.31446075439453 C 20.4126148223877 45.94766998291016 22.14231872558594 48.15621948242188 22.14231872558594 50.69934463500977 C 22.14231872558594 52.20664215087891 21.64666938781738 53.59834289550781 20.74667930603027 54.61807250976562 C 19.80452919006348 55.68556213378906 18.47362899780273 56.27345275878906 16.9991397857666 56.27345275878906 Z"/><path class="f" d="M 11.49750900268555 40.21700286865234 C 9.049739837646484 40.21700286865234 6.953719139099121 41.66980361938477 5.987809181213379 43.75439453125 C 5.696959495544434 43.66171264648438 5.393928527832031 43.59883499145508 5.072669982910156 43.59883499145508 C 3.391889572143555 43.59883499145508 2.029048919677734 44.96235275268555 2.029048919677734 46.64245223999023 C 2.029048919677734 46.9765739440918 2.096010208129883 47.29247283935547 2.195428848266602 47.59209442138672 C 0.8880596160888672 48.35440444946289 0 49.7537841796875 0 51.37569427490234 C 0 53.80386352539062 1.968219757080078 55.7720832824707 4.396389007568359 55.7720832824707 L 16.9991397857666 55.77344512939453 C 19.80200004577637 55.77344512939453 21.64231872558594 53.50151443481445 21.64231872558594 50.69934463500977 C 21.64231872558594 48.22652435302734 19.87022018432617 46.17243576049805 17.52663040161133 45.72465515136719 C 17.23041915893555 42.63844299316406 14.66089916229248 40.21700286865234 11.49750900268555 40.21700286865234 M 11.49750900268555 39.21700286865234 C 13.27031898498535 39.21700286865234 14.96349906921387 39.87804412841797 16.26516914367676 41.07835388183594 C 17.37687683105469 42.10349655151367 18.12623023986816 43.44828796386719 18.41819000244141 44.92099380493164 C 20.90400123596191 45.71280670166016 22.64231872558594 48.03802871704102 22.64231872558594 50.69934463500977 C 22.64231872558594 52.32858276367188 22.10223007202148 53.83778381347656 21.12154960632324 54.94892501831055 C 20.08313941955566 56.12548446655273 18.61911010742188 56.77344512939453 16.9991397857666 56.77344512939453 L 4.396280288696289 56.7720832824707 C 1.420808792114258 56.7720832824707 -1 54.35127258300781 -1 51.37569427490234 C -1 50.41527557373047 -0.7413311004638672 49.47283554077148 -0.2519607543945312 48.65025329589844 C 0.08973121643066406 48.07590866088867 0.5382213592529297 47.56785583496094 1.06562614440918 47.15367126464844 C 1.04115104675293 46.98160934448242 1.029048919677734 46.81172943115234 1.029048919677734 46.64245223999023 C 1.029048919677734 44.41279220581055 2.843009948730469 42.59883499145508 5.072669982910156 42.59883499145508 C 5.201244354248047 42.59883499145508 5.330547332763672 42.60597229003906 5.461376190185547 42.62038040161133 C 6.009974479675293 41.71915054321289 6.751797676086426 40.9495735168457 7.638389587402344 40.36787414550781 C 8.785919189453125 39.61497497558594 10.12037944793701 39.21700286865234 11.49750900268555 39.21700286865234 Z"/></g></g><g transform="translate(-3762.039 -7105.275)"><path class="b" d="M17.432,45.725a6.069,6.069,0,0,0-11.558-1.97V55.773h10.6a5.068,5.068,0,0,0,.958-10.047Z" transform="translate(-5.874 -40.217)"/></g><path class="c" d="M6.156,0h0A11.637,11.637,0,0,0,0,1.721L4.489,6.554Z" transform="translate(-3758.363 -7087.854) rotate(-135)"/><path class="d" d="M189.953,40.141V26.174m-4.044,4.778,4.043-4.778L194,30.952" transform="translate(-3566.652 -7055.259) rotate(180)"/></g></svg>