<svg xmlns="http://www.w3.org/2000/svg" viewBox="0 0 21.776 18.801"><defs><style>.a{fill:#fff;}.b{fill:#707070;}</style></defs><g transform="translate(-1400 -782)"><path class="a" d="M19.863,12.083a8.143,8.143,0,0,0,1.913-4.82A6.646,6.646,0,0,0,15.269.5a6.3,6.3,0,0,0-4.381,1.762A6.3,6.3,0,0,0,6.507.5,6.646,6.646,0,0,0,0,7.263c0,2,1.105,4.154,3.285,6.414.183.189,2.605,2.345,2.813,2.507a37.328,37.328,0,0,0,4.562,3.058.476.476,0,0,0,.458,0c.026-.014.568-.313,1.4-.841A27.39,27.39,0,0,0,19.863,12.083Z" transform="translate(1400 781.5)"/><g transform="translate(1400 781.5)"><path class="b" d="M109.706,12.467a6.038,6.038,0,0,0-2.147-1.521,6.291,6.291,0,0,0-3.8,5.841c0,4.1,5.119,8.136,8.178,10.18,3.059-2.044,8.178-6.077,8.178-10.18a6.163,6.163,0,0,0-6.031-6.286A5.9,5.9,0,0,0,109.706,12.467Zm0,0" transform="translate(-98.817 -9.523)"/><path d="M94.9,286.911a.477.477,0,1,0,.036.676.475.475,0,0,0-.036-.676Zm0,0" transform="translate(-89.619 -272.646)"/><path d="M19.863,12.083a8.143,8.143,0,0,0,1.913-4.82A6.646,6.646,0,0,0,15.269.5a6.3,6.3,0,0,0-4.381,1.762A6.3,6.3,0,0,0,6.507.5,6.646,6.646,0,0,0,0,7.263c0,2,1.105,4.154,3.285,6.414a.477.477,0,0,0,.686-.662C1.968,10.939.953,9,.953,7.263a5.693,5.693,0,0,1,5.554-5.81,5.393,5.393,0,0,1,4.028,1.81.476.476,0,0,0,.705,0,5.393,5.393,0,0,1,4.028-1.81,5.693,5.693,0,0,1,5.554,5.81c0,1.7-.965,3.578-2.867,5.593a27.611,27.611,0,0,1-5.888,4.7c-.525.333-.941.578-1.18.716a37.954,37.954,0,0,1-4.2-2.843.476.476,0,1,0-.587.75,37.328,37.328,0,0,0,4.562,3.058.476.476,0,0,0,.458,0c.026-.014.568-.313,1.4-.841A27.39,27.39,0,0,0,19.863,12.083Z" transform="translate(0 0)"/><path d="M310.921,49.453a.477.477,0,1,0-.48-.477.475.475,0,0,0,.48.477Zm0,0" transform="translate(-295.649 -45.713)"/><path d="M345.076,60.11a.477.477,0,1,0,.953,0,4.515,4.515,0,0,0-2.466-4.071.476.476,0,1,0-.417.857A3.557,3.557,0,0,1,345.076,60.11Zm0,0" transform="translate(-326.54 -52.847)"/></g></g></svg>