<?xml version="1.0" encoding="utf-8"?>
<!-- Generator: Adobe Illustrator 14.0.0, SVG Export Plug-In . SVG Version: 6.00 Build 43363)  -->
<!DOCTYPE svg PUBLIC "-//W3C//DTD SVG 1.1//EN" "http://www.w3.org/Graphics/SVG/1.1/DTD/svg11.dtd">
<svg version="1.1" id="Layer_1" xmlns="http://www.w3.org/2000/svg" xmlns:xlink="http://www.w3.org/1999/xlink" x="0px" y="0px"
	 width="102px" height="101px" viewBox="0 0 102 101" enable-background="new 0 0 102 101" xml:space="preserve">
<path fill="#FBBE44" d="M51,101C23.113,101,0.5,60.199,0.5,32.31s22.624,29.651,50.516,29.651
	C78.906,61.958,101.5,4.419,101.5,32.31C101.5,60.201,78.891,101,51,101z"/>
<g transform="translate(-943 -4473)">
	<g transform="translate(943 4473)">
		<path d="M43.449,43.594c-0.387-0.002-0.699-0.316-0.697-0.703s0.316-0.699,0.703-0.697s0.699,0.316,0.697,0.704
			c-0.001,0.187-0.076,0.365-0.211,0.496C43.811,43.522,43.634,43.595,43.449,43.594z"/>
		<path d="M37.223,35.364c-0.387-0.003-0.697-0.32-0.693-0.707c0.002-0.19,0.081-0.371,0.219-0.502l0.007-0.006
			c0.26-0.287,0.702-0.309,0.989-0.049c0.285,0.26,0.308,0.702,0.048,0.989c-0.027,0.03-0.058,0.058-0.089,0.082l-0.006,0.005
			C37.568,35.297,37.398,35.364,37.223,35.364z"/>
		<path fill="#FFDEC7" d="M58.536,20.723h5.693v-8.315H52.442c-1.456,0-2.889,0.365-4.167,1.063l-9.495,5.188
			c-0.511,0.277-0.894,0.741-1.072,1.293c0.694,0.6,1.68,0.723,2.5,0.313l7.063-3.54l3.227-0.222
			c0.068,0.075,0.143,0.145,0.223,0.208l2.914,2.31C55.029,20.124,56.757,20.725,58.536,20.723z"/>
		<path fill="#FFDEC7" d="M45.723,32.161h-5.693v8.359h12.135c1.456,0.001,2.888-0.363,4.166-1.059l9.495-5.183
			c0.749-0.22,1.179-1.005,0.958-1.754c-0.219-0.749-1.005-1.178-1.753-0.958c-0.499,0.146-0.877,0.555-0.984,1.063l-7.063,3.531
			l-3.227,0.217c-0.069-0.074-0.144-0.145-0.224-0.208l-2.914-2.309C49.226,32.759,47.5,32.16,45.723,32.161z"/>
		<path fill="#FF5D5D" d="M56.719,25.819c0.019-1.486-1.171-2.708-2.658-2.728c-0.734,0.002-1.436,0.312-1.931,0.854
			c-0.176-0.19-0.378-0.354-0.6-0.488c-0.403,0.597-0.617,1.3-0.615,2.019c0,1.333,1.41,2.911,2.858,4.181
			C55.084,28.617,56.719,27.076,56.719,25.819z"/>
		<path d="M63.735,32.007l-7.063,3.54c-0.33,0.202-0.433,0.634-0.23,0.963c0.178,0.291,0.539,0.41,0.855,0.285l7.063-3.54
			c0.771-0.402,1.721-0.105,2.124,0.664c0.402,0.771,0.104,1.722-0.665,2.124l-9.495,5.183c-1.177,0.641-2.494,0.977-3.833,0.978
			h-6.188c-0.385,0.033-0.67,0.372-0.638,0.757c0.029,0.34,0.299,0.609,0.638,0.639h6.188c1.571-0.001,3.118-0.396,4.499-1.148
			l9.496-5.182c1.442-0.778,1.981-2.579,1.204-4.021c-0.765-1.418-2.521-1.967-3.956-1.237L63.735,32.007z"/>
		<path d="M45.724,32.858c1.62,0.002,3.191,0.55,4.463,1.554l2.915,2.309c0.529,0.416,0.622,1.182,0.207,1.711
			c-0.394,0.501-1.107,0.614-1.638,0.26l-3.723-2.474C47.608,36.033,47.184,36.16,47,36.5c-0.163,0.298-0.087,0.668,0.178,0.881
			l3.723,2.473c1.205,0.794,2.826,0.461,3.62-0.744c0.743-1.128,0.504-2.638-0.552-3.48l-2.915-2.309
			c-1.518-1.199-3.396-1.853-5.329-1.855h-5.001c0-0.387-0.313-0.7-0.7-0.7l0,0h-5.048c-0.385-0.032-0.724,0.253-0.757,0.639
			c-0.033,0.385,0.253,0.724,0.639,0.757c0.039,0.003,0.079,0.003,0.118,0h4.356V42.9h-4.356c-0.385,0.032-0.671,0.371-0.638,0.757
			c0.028,0.34,0.298,0.609,0.638,0.639h5.054c0.387,0,0.699-0.313,0.699-0.7l0,0v-10.74L45.724,32.858z"/>
		<path d="M69.285,20.723h-4.359V9.983h4.359c0.386-0.032,0.672-0.371,0.639-0.756c-0.029-0.34-0.299-0.609-0.639-0.639h-5.056
			c-0.387,0-0.7,0.313-0.7,0.7v10.74h-5c-1.62-0.002-3.192-0.55-4.464-1.554l-2.915-2.31c-0.529-0.415-0.621-1.181-0.206-1.71
			c0.394-0.501,1.106-0.614,1.637-0.26l3.723,2.473c0.34,0.185,0.765,0.059,0.949-0.281c0.162-0.298,0.087-0.669-0.178-0.88
			l-3.724-2.474c-1.205-0.795-2.825-0.462-3.62,0.743c-0.743,1.129-0.504,2.638,0.552,3.48l2.915,2.31
			c1.519,1.199,3.396,1.853,5.33,1.855h5c0,0.386,0.313,0.699,0.7,0.699h5.056c0.386-0.032,0.672-0.371,0.639-0.757
			c-0.029-0.339-0.299-0.609-0.639-0.639L69.285,20.723z"/>
		<path d="M61.059,10.688c0.387-0.002,0.699-0.317,0.697-0.704c-0.002-0.386-0.316-0.698-0.703-0.696
			c-0.387,0.001-0.698,0.316-0.696,0.703c0,0.187,0.076,0.365,0.21,0.497C60.698,10.616,60.875,10.688,61.059,10.688z"/>
		<path d="M39.191,21.199c0.462,0,0.919-0.108,1.333-0.316l7.063-3.539c0.33-0.202,0.433-0.634,0.231-0.964
			c-0.178-0.29-0.54-0.41-0.856-0.284l-7.063,3.539c-0.77,0.404-1.721,0.105-2.123-0.664c-0.403-0.77-0.105-1.721,0.665-2.123l0,0
			l9.495-5.183c1.176-0.641,2.494-0.977,3.833-0.978h6.289c0.386-0.033,0.672-0.372,0.639-0.758
			c-0.029-0.34-0.299-0.609-0.639-0.638h-6.292c-1.572,0.001-3.119,0.396-4.5,1.148l-9.496,5.182
			c-1.439,0.787-1.968,2.591-1.182,4.031c0.521,0.95,1.518,1.543,2.602,1.545L39.191,21.199z"/>
		<path d="M66.869,17.396l-0.006,0.006c-0.263,0.284-0.244,0.727,0.04,0.989c0.251,0.231,0.632,0.248,0.902,0.04l0.006-0.006
			c0.262-0.285,0.244-0.728-0.04-0.989C67.521,17.203,67.14,17.187,66.869,17.396z"/>
		<path d="M49.379,29.646c0.752,0.645,1.546,1.238,2.377,1.777c0.228,0.144,0.518,0.144,0.746,0c0.83-0.539,1.624-1.133,2.376-1.777
			c1.708-1.474,2.537-2.725,2.537-3.827c0.017-1.871-1.485-3.403-3.356-3.424c-0.693,0.002-1.368,0.221-1.931,0.625
			c-0.563-0.404-1.238-0.623-1.932-0.625c-1.871,0.021-3.373,1.553-3.356,3.424C46.847,26.921,47.672,28.172,49.379,29.646z
			 M50.197,23.79c0.54,0,1.056,0.228,1.418,0.627c0.264,0.283,0.707,0.3,0.989,0.036c0.013-0.012,0.024-0.023,0.036-0.036
			c0.362-0.399,0.878-0.627,1.418-0.627c1.101,0.021,1.978,0.928,1.961,2.028c0,1.106-2.164,3.018-3.892,4.182
			c-1.729-1.163-3.892-3.073-3.892-4.182C48.22,24.717,49.098,23.811,50.197,23.79L50.197,23.79z"/>
	</g>
</g>
</svg>
