<?xml version="1.0" encoding="utf-8"?>
<!-- Generator: Adobe Illustrator 14.0.0, SVG Export Plug-In . SVG Version: 6.00 Build 43363)  -->
<!DOCTYPE svg PUBLIC "-//W3C//DTD SVG 1.1//EN" "http://www.w3.org/Graphics/SVG/1.1/DTD/svg11.dtd">
<svg version="1.1" id="Layer_1" xmlns="http://www.w3.org/2000/svg" xmlns:xlink="http://www.w3.org/1999/xlink" x="0px" y="0px"
	 width="102px" height="101px" viewBox="0 0 102 101" enable-background="new 0 0 102 101" xml:space="preserve">
<g transform="translate(-473.697 -4465)">
	<g transform="translate(474.199 4465)">
		<path fill="#FFDEC7" d="M65.823,23.173l-0.474-0.685c-2.851-5.294-9.452-7.275-14.746-4.426c-0.188,0.101-0.371,0.207-0.553,0.319
			c-0.079,0.053-0.158,0.115-0.228,0.167l-0.009,1.027c-0.477,1.057-0.007,2.299,1.049,2.776c0.714,0.322,1.548,0.219,2.162-0.265
			c2.315-1.807,5.656-1.395,7.463,0.919c0.653,0.836,1.04,1.849,1.113,2.908c-0.012,0.77-0.142,1.533-0.386,2.263
			c-0.481,1.438-1.297,2.74-2.379,3.802c-2.079,2.065-4.699,3.505-7.558,4.151c-1.137,0.256-1.852,1.386-1.595,2.522
			c0.216,0.961,1.067,1.644,2.052,1.647c0.155-0.001,0.312-0.019,0.464-0.053c3.644-0.911,6.976-2.784,9.646-5.423
			c1.33-1.295,3.111-2.021,4.968-2.025h3.099v-5.749h-2.501L65.823,23.173z"/>
		<path fill="#FFDEC7" d="M42.998,16.223c-3.369,0.307-6.329,2.36-7.798,5.406l-0.474,0.685l-1.202,2.932
			c-0.23,0.562-0.778,0.93-1.386,0.93c-0.829,0-1.5,0.67-1.501,1.498c0,0.001,0,0.001,0,0.003v5.116h1.782
			c1.856,0.005,3.637,0.732,4.967,2.026c2.673,2.636,6.004,4.509,9.646,5.424c1.141,0.238,2.259-0.492,2.498-1.632
			c0.234-1.118-0.464-2.22-1.576-2.484c-2.86-0.644-5.48-2.083-7.558-4.153c-1.087-1.06-1.903-2.366-2.379-3.808
			c-0.244-0.728-0.374-1.489-0.386-2.255c0.201-2.929,2.739-5.141,5.668-4.94c1.059,0.073,2.071,0.46,2.907,1.113
			c0.91,0.718,2.229,0.563,2.947-0.347c0.485-0.615,0.587-1.449,0.265-2.164c0,0-0.043-1.122-0.043-1.132
			c0-0.438-1.177-0.878-1.58-1.036C46.188,16.784,44.767,16.029,42.998,16.223z"/>
		<path d="M32.172,19.663c0.424,0.228,0.954,0.071,1.185-0.352c1.561-2.897,4.445-4.843,7.715-5.205
			c2.216-0.252,4.452,0.251,6.346,1.43c0.412,0.257,0.954,0.132,1.211-0.28s0.131-0.954-0.28-1.211l0,0
			c-2.227-1.385-4.855-1.979-7.46-1.686c-3.843,0.429-7.231,2.715-9.067,6.117c-0.232,0.417-0.083,0.944,0.333,1.176
			C32.16,19.657,32.166,19.659,32.172,19.663z"/>
		<path d="M28.029,24.315h3.712c0.484-0.017,0.864-0.423,0.848-0.908c-0.016-0.461-0.386-0.832-0.848-0.848h-3.712
			c-0.485,0.017-0.864,0.423-0.848,0.907C27.197,23.929,27.567,24.299,28.029,24.315z"/>
		<path d="M54.3,14.431c1.253-0.363,2.566-0.474,3.862-0.325c3.27,0.364,6.153,2.309,7.715,5.205
			c0.155,0.281,0.451,0.456,0.772,0.457c0.484-0.002,0.874-0.396,0.873-0.88c-0.001-0.146-0.038-0.291-0.109-0.42
			c-1.836-3.403-5.224-5.689-9.066-6.117c-1.525-0.172-3.071-0.041-4.546,0.386c-0.464,0.132-0.732,0.616-0.6,1.079
			c0.001,0.003,0.002,0.006,0.003,0.009C53.347,14.289,53.831,14.557,54.3,14.431z"/>
		<path d="M66.622,23.437c0.001,0.484,0.394,0.877,0.878,0.878h3.713c0.484-0.017,0.864-0.423,0.848-0.908
			c-0.016-0.461-0.387-0.832-0.848-0.848H67.5c-0.48-0.005-0.873,0.38-0.878,0.86C66.622,23.425,66.622,23.431,66.622,23.437z"/>
		<path d="M71.213,31.907h-4.406c-2.084,0.002-4.084,0.822-5.57,2.281c-2.557,2.523-5.74,4.318-9.224,5.196
			c-0.09,0.017-0.181,0.025-0.271,0.025c-0.68-0.003-1.227-0.559-1.223-1.237c0.004-0.572,0.401-1.066,0.959-1.192
			c3.019-0.676,5.784-2.191,7.978-4.371c1.22-1.192,2.127-2.666,2.643-4.292c0.246-0.777,0.376-1.587,0.386-2.404
			c-0.011-1.517-0.635-2.963-1.729-4.012c-1.229-1.194-2.885-1.849-4.6-1.816c-1.333,0.025-2.621,0.484-3.669,1.308
			c-0.262,0.202-0.595,0.291-0.922,0.246c-0.329-0.041-0.629-0.215-0.825-0.483c-0.399-0.551-0.281-1.321,0.264-1.729
			c1.512-1.171,3.371-1.805,5.284-1.799c2.765,0.01,5.361,1.332,6.995,3.564c0.26,0.411,0.803,0.534,1.214,0.274
			s0.534-0.803,0.274-1.213c-0.021-0.034-0.045-0.066-0.07-0.097c-1.963-2.682-5.082-4.272-8.405-4.283
			c-2.305-0.01-4.545,0.753-6.363,2.167c-0.111,0.082-0.214,0.176-0.304,0.281c-0.101-0.101-0.203-0.194-0.304-0.281
			c-1.822-1.417-4.067-2.18-6.375-2.167c-3.324,0.008-6.445,1.598-8.405,4.283c-0.313,0.373-0.265,0.927,0.107,1.24
			c0.372,0.313,0.927,0.265,1.24-0.107c0.026-0.03,0.05-0.063,0.071-0.097c1.633-2.232,4.23-3.555,6.996-3.564
			c1.913-0.006,3.773,0.626,5.284,1.8c0.541,0.411,0.657,1.177,0.263,1.729c-0.412,0.548-1.19,0.657-1.737,0.245
			c-0.003-0.002-0.006-0.005-0.01-0.008c-1.047-0.824-2.336-1.284-3.668-1.308c-1.714-0.033-3.371,0.621-4.6,1.816
			c-1.096,1.047-1.72,2.496-1.729,4.011c0.009,0.816,0.14,1.626,0.386,2.405c0.522,1.623,1.429,3.095,2.642,4.292
			c2.194,2.18,4.96,3.695,7.978,4.371c0.32,0.07,0.599,0.267,0.772,0.544c0.178,0.275,0.235,0.613,0.158,0.931
			c-0.129,0.557-0.623,0.953-1.194,0.958c-0.091,0-0.182-0.009-0.271-0.026c-3.483-0.879-6.668-2.672-9.225-5.197
			c-1.489-1.454-3.487-2.273-5.569-2.281h-4.408c-0.485,0.017-0.864,0.422-0.848,0.908c0.016,0.461,0.386,0.832,0.848,0.847h4.406
			c1.628,0.002,3.191,0.643,4.354,1.781c2.788,2.747,6.261,4.696,10.058,5.644c0.214,0.044,0.432,0.067,0.65,0.07
			c0.795-0.004,1.556-0.323,2.116-0.888c0.558,0.568,1.32,0.888,2.115,0.888c0.218-0.001,0.437-0.025,0.649-0.07
			c3.796-0.952,7.269-2.9,10.06-5.644c1.162-1.139,2.726-1.779,4.354-1.781h4.421c0.484-0.017,0.864-0.422,0.848-0.907
			c-0.016-0.462-0.387-0.833-0.848-0.849V31.907z M48.155,35.267c-2.697-0.604-5.168-1.957-7.13-3.902
			c-1.012-0.992-1.768-2.215-2.204-3.563c-0.193-0.611-0.295-1.247-0.304-1.887c0.013-1.043,0.446-2.037,1.202-2.757
			c0.891-0.862,2.087-1.336,3.327-1.316c0.954,0.016,1.876,0.346,2.624,0.939c1.186,0.925,2.874,0.824,3.94-0.237
			c1.066,1.062,2.755,1.163,3.941,0.237c0.751-0.586,1.671-0.916,2.624-0.939c1.24-0.026,2.439,0.449,3.326,1.316
			c0.756,0.72,1.189,1.714,1.202,2.757c-0.009,0.64-0.11,1.275-0.304,1.887c-0.436,1.348-1.192,2.571-2.203,3.563
			c-1.96,1.949-4.431,3.303-7.128,3.907c-0.557,0.121-1.066,0.402-1.465,0.809C49.215,35.67,48.709,35.386,48.155,35.267z"/>
		<path d="M49.621,6.751c0.484-0.001,0.877-0.394,0.879-0.878V0.651c-0.017-0.484-0.424-0.864-0.908-0.848
			C49.13-0.181,48.76,0.19,48.745,0.651v5.223c-0.001,0.483,0.39,0.875,0.873,0.877C49.619,6.751,49.62,6.751,49.621,6.751z"/>
		<path d="M43.407,8.516c0.346,0.34,0.9,0.34,1.247,0c0.341-0.341,0.342-0.894,0.001-1.235c0-0.001-0.001-0.001-0.001-0.002
			l-2.097-2.097c-0.342-0.342-0.896-0.342-1.238,0s-0.342,0.896,0,1.238l0,0L43.407,8.516z"/>
		<path d="M39.386,4.135c0.485,0,0.879-0.392,0.88-0.876s-0.392-0.879-0.876-0.88s-0.878,0.392-0.879,0.876
			c-0.001,0.248,0.104,0.485,0.288,0.652C38.959,4.053,39.169,4.134,39.386,4.135z"/>
		<path d="M55.081,8.911c0.232-0.001,0.457-0.092,0.623-0.255l4.723-4.722c0.342-0.342,0.342-0.896,0-1.237s-0.896-0.342-1.237,0
			l-4.723,4.722c-0.342,0.34-0.343,0.893-0.003,1.234C54.627,8.817,54.85,8.91,55.081,8.911L55.081,8.911z"/>
		<path d="M52.235,14.782c0,0.485-0.393,0.878-0.877,0.878c-0.485,0-0.878-0.393-0.878-0.878c0-0.484,0.393-0.877,0.878-0.877
			C51.843,13.905,52.235,14.298,52.235,14.782L52.235,14.782z"/>
	</g>
</g>
<path fill="#EC603E" d="M51,101C23.113,101,0.5,60.199,0.5,32.31s22.624,29.651,50.516,29.651
	C78.906,61.958,101.5,4.419,101.5,32.31C101.5,60.201,78.891,101,51,101z"/>
</svg>
