<?xml version="1.0" encoding="utf-8"?>
<!-- Generator: Adobe Illustrator 14.0.0, SVG Export Plug-In . SVG Version: 6.00 Build 43363)  -->
<!DOCTYPE svg PUBLIC "-//W3C//DTD SVG 1.1//EN" "http://www.w3.org/Graphics/SVG/1.1/DTD/svg11.dtd">
<svg version="1.1" id="Layer_1" xmlns="http://www.w3.org/2000/svg" xmlns:xlink="http://www.w3.org/1999/xlink" x="0px" y="0px"
	 width="102px" height="101px" viewBox="0 0 102 101" enable-background="new 0 0 102 101" xml:space="preserve">
<path fill="#006381" d="M51,101C23.113,101,0.5,60.199,0.5,32.31s22.624,29.651,50.516,29.651
	C78.906,61.958,101.5,4.419,101.5,32.31C101.5,60.201,78.891,101,51,101z"/>
<g transform="translate(-1436.418 -4464)">
	<g transform="translate(1436.418 4464)">
		<path fill="#FFDEC7" d="M64.642,31.227c1.423-1.418,2.391-3.229,2.779-5.2L68.5,20.55c0.226-1.143-0.518-2.251-1.659-2.477
			c-0.019-0.003-0.036-0.006-0.054-0.01c-1.106-0.171-2.158,0.538-2.416,1.628l-0.546,2.226c-0.02,0.166-0.17,0.284-0.335,0.265
			c-0.166-0.02-0.284-0.17-0.265-0.336V11.29c0.012-1.048-0.75-1.943-1.785-2.101c-1.128-0.152-2.167,0.641-2.318,1.769
			c-0.006,0.044-0.01,0.088-0.013,0.131v-1.8c0-1.139-0.924-2.063-2.063-2.063c-0.062,0-0.123,0.003-0.185,0.008
			c-1.061,0.136-1.86,1.03-1.877,2.101v1.755c-0.063-0.918-0.729-1.683-1.63-1.874v14.562c0,2.849,1.133,5.581,3.151,7.593
			l1.529,1.525v9.6h4.376v-9.047L64.642,31.227z"/>
		<path fill="#FFDEC7" d="M44.597,38.431c2.144-2.138,3.349-5.041,3.349-8.069V17.439c0-0.248-0.039-0.495-0.118-0.73
			c-0.951,0.084-1.699,0.847-1.767,1.799v-1.654c-0.014-1.009-0.768-1.854-1.77-1.982c-1.068-0.097-2.014,0.692-2.11,1.762
			c-0.006,0.058-0.008,0.116-0.008,0.175v1.699c-0.074-1.069-1.003-1.878-2.073-1.804c-0.042,0.003-0.085,0.008-0.127,0.013
			c-0.976,0.146-1.694,0.99-1.683,1.978v9.945c0,0.158-0.127,0.286-0.285,0.287c-0.133,0-0.248-0.09-0.279-0.22l-0.515-2.1
			c-0.241-1.027-1.232-1.695-2.275-1.534c-1.081,0.186-1.81,1.211-1.624,2.293c0.003,0.018,0.006,0.033,0.01,0.05l1.018,5.162
			c0.366,1.857,1.278,3.563,2.618,4.9l2.101,2.1v2.916h3.911V40.05L44.597,38.431z"/>
		<path d="M62.411,41.777c-0.396,0-0.717,0.321-0.717,0.717c0,0.396,0.321,0.718,0.717,0.718c0.396,0,0.717-0.321,0.717-0.718
			c0-0.189-0.075-0.372-0.21-0.507C62.784,41.854,62.602,41.778,62.411,41.777z"/>
		<path d="M68.763,18.542c-0.427-0.629-1.091-1.057-1.841-1.186c-1.198-0.208-2.397,0.373-2.978,1.444v-7.564
			c0.001-1.533-1.241-2.777-2.774-2.779c-0.485,0-0.962,0.126-1.382,0.367c-0.257-1.513-1.69-2.532-3.204-2.275
			c-1.166,0.197-2.079,1.11-2.276,2.275c-1.33-0.762-3.027-0.301-3.79,1.03c-0.194,0.341-0.315,0.719-0.354,1.109
			c-1.341-0.747-3.032-0.266-3.779,1.073c-0.231,0.415-0.353,0.881-0.352,1.354c0,0.396,0.32,0.717,0.717,0.717
			c0.396,0,0.717-0.321,0.717-0.717c0.004-0.743,0.61-1.343,1.353-1.339c0.685,0.004,1.257,0.52,1.331,1.2v1.911
			c0,0.396,0.321,0.717,0.718,0.717c0.396,0,0.717-0.321,0.717-0.717v-3.928c0.004-0.743,0.609-1.342,1.354-1.339
			c0.684,0.004,1.256,0.52,1.33,1.2v5.576c0,0.034,0.007,0.271,0.007,0.271c0,0.396,0.321,0.717,0.717,0.717
			c0.396,0,0.718-0.32,0.718-0.717v-5.709c0-0.063,0-0.128-0.008-0.19V9.288c-0.02-0.742,0.566-1.361,1.31-1.382
			c0.742-0.021,1.361,0.565,1.382,1.309c0.001,0.025,0.001,0.05,0,0.073v1.758c0,0.063-0.007,0.127-0.007,0.19v10.081
			c0,0.396,0.321,0.717,0.717,0.717c0.396,0,0.717-0.32,0.717-0.717l0,0l0.008-10.22c0.081-0.739,0.745-1.272,1.483-1.191
			c0.68,0.074,1.196,0.646,1.2,1.33v10.6c0.001,0.564,0.46,1.021,1.023,1.019c0.469-0.001,0.876-0.32,0.989-0.775l0.558-2.275
			c0.182-0.746,0.934-1.204,1.681-1.022c0.334,0.082,0.626,0.284,0.819,0.567c0.212,0.308,0.291,0.689,0.217,1.056l-1.08,5.477
			c-0.359,1.833-1.259,3.516-2.582,4.833l-2.23,2.224c-0.135,0.135-0.211,0.317-0.211,0.508v6.395c0,0.396,0.321,0.717,0.717,0.717
			c0.396,0,0.717-0.321,0.717-0.717v-6.101l2.02-2.014c1.526-1.518,2.563-3.458,2.978-5.57l1.08-5.477
			C69.354,19.936,69.193,19.165,68.763,18.542z"/>
		<path d="M53.822,28.659c-0.396,0-0.718,0.321-0.718,0.717l0,0v2.101c0.007,2.342-0.926,4.588-2.589,6.237l-1.358,1.354
			c-0.135,0.135-0.211,0.317-0.211,0.508v2.916c0,0.396,0.321,0.718,0.717,0.718c0.396,0,0.718-0.321,0.718-0.718l0,0v-2.618
			l1.147-1.144c1.935-1.917,3.019-4.53,3.011-7.253v-2.101C54.539,28.98,54.218,28.659,53.822,28.659z"/>
		<path d="M53.823,26.114c-0.396,0-0.718,0.321-0.718,0.717c0,0.396,0.321,0.718,0.718,0.718c0.396,0,0.717-0.321,0.717-0.718
			c0-0.19-0.076-0.372-0.21-0.507C54.194,26.19,54.013,26.115,53.823,26.114z"/>
		<path d="M49.218,23.769c0,0.396,0.32,0.717,0.717,0.717l0,0h0.008c0.396,0,0.717-0.321,0.717-0.717l0,0v-3.222
			c0.066-0.675,0.667-1.167,1.341-1.101c0.632,0.063,1.11,0.596,1.106,1.229v3.349c0,0.396,0.321,0.717,0.718,0.717
			c0.396,0,0.717-0.32,0.717-0.717l0,0v-3.349c0-1.469-1.189-2.66-2.658-2.66c-0.433-0.001-0.859,0.104-1.242,0.308
			c-0.177-1.459-1.502-2.497-2.959-2.32c-0.333,0.039-0.655,0.143-0.95,0.303c-0.276-1.443-1.67-2.389-3.113-2.112
			c-1.069,0.205-1.906,1.042-2.111,2.112c-1.291-0.701-2.906-0.223-3.606,1.069c-0.212,0.389-0.322,0.825-0.322,1.269v6.975
			c-0.583-0.943-1.681-1.438-2.773-1.247c-1.469,0.257-2.451,1.655-2.194,3.124c0.004,0.021,0.007,0.041,0.012,0.062l1.018,5.162
			c0.391,1.999,1.371,3.836,2.813,5.273l1.892,1.887v2.613c0,0.396,0.32,0.718,0.717,0.718s0.717-0.321,0.717-0.718v-2.916
			c0-0.19-0.075-0.373-0.211-0.508l-2.1-2.1c-1.242-1.235-2.086-2.814-2.423-4.533l-1.019-5.162
			c-0.13-0.688,0.322-1.354,1.012-1.484c0.66-0.125,1.303,0.285,1.468,0.937l0.525,2.145c0.114,0.541,0.645,0.887,1.186,0.772
			c0.475-0.1,0.809-0.526,0.793-1.011v-9.994c0.001-0.678,0.551-1.227,1.229-1.226c0.627,0.002,1.151,0.474,1.219,1.096v5.254
			c0,0.396,0.32,0.717,0.717,0.717l0,0h0.007c0.396,0,0.717-0.32,0.717-0.717l0,0v-5.125c0-0.061,0-0.121-0.007-0.182V16.8
			c0-0.677,0.55-1.226,1.228-1.226c0.677,0,1.226,0.549,1.227,1.226v1.655c0,0.061-0.007,0.121-0.007,0.182v5.125
			c0,0.396,0.32,0.717,0.717,0.717l0,0h0.007c0.396,0,0.717-0.32,0.717-0.717l0,0v-5.254c0.072-0.674,0.678-1.161,1.352-1.088
			c0.622,0.066,1.095,0.592,1.096,1.218L49.218,23.769z"/>
		<path d="M42.22,11.516c0.279,0.28,0.734,0.28,1.014,0c0.28-0.28,0.28-0.734,0-1.015l-3.779-3.779
			c-0.271-0.289-0.726-0.303-1.014-0.031c-0.289,0.271-0.303,0.726-0.031,1.014c0.011,0.011,0.021,0.021,0.031,0.031L42.22,11.516z"
			/>
		<path d="M38.948,12.422c-0.396-0.001-0.717,0.319-0.718,0.716c0,0.396,0.319,0.718,0.716,0.718c0.001,0,0.002,0,0.002,0h1.748
			c0.396,0.001,0.718-0.32,0.719-0.716c0-0.396-0.32-0.717-0.716-0.718c-0.001,0-0.002,0-0.003,0H38.948z"/>
		<path d="M44.826,9.751c0.396,0,0.717-0.321,0.717-0.718V7.227c0-0.396-0.321-0.717-0.717-0.717c-0.396,0-0.718,0.32-0.718,0.717
			v1.808C44.109,9.431,44.43,9.751,44.826,9.751z"/>
	</g>
</g>
</svg>
