<svg xmlns="http://www.w3.org/2000/svg" viewBox="0 0 567.72 774.727"><defs><style>.a{opacity:0.063;}.b,.c{fill:rgba(0,0,0,0.28);}.c{fill-rule:evenodd;}</style></defs><g class="a" transform="translate(-1129.975 -3295.428)"><g transform="translate(1477.815 3295.428)"><rect class="b" width="3.528" height="17.099" transform="translate(28.498)"/><rect class="b" width="3.528" height="17.099" transform="translate(8.957)"/><path class="c" d="M25.385,33.871h0a1.632,1.632,0,0,0-1.086.271h-.271a3.3,3.3,0,0,1-4.343,0h-.271a1.193,1.193,0,0,0-1.357-.271c-.543,0-.814.271-1.086.814a2.034,2.034,0,0,0-.271,1.357c0,.543.271.814.814,1.086h.271a9.641,9.641,0,0,0,2.443,1.086V48.256c0,.543.271.814.543,1.357a2.058,2.058,0,0,0,1.086.543,1.883,1.883,0,0,0,1.628-1.9V38.214a6.706,6.706,0,0,0,2.443-1.086H26.2a1.678,1.678,0,0,0,.543-1.9A1.282,1.282,0,0,0,25.385,33.871Z" transform="translate(-1.501 57.867)"/><path class="c" d="M49.912,38.541h0a8.367,8.367,0,0,0-2.714.271A21.06,21.06,0,0,0,51.812,26.6h0v-.814h0v-19H48.284v17.37a20.229,20.229,0,0,0-9.771,3.528,19.575,19.575,0,0,0-5.157-17.37V0H29.828V10.585a20.254,20.254,0,0,0-5.428,17.1,20.229,20.229,0,0,0-9.771-3.528V6.785H11.1V26.6h0a19.384,19.384,0,0,0,4.614,12.214c-.814,0-1.9-.271-2.714-.271h0a1.751,1.751,0,0,0-1.628,1.628A20.1,20.1,0,0,0,15.985,53.2c-.814,0-1.9-.271-2.714-.271h0a1.751,1.751,0,0,0-1.628,1.628,20.1,20.1,0,0,0,4.614,13.028c-.814,0-1.9-.271-2.714-.271h0a1.751,1.751,0,0,0-1.628,1.628A20.331,20.331,0,0,0,32,89.566h0A20.162,20.162,0,0,0,52.083,68.939a1.751,1.751,0,0,0-1.628-1.628h0a8.367,8.367,0,0,0-2.714.271,20.1,20.1,0,0,0,4.614-13.028,1.751,1.751,0,0,0-1.628-1.628h0a8.367,8.367,0,0,0-2.714.271,20.1,20.1,0,0,0,4.614-13.028C51.812,39.355,51,38.541,49.912,38.541ZM31.456,75.453h0a8.367,8.367,0,0,0,2.714-.271A15.888,15.888,0,0,0,31.456,79.8a25.773,25.773,0,0,0-2.714-4.614A9.233,9.233,0,0,0,31.456,75.453Zm0-10.042A25.773,25.773,0,0,0,28.742,60.8c.814,0,1.9.271,2.714.271h0A9.233,9.233,0,0,0,34.17,60.8C33.356,62.154,32.27,63.782,31.456,65.411Zm0-14.656a25.773,25.773,0,0,0-2.714-4.614c.814,0,1.9.271,2.714.271h0a9.233,9.233,0,0,0,2.714-.271C33.356,47.5,32.27,49.126,31.456,50.754Zm1.9-7.871a16.781,16.781,0,0,1,14.928-15.2A17.278,17.278,0,0,1,33.356,42.883ZM31.727,13.571a17.148,17.148,0,0,1-.271,21.442A17.135,17.135,0,0,1,31.727,13.571Zm-1.9,29.313c-7.057-.543-13.842-6.514-14.928-15.2C22.5,28.227,29.013,34.469,29.828,42.883Zm0,14.385c-7.057-.543-13.842-6.514-14.928-15.2A17.032,17.032,0,0,1,29.828,57.268Zm0,14.656c-7.057-.543-13.842-6.514-14.928-15.2A16.781,16.781,0,0,1,29.828,71.925ZM14.9,71.11a17.029,17.029,0,0,1,14.928,15.2C22.771,85.767,15.985,80.067,14.9,71.11ZM33.356,86.581a16.781,16.781,0,0,1,14.928-15.2A17.278,17.278,0,0,1,33.356,86.581Zm0-14.656a16.781,16.781,0,0,1,14.928-15.2C47.2,65.411,40.413,71.382,33.356,71.925Zm0-14.656a16.781,16.781,0,0,1,14.928-15.2C47.2,51.026,40.413,56.725,33.356,57.268Z" transform="translate(-11.1)"/></g><g transform="translate(1448.633 3475.793)"><path class="b" d="M262.368,21A57.045,57.045,0,0,0,250.7,22.356h-.543v-.543a14.914,14.914,0,0,1,8.142-13.3l-2.171-4.343a17.494,17.494,0,0,0-8.957,9.228,20.951,20.951,0,0,0-17.642-9.5,15.614,15.614,0,0,0-7.057,1.357l-2.986,1.086,1.628,2.714a21.785,21.785,0,0,0,17.913,9.5,19.723,19.723,0,0,0,6.785-1.086,26.74,26.74,0,0,0-.543,4.614v.543l-.543-.271A42.87,42.87,0,0,0,233.056,21,26.006,26.006,0,0,0,207,46.783a54.486,54.486,0,0,0,16.013,38.269,19.075,19.075,0,0,0,13.571,5.428h0a23.9,23.9,0,0,0,4.614-.543l6.514-1.628,6.514,1.628a26.742,26.742,0,0,0,4.614.543,18.244,18.244,0,0,0,13.571-5.7l.271-.271a52.744,52.744,0,0,0,16.013-38A26.19,26.19,0,0,0,262.368,21ZM227.356,9.057a16.763,16.763,0,0,1,13.571,4.614A16.763,16.763,0,0,1,227.356,9.057Zm41.8,72.2h0A14.174,14.174,0,0,1,258.84,85.6a15.477,15.477,0,0,1-3.528-.271l-7.6-1.9-7.6,1.9a14.339,14.339,0,0,1-3.528.271,13.938,13.938,0,0,1-10.042-4.071,48.246,48.246,0,0,1-14.656-34.741,20.967,20.967,0,0,1,21.17-20.9h0a47.153,47.153,0,0,1,10.585,1.357l4.071,1.086,4.071-1.086a47.154,47.154,0,0,1,10.585-1.357,21.142,21.142,0,0,1,21.17,20.9A46.334,46.334,0,0,1,269.154,81.253Z" transform="translate(-207 -3.9)"/><path class="b" d="M227.056,13.7A16.392,16.392,0,0,0,210.5,29.985a2.443,2.443,0,1,0,4.885,0,11.528,11.528,0,0,1,11.671-11.4,2.443,2.443,0,0,0,0-4.885Z" transform="translate(-201.001 12.898)"/></g><path class="b" d="M165.654,257.469c0-5.971-1.357-10.585-4.885-15.2-1.086-1.628-2.443-2.986-3.528-4.343a49.918,49.918,0,0,1-4.614-5.971l-.271-7.057h0a3.858,3.858,0,0,0,.543-1.628v-2.443a3.593,3.593,0,0,0-3.528-3.528H131.456a3.593,3.593,0,0,0-3.528,3.528v2.443a3.923,3.923,0,0,0,.543,1.9v5.971a39,39,0,0,1-4.885,6.785,46.4,46.4,0,0,0-2.986,3.8,27.258,27.258,0,0,0-5.7,16.556l.271,62.7c0,.543.271.814.543,1.357l4.071,4.614a2.073,2.073,0,0,0,1.357.543h39.083a2.346,2.346,0,0,0,1.628-.814l3.257-4.071a2.073,2.073,0,0,0,.543-1.357Zm-43.426,65.953-2.986-3.528V305.509H137.97a1.9,1.9,0,1,0,0-3.8H119.243v-1.086h9.228a1.9,1.9,0,1,0,0-3.8h-9.228V295.2H139.6a3.593,3.593,0,0,0,3.528-3.528V269.683a3.593,3.593,0,0,0-3.528-3.528H119.243v-8.414c.271-7.328,2.443-11.128,4.885-14.385.814-1.086,1.9-2.171,2.714-3.257,1.9-2.443,4.071-4.614,5.7-7.871a1,1,0,0,0,.271-.814V226.8H149.1l.271,5.7a1,1,0,0,0,.271.814,48.462,48.462,0,0,0,5.428,7.057,47.266,47.266,0,0,0,3.257,3.8A20.619,20.619,0,0,1,162.4,257.2v62.968l-2.443,2.986ZM118.971,291.4v-21.17h19.813V291.4Zm12.756-68.668v-1.9h17.1v1.9Z" transform="translate(1140.355 3445.578)"/><g transform="translate(1548.06 3559.21)"><path class="b" d="M225.344,245.823h0c-3.8-2.443-8.142-1.086-8.414-1.086a1.717,1.717,0,1,0,1.086,3.257s2.986-1.086,5.157.543c1.628,1.086,1.9,4.343,1.628,5.157a1.794,1.794,0,0,0,1.628,1.9h.271a1.564,1.564,0,0,0,1.629-1.628C228.6,254.237,229.144,248.537,225.344,245.823Z" transform="translate(-180.222 -184.473)"/><path class="b" d="M220.7,228.517h0c-5.428-1.628-13.571.271-14.113.271a1.811,1.811,0,0,0,.814,3.528s7.6-1.9,12.214-.543c2.714.814,4.614,2.443,5.157,3.8.271.543.271,1.357-.814,2.443a1.718,1.718,0,0,0,.271,2.443,1.632,1.632,0,0,0,1.086.271,2.074,2.074,0,0,0,1.357-.543,6.165,6.165,0,0,0,1.357-5.7C227.218,231.5,223.69,229.331,220.7,228.517Z" transform="translate(-198.381 -212.764)"/><path class="b" d="M220,239.7h0c0-.271-.271-.271-.271-.543s-.271-.271-.271-.543c-.271-.271-.271-.271-.543-.271s-.271-.271-.543-.271-.271,0-.543-.271h-1.086c-.271,0-.271,0-.543.271-.271,0-.271.271-.543.271s-.271.271-.543.271c0,.271-.271.271-.271.543s-.271.271-.271.543,0,.271-.271.543v.543a2.113,2.113,0,0,0,.814,1.9c.271.271.271.271.543.271s.271.271.543.271.271,0,.543.271h.543a3.082,3.082,0,0,0,2.171-.814,2.932,2.932,0,0,0,.814-1.9v-.543A.841.841,0,0,1,220,239.7Z" transform="translate(-182.748 -195.721)"/><path class="b" d="M235.088,244.906c-.271,0-4.614-1.629-8.414,1.086s-3.257,8.142-3.257,8.414a1.751,1.751,0,0,0,1.628,1.629h.271c.814,0,1.628-1.086,1.628-1.9,0-1.086,0-4.071,1.629-5.157,2.171-1.629,5.157-.543,5.157-.543a1.846,1.846,0,0,0,2.171-1.086C236.445,245.992,235.9,245.177,235.088,244.906Z" transform="translate(-167.167 -184.37)"/><path class="b" d="M308.051,235.334h0c-2.986-4.614-21.17-4.071-24.7-2.171-.814.543-1.628.814-2.443,1.357a16.465,16.465,0,0,1-3.8,1.9,7.924,7.924,0,0,1-2.443.543,86.827,86.827,0,0,0,1.9-8.957,5.206,5.206,0,0,0-2.171-5.157c-1.9-1.086-4.343-.543-6.242,1.357-2.986,2.714-5.428,8.142-5.971,9.771a53.384,53.384,0,0,0-6.514-.814h0a26.766,26.766,0,0,0-6.514.814c-.543-1.629-2.986-7.057-5.971-9.771-1.9-1.9-4.343-2.443-6.243-1.357-1.628.814-2.443,2.986-2.171,5.157a86.875,86.875,0,0,0,1.9,8.957,7.924,7.924,0,0,1-2.443-.543c-1.357-.543-2.714-1.357-3.8-1.9a11,11,0,0,0-2.443-1.357c-3.528-1.9-21.713-2.443-24.7,2.171-.814,1.357-.814,3.257,0,5.428,1.9,5.7,8.685,13.571,13.842,15.2a40.9,40.9,0,0,0,7.057,1.086h1.628a21.093,21.093,0,0,0-.543,4.343c-.814,9.5,5.7,17.642,7.6,19.542a12.939,12.939,0,0,0-1.357,5.971c.271,5.971,2.986,13.028,9.5,13.028h0a5.984,5.984,0,0,1,4.071,1.628,16.331,16.331,0,0,0,10.314,3.257h1.086c5.7,0,8.414-1.629,10.314-3.257,1.357-.814,2.171-1.628,4.071-1.628h.271c6.785,0,9.5-7.057,9.5-13.028,0-2.443-.271-4.343-1.357-5.971,1.9-1.9,8.414-10.042,7.6-19.542a27.066,27.066,0,0,0-.543-4.343h1.629a24.846,24.846,0,0,0,7.057-1.086c5.157-1.628,11.671-9.5,13.842-15.2C308.865,238.32,308.865,236.42,308.051,235.334Zm-38-8.414h0q1.628-1.221,2.443-.814a2.294,2.294,0,0,1,.543,1.628,73.855,73.855,0,0,1-1.9,8.957c-1.086-.271-1.9-.543-2.986-.814-.814-.271-1.9-.543-2.714-.814A18.752,18.752,0,0,1,270.053,226.921Zm-32.3-1.086q.814-.407,2.443.814a25.061,25.061,0,0,1,4.885,8.142c-.814.271-1.9.543-2.714.814-1.086.271-2.171.543-2.986.814a73.859,73.859,0,0,1-1.9-8.957C237.212,226.649,237.212,226.106,237.755,225.835Zm32.57,70.839h0a8.681,8.681,0,0,0-5.971,2.171c-1.9,1.357-3.8,2.714-8.957,2.443h0a14.679,14.679,0,0,1-8.957-2.443,9.879,9.879,0,0,0-5.971-2.171H240.2c-5.7,0-6.243-8.685-6.243-9.771-.271-3.8,1.086-6.243,7.871-8.685a39.955,39.955,0,0,0,5.971-2.986c2.171-1.357,3.8-2.443,7.328-2.443,3.8,0,5.157,1.086,7.328,2.443a20.352,20.352,0,0,0,5.971,2.986c6.785,2.443,7.871,4.885,7.871,8.685h0C276.3,287.717,275.753,296.674,270.325,296.674Zm34.469-57c-1.629,4.614-7.6,11.942-11.4,13.028a17.955,17.955,0,0,1-6.243.814c-2.171,0-4.071.271-4.885,1.629l-.271.543.271.543c.271,1.629.543,3.257.814,5.157.543,7.6-4.614,14.385-6.514,16.556-1.9-1.628-4.071-2.443-6.514-3.528a33.511,33.511,0,0,1-5.428-2.714,14.36,14.36,0,0,0-9.228-2.986h0c-4.614,0-6.785,1.629-9.228,2.986a25.017,25.017,0,0,1-5.428,2.714,16.763,16.763,0,0,0-6.514,3.528c-1.9-2.171-7.057-8.957-6.514-16.556a17.042,17.042,0,0,1,.814-5.157l.271-.543-.271-.543c-.814-1.629-2.714-1.629-4.885-1.629a30.264,30.264,0,0,1-6.243-.814c-3.8-1.357-9.771-8.414-11.4-13.028-.543-1.628-.543-2.443-.271-2.443,1.357-2.171,17.1-2.714,20.356-1.086a11,11,0,0,1,2.443,1.357,21.639,21.639,0,0,0,4.343,2.171c4.071,1.628,7.6.271,11.128-.814a48.6,48.6,0,0,1,11.671-2.171c3.8,0,7.328.814,11.942,2.171,3.528,1.086,7.057,2.171,11.128.814a21.639,21.639,0,0,0,4.343-2.171c.814-.543,1.629-.814,2.443-1.357,3.257-1.628,18.728-1.357,20.356,1.086-.814,0-.543.814-1.086,2.443Z" transform="translate(-202.675 -222.296)"/><path class="b" d="M252.134,228.864h0c-.271,0-8.685-2.171-14.113-.271-2.986.814-6.514,2.986-7.6,6.243a6.281,6.281,0,0,0,1.357,5.7c.271.543.814.543,1.357.543a1.632,1.632,0,0,0,1.086-.271,1.718,1.718,0,0,0,.271-2.443,3.616,3.616,0,0,1-.814-2.443c.543-1.629,2.714-2.986,5.157-3.8,4.343-1.357,11.942.543,12.214.543a1.783,1.783,0,0,0,2.171-1.357A2.039,2.039,0,0,0,252.134,228.864Z" transform="translate(-155.443 -212.84)"/><path class="b" d="M232.928,239.7c0-.271-.271-.271-.271-.543s-.271-.271-.271-.543a2.952,2.952,0,0,0-4.071,0,.948.948,0,0,0-.271.543c0,.271-.271.271-.271.543s0,.271-.271.543v1.086c0,.271,0,.271.271.543,0,.271.271.271.271.543s.271.271.271.543a3.3,3.3,0,0,0,4.343,0,.948.948,0,0,0,.271-.543c0-.271.271-.271.271-.543s0-.271.271-.543v-1.086C233.2,239.971,233.2,239.7,232.928,239.7Z" transform="translate(-160.122 -195.72)"/></g><g transform="translate(1389.591 3650.694)"><path class="b" d="M384.209,255.591h0c-.271-.271-5.7-8.142-12.756-8.142a17.726,17.726,0,0,0-7.871,1.9,11,11,0,0,0-1.357-2.443c0-.271,0-.271.271-.543,2.171-10.857,9.228-24.427,9.5-24.427a2.5,2.5,0,0,0-.271-2.714c-.543-.814-1.9-.814-2.714-.543s-14.114,7.328-19,17.37a26.43,26.43,0,0,0-9.228-1.628,25.357,25.357,0,0,0-9.228,1.628c-4.885-10.042-18.185-17.1-19-17.37a2.161,2.161,0,0,0-2.714.543,2.088,2.088,0,0,0-.271,2.714c0,.271,7.328,13.842,9.5,24.427,0,.271,0,.271.271.543-.543.814-.814,1.628-1.357,2.443a17.726,17.726,0,0,0-7.871-1.9c-7.057,0-12.485,7.871-12.756,8.142a2.465,2.465,0,0,0,0,2.714c.271.271,5.7,8.142,12.756,8.142a14.607,14.607,0,0,0,5.971-1.086l2.443,18.727c0,8.414,5.157,16.013,11.128,20.627,1.086,5.428,6.785,12.756,9.771,16.285a2.464,2.464,0,0,0,1.9.814h0a2.932,2.932,0,0,0,1.9-.814c2.986-3.528,8.957-10.856,9.771-16.285,5.971-4.614,10.856-11.942,10.856-20.627l2.443-18.727a14.607,14.607,0,0,0,5.971,1.086c7.057,0,12.485-7.871,12.756-8.142A10.352,10.352,0,0,0,384.209,255.591Zm-20.085-28.227a95.452,95.452,0,0,0-5.428,14.928,23.4,23.4,0,0,0-4.885-3.8C355.982,234.149,360.325,230.078,364.125,227.364Zm-47.5,0c3.8,2.714,8.142,6.785,10.314,11.128a59.6,59.6,0,0,0-4.885,3.8A106.754,106.754,0,0,0,316.628,227.364Zm23.884,88.481a49,49,0,0,1-4.885-7.328,15.851,15.851,0,0,0,4.885,1.086,12.587,12.587,0,0,0,5.157-1.086C344.312,310.687,342.412,313.13,340.512,315.844Zm30.941-54.011h0a12.287,12.287,0,0,1-6.514-1.9,2.125,2.125,0,0,0-2.171-.271,2.041,2.041,0,0,0-1.357,1.9l-2.986,22.256v.271c0,10.314-9.228,18.727-15.471,20.356V295.76h1.357a2.443,2.443,0,1,0,0-4.885h-7.328a2.443,2.443,0,1,0,0,4.885h1.357v8.685c-6.242-1.9-15.471-10.042-15.471-20.356v-.271l-2.986-22.256a2.041,2.041,0,0,0-1.357-1.9c-.271,0-.543-.271-.814-.271a2.073,2.073,0,0,0-1.357.543,12.288,12.288,0,0,1-6.514,1.9c-2.986,0-5.971-2.714-7.871-4.614,1.629-1.9,4.614-4.885,7.871-4.885a11.832,11.832,0,0,1,7.328,2.443,2.111,2.111,0,0,0,2.171.543,2.447,2.447,0,0,0,1.628-1.629,20.72,20.72,0,0,1,39.626,0,2.447,2.447,0,0,0,1.629,1.629,2.111,2.111,0,0,0,2.171-.543c1.628-1.628,4.343-2.443,7.328-2.443s5.971,2.714,7.871,4.885C377.424,259.119,374.439,261.833,371.453,261.833Z" transform="translate(-296.95 -218.396)"/><path class="b" d="M306.5,239.4c0,5.7,8.414,5.7,8.414,0S306.5,233.7,306.5,239.4Z" transform="translate(-280.58 -189.72)"/><path class="b" d="M316.3,239.4c0,5.7,8.414,5.7,8.414,0S316.3,233.7,316.3,239.4Z" transform="translate(-263.782 -189.72)"/></g><g transform="translate(1303.915 3836.411)"><path class="b" d="M395.457,228.9a3.257,3.257,0,1,0,3.257,3.257A3.493,3.493,0,0,0,395.457,228.9Z" transform="translate(-380.488 -205.211)"/><path class="b" d="M470.707,285.93c-2.171-2.714-5.428-4.343-10.042-4.614-6.242-13.028-14.113-21.442-29.041-26.87,11.942-.543,17.913-1.086,26.327-6.785a32.4,32.4,0,0,0-16.556-12.214,34.226,34.226,0,0,0,9.228-10.585c-5.7-2.714-13.028-5.157-19.813-4.614h0c-9.5.814-18.456,5.7-25.241,14.385-8.685,1.9-15.2,6.785-17.1,13.3-1.9,6.243.814,13.571,8.414,19.27a13.231,13.231,0,0,0,0,6.514,11.707,11.707,0,0,0-5.971,7.057,12.793,12.793,0,0,0,.814,9.5c1.357,2.714,3.8,5.157,6.785,5.7,2.714.543,5.428-.543,8.142-2.986a55.054,55.054,0,0,0,8.414,7.057c-1.9,2.443-2.171,4.885-1.9,8.142a2.426,2.426,0,0,0,1.086,2.171,13,13,0,0,0,5.7,2.443,68.86,68.86,0,0,0,11.942,1.9c4.343.271,8.685,0,12.214-1.357,3.257-1.357,5.7-3.528,6.242-6.785l3.528-1.357c4.885,1.628,9.228,1.357,12.485-.271a11.483,11.483,0,0,0,6.242-8.414C473.693,292.444,473.15,288.916,470.707,285.93Zm-1.9,9.228a8.219,8.219,0,0,1-4.071,5.428,14,14,0,0,1-10.585-.543c-2.714,1.086-4.885,1.9-7.6,2.986a5.163,5.163,0,0,1-3.8,5.7c-2.714,1.086-6.514,1.357-10.585,1.086a60.587,60.587,0,0,1-11.128-1.629,18.854,18.854,0,0,1-3.528-1.357,9.048,9.048,0,0,1,0-2.714c1.086-2.443,2.171-2.986,4.343-4.614,2.171-.543,5.157-.271,7.871-.271a2.319,2.319,0,0,0,1.9-2.986c-2.986-5.971-2.986-10.857-1.357-13.3A4.781,4.781,0,0,1,433.8,280.5a13.984,13.984,0,0,1,7.057.814,2.027,2.027,0,0,0,2.714-1.357,2.24,2.24,0,0,0-1.357-2.714,17.937,17.937,0,0,0-9.228-.814,9.521,9.521,0,0,0-6.242,4.343c-2.171,3.8-2.171,8.685,0,14.385-2.443-.271-5.7-.271-8.414,1.357a79.923,79.923,0,0,1-11.4-9.771c-1.9,2.171-4.343,5.157-7.328,4.885a5.506,5.506,0,0,1-3.8-3.257,9.933,9.933,0,0,1-.543-6.243c1.9-3.528,3.528-4.343,6.785-5.7a14.227,14.227,0,0,1,0-10.585c-5.7-3.8-10.856-10.314-9.228-16.285,3.257-7.6,9.5-9.5,15.471-10.857,6.242-7.328,15.2-13.3,23.07-14.113a34.175,34.175,0,0,1,13.3,2.443h0c-4.343,5.428-9.771,7.871-15.742,10.857,8.414.814,18.185,3.257,23.342,8.957-11.4,5.157-21.985,3.257-32.3,2.443v5.971c23.07,5.7,31.755,14.113,38.541,30.127,4.071,0,8.142,1.086,9.228,3.257A8.652,8.652,0,0,1,468.807,295.158Z" transform="translate(-387.885 -220.172)"/></g><g transform="translate(1306.303 3349.49)"><path class="b" d="M23,347.043a2.443,2.443,0,1,0,4.885,0A2.443,2.443,0,1,0,23,347.043Z" transform="translate(39.688 -291.674)"/><path class="b" d="M11.6,347.043a2.443,2.443,0,1,0,4.885,0A2.443,2.443,0,1,0,11.6,347.043Z" transform="translate(20.147 -291.674)"/><path class="b" d="M101.132,372.055h0c-1.628-7.6-11.671-13.842-18.185-17.1v-.543A12.431,12.431,0,0,0,76.7,343.556a7.514,7.514,0,0,0,.271-2.443,12.742,12.742,0,0,0-12.756-12.756,14.792,14.792,0,0,0-5.971,1.357,12.484,12.484,0,0,0-9.771-4.614,13.139,13.139,0,0,0-9.771,4.343,11.134,11.134,0,0,0-2.986-.271,12.742,12.742,0,0,0-12.756,12.756v.271a12.5,12.5,0,0,0-9.771,12.214,13.624,13.624,0,0,0,.543,3.257C7.766,361.2,1.523,366.355.166,372.326a10.783,10.783,0,0,0,2.986,10.042c2.171,2.443,4.343,3.528,6.785,3.528,2.986,0,5.428-1.9,7.871-4.614,1.9,18.727,15.2,33.112,31.484,33.112,17.1,0,31.213-16.556,31.484-37.184,2.714,4.885,6.243,8.685,10.585,8.685,2.443,0,4.614-1.086,6.785-3.528C101.674,378.026,101.674,374.5,101.132,372.055ZM4.509,374.5h0c1.086-4.343,6.514-8.957,12.485-12.485l1.628,1.629c-5.971,3.8-12.485,8.957-13.842,14.113A4.7,4.7,0,0,1,4.509,374.5Zm14.113-5.157c-3.528,7.871-7.057,12.756-9.228,12.756a3.857,3.857,0,0,1-1.628-.543c0-.271-.271-.271-.271-.543h0c-1.357-3.528,2.986-8.957,11.671-14.656A11.543,11.543,0,0,0,18.622,369.34Zm30.4,35.284-3.528-4.071h6.785Zm1.357,5.428h0v-3.8l4.614-5.157a2.034,2.034,0,0,0,.271-1.357c-.271-.543-.543-.814-1.086-.814h-9.5c-.543,0-.814.272-1.086.814a1.193,1.193,0,0,0,.271,1.357l4.614,5.157v3.8c-14.656-1.086-26.327-16.285-26.327-34.741,0-1.9.271-4.071.271-5.971l1.628-4.071h1.086a14.792,14.792,0,0,0,5.971-1.357,13.754,13.754,0,0,0,10.857,5.428,13.917,13.917,0,0,0,9.228-3.528,13.15,13.15,0,0,0,7.057,1.9,15.053,15.053,0,0,0,9.228-3.528,11.763,11.763,0,0,0,5.157,1.086,20.95,20.95,0,0,0,4.071-.543,46.745,46.745,0,0,1,1.086,10.585C76.976,394.039,65.034,409.238,50.377,410.052Zm21.17-48.312a7.314,7.314,0,0,1-4.071-1.357l-2.443-1.629L63.405,361.2a7.208,7.208,0,0,1-5.971,2.986,7.415,7.415,0,0,1-5.157-2.171L49.563,359.3l-2.171,3.257a6.811,6.811,0,0,1-5.971,3.257,7.4,7.4,0,0,1-6.785-4.614l-1.628-4.071-3.257,2.986a7.8,7.8,0,0,1-4.885,1.9,7.328,7.328,0,0,1,0-14.656h0l4.614.272-1.357-4.071a5.976,5.976,0,0,1-.271-2.171,7.3,7.3,0,0,1,7.328-7.328,9.756,9.756,0,0,1,2.986.543l2.714,1.086,1.357-2.443a7.81,7.81,0,0,1,6.242-3.8,7.43,7.43,0,0,1,6.785,4.343l1.628,3.8,3.257-2.986a6.967,6.967,0,0,1,4.885-1.9,7.3,7.3,0,0,1,7.328,7.328,5.472,5.472,0,0,1-.814,2.986l-1.628,3.257,3.257,1.086a7.332,7.332,0,0,1,5.157,7.057A6.558,6.558,0,0,1,71.548,361.741Zm22.8,19.27h0c0,.271-.271.271-.271.543a3.857,3.857,0,0,1-1.628.543c-2.714,0-6.785-5.971-10.585-16.013C91.089,371.783,95.7,377.483,94.346,381.011Zm2.714-3.257c-1.628-5.971-10.042-11.942-16.556-15.742,0-.271-.271-.814-.271-1.086.271-.271.543-.814.814-1.086,7.328,4.071,15.2,9.771,16.285,14.928A6.215,6.215,0,0,1,97.06,377.754Z" transform="translate(0.097 -325.1)"/></g><g transform="translate(1489.944 3794.067)"><path class="b" d="M189.738,326.7h-1.9a29.334,29.334,0,0,0-22.256,10.314,44.437,44.437,0,0,0-32.027,0A28.916,28.916,0,0,0,111.3,326.7h-1.9v1.9a29.033,29.033,0,0,0,8.142,20.085,33.289,33.289,0,0,0-8.142,21.984c0,20.085,17.913,36.369,39.9,36.369s39.9-16.285,39.9-36.369a34.367,34.367,0,0,0-8.142-21.984A29.033,29.033,0,0,0,189.2,328.6Zm-76.267,3.8a26.129,26.129,0,0,1,16.828,8.142c-1.9,1.086-3.528,2.171-5.428,3.257h0a15.056,15.056,0,0,0-2.171,1.628l-.543.543c-.543.271-.814.814-1.357,1.086l-.543.543A24.5,24.5,0,0,1,113.471,330.5Zm72.739,39.9c0,17.913-16.285,32.841-36.369,32.841h0c-20.085,0-36.369-14.656-36.369-32.841a30.452,30.452,0,0,1,8.685-21.17,16.384,16.384,0,0,1,2.171-2.171c.271-.271.543-.271.543-.543a15.514,15.514,0,0,0,2.171-1.9c.271,0,.271-.272.543-.272a16.476,16.476,0,0,0,2.714-1.9.266.266,0,0,0,.271-.271l3.257-1.629a39.289,39.289,0,0,1,16.013-3.257,44.341,44.341,0,0,1,16.013,3.257l3.257,1.629a.266.266,0,0,1,.271.271,9.748,9.748,0,0,1,2.714,1.9.948.948,0,0,0,.543.272,14.916,14.916,0,0,1,2.443,1.9c.271.271.543.271.543.543a17.553,17.553,0,0,0,2.443,2.171C182.953,355.2,186.21,362.526,186.21,370.4Zm-6.785-24.427h0l-.543-.543-1.357-1.357-.543-.543c-.814-.543-1.357-1.086-2.171-1.628h0c-1.629-1.086-3.528-2.171-5.428-3.257A24.905,24.905,0,0,1,186.21,330.5,25.9,25.9,0,0,1,179.425,345.97Z" transform="translate(-109.4 -326.7)"/><path class="b" d="M135.785,342.8c-10.042,0-18.185,6.514-18.185,14.656s8.142,14.656,18.185,14.656,18.185-6.514,18.185-14.656S145.827,342.8,135.785,342.8Zm0,25.513c-8.142,0-14.656-4.885-14.656-10.857s6.514-10.857,14.656-10.857,14.656,4.885,14.656,10.857S143.927,368.313,135.785,368.313Z" transform="translate(-95.344 -299.103)"/><path class="b" d="M121,349.357a1.765,1.765,0,1,0,3.528,0A1.765,1.765,0,1,0,121,349.357Z" transform="translate(-89.516 -291.003)"/><path class="b" d="M126.3,349.357a1.765,1.765,0,1,0,3.528,0C130.1,346.914,126.3,346.914,126.3,349.357Z" transform="translate(-80.431 -291.003)"/><path class="b" d="M126.66,341.928c0-5.971-8.957-5.971-8.957,0C117.432,347.9,126.66,347.9,126.66,341.928Z" transform="translate(-95.176 -308.273)"/><path class="b" d="M127.7,341.928c0,5.971,8.957,5.971,8.957,0S127.7,335.957,127.7,341.928Z" transform="translate(-78.031 -308.273)"/></g><g transform="translate(1404.083 3947.587)"><path class="b" d="M357.32,377.416h0a84.591,84.591,0,0,1-2.171-12.214c-1.357-10.042-3.528-19.813-11.128-24.97a7.094,7.094,0,0,0-1.9-7.871A5.85,5.85,0,0,0,337.506,331a4.992,4.992,0,0,0-4.614-3.257,6.331,6.331,0,0,0-4.885,1.629,6.586,6.586,0,0,0-6.514-2.171,4.941,4.941,0,0,0-3.528,2.714c-1.357,2.443-1.357,5.971.271,9.5-8.414,4.885-10.857,15.2-12.214,25.513-.814,5.157-1.629,8.957-2.171,12.214-1.357,5.428-1.9,8.685.271,12.485,2.443,4.343,12.214,15.2,26.6,15.2s23.884-10.856,26.6-15.2C359.491,386.1,358.677,382.844,357.32,377.416ZM332.621,331a2.355,2.355,0,0,1,2.171,2.443l.271,3.528,2.443-2.443a2.5,2.5,0,0,1,2.714.271c.543.272,1.628,1.629,1.086,3.8a12.063,12.063,0,0,0-9.5,1.628,11.725,11.725,0,0,0-4.885,5.428,19.254,19.254,0,0,1-5.428-7.057c-1.086-2.986-1.357-5.7-.543-7.328h0c.271-.271.543-.814,1.086-1.086h.814a3.747,3.747,0,0,1,3.528,2.714l1.629,4.885,1.357-4.885A3.841,3.841,0,0,1,332.621,331Zm-2.986,20.356v-2.986c0-1.357,1.357-3.8,4.071-5.428,1.357-.814,4.071-2.171,7.057-1.086a.266.266,0,0,1,.271.271c7.6,3.8,9.771,13.571,11.128,23.613.814,5.428,1.628,9.228,2.171,12.485,1.086,5.157,1.628,7.328,0,10.042v.271c-2.171,3.8-11.128,13.571-23.613,13.571-12.756,0-21.713-10.042-23.613-13.571-1.629-2.714-1.086-5.157,0-10.314a82.552,82.552,0,0,0,2.171-12.485c1.357-9.5,3.257-19,10.314-23.07A24.239,24.239,0,0,0,326.921,350Z" transform="translate(-302.662 -327.039)"/><path class="b" d="M311.393,347.985c-1.086,1.357-2.443,3.257-2.171,5.428.271,2.714,6.785,12.214,8.957,13.571a1.632,1.632,0,0,0,1.086.271h.271a1.632,1.632,0,0,0,1.086-.271c2.171-1.357,8.685-10.857,8.957-13.571.271-2.171-1.086-4.071-2.171-5.428-.271-.271-.271-.271-.271-.543a23.423,23.423,0,0,0-4.343-4.885,5.639,5.639,0,0,0-3.257-1.357h-.271a5.957,5.957,0,0,0-3.257,1.357,18.174,18.174,0,0,0-4.343,4.885Zm1.086,4.885a7.287,7.287,0,0,1,1.629-3.257c.271-.271.271-.543.543-.543A25.343,25.343,0,0,1,318.179,345a1.681,1.681,0,0,1,1.086-.543h0c.271,0,.543.271,1.086.543a15.751,15.751,0,0,1,3.528,4.071l.271.271.271.271c.814,1.086,1.629,2.171,1.629,3.257-.271,1.357-4.885,8.685-6.785,10.857C317.636,361.827,312.751,354.5,312.479,352.871Z" transform="translate(-291.477 -302.766)"/><path class="b" d="M312.885,342.943a2.443,2.443,0,1,0-2.443,2.443,1.935,1.935,0,0,0,1.629-.814A2.346,2.346,0,0,0,312.885,342.943Z" transform="translate(-293.511 -303.966)"/><path class="b" d="M318.543,345.385a2.443,2.443,0,1,0-2.443-2.443A2.433,2.433,0,0,0,318.543,345.385Z" transform="translate(-279.627 -303.966)"/></g><g transform="translate(1590.721 3712.08)"><path class="b" d="M460.345,355.507c8.142-4.614,8.957-9.771,7.6-16.013-2.171-9.228-21.442-12.214-43.969-6.785-3.528.814-6.514,1.629-9.771,2.714-.543,0-.814,0-.814.271-.271,0-.543.271-.814.543-16.285,5.971-26.6,14.656-24.97,22.256.814,3.528,2.171,7.6,7.328,9.771h.271a10,10,0,0,0-1.357,4.614c0,12.756,7.057,19,47.226,19,39.9,0,47.226-6.514,47.226-19C488.3,365.006,476.9,358.492,460.345,355.507Zm-64.325,9.5c-3.257-1.357-4.343-3.528-5.157-7.328-.814-3.528,2.714-7.6,8.142-11.128h.543c5.157-.271,12.485.271,13.028,2.714a1.488,1.488,0,0,0,1.629,1.086h.543a1.846,1.846,0,0,0,1.086-2.171c-1.086-3.8-6.242-4.885-10.585-5.157a88.708,88.708,0,0,1,8.957-3.8c2.171-.271,13.571-1.9,14.928,4.071a1.72,1.72,0,0,0,1.628,1.357h.271a1.868,1.868,0,0,0,1.357-2.171c-.814-3.8-3.528-5.7-6.785-6.514a67.823,67.823,0,0,1,7.871-1.357h.543s13.571-1.086,14.928,5.7a1.72,1.72,0,0,0,1.629,1.357h.271a1.868,1.868,0,0,0,1.357-2.171,9.574,9.574,0,0,0-4.071-5.971c8.414.543,14.656,2.443,15.742,6.514,1.086,5.157,1.086,9.228-10.042,14.113h-.271a4.75,4.75,0,0,0-1.357-.271h-.814c-3.528-.271-7.328-.543-11.128-.543-4.071,0-8.142.271-11.942.543h-.543a1,1,0,0,0-.814.271c-14.114,1.629-25.513,5.7-30.67,11.128C396.834,365.549,396.563,365.006,396.02,365.006Zm45.055,23.342c-43.7,0-43.7-7.871-43.7-15.471,0-3.8,4.614-7.871,12.485-10.585a.841.841,0,0,1,.543.271c5.7.814,14.113,3.528,14.385,6.785a1.751,1.751,0,0,0,1.629,1.629h0a1.815,1.815,0,0,0,1.628-1.9c-.271-4.614-6.785-7.328-11.671-8.685a118.788,118.788,0,0,1,11.942-2.171h0s16.285.814,16.285,8.685a1.751,1.751,0,0,0,1.628,1.628,1.564,1.564,0,0,0,1.629-1.628c0-4.885-3.257-7.6-7.057-9.5,3.8,0,7.6.271,11.128.543h0s16.013,2.443,15.471,10.856a1.815,1.815,0,0,0,1.629,1.9h0a1.751,1.751,0,0,0,1.628-1.629c.271-3.528-1.357-5.971-3.8-8.142,10.585,2.986,16.828,7.6,16.828,12.214C484.772,380.205,484.772,388.348,441.075,388.348Z" transform="translate(-387.438 -330.004)"/><path class="b" d="M409.3,344.2Z" transform="translate(-349.963 -305.669)"/></g><g transform="translate(1267.291 3502.248)"><path class="b" d="M132.885,13.9h0a1.632,1.632,0,0,0-1.086.271,13.91,13.91,0,0,0-7.6,12.756,3.858,3.858,0,0,0,.543,1.628,1.994,1.994,0,0,0,1.628.543A3.858,3.858,0,0,0,128,28.556a1.994,1.994,0,0,0,.543-1.628,10.081,10.081,0,0,1,5.428-8.957h0a2.191,2.191,0,0,0,1.086-2.443A2.064,2.064,0,0,0,132.885,13.9Z" transform="translate(-76.634 6.999)"/><path class="b" d="M120.085,11h0a1.632,1.632,0,0,0-1.086.271,13.91,13.91,0,0,0-7.6,12.756,3.858,3.858,0,0,0,.543,1.628,1.994,1.994,0,0,0,1.628.543,3.858,3.858,0,0,0,1.628-.543,1.994,1.994,0,0,0,.543-1.628,10.081,10.081,0,0,1,5.428-8.957h0a2.191,2.191,0,0,0,1.086-2.443A2.7,2.7,0,0,0,120.085,11Z" transform="translate(-98.575 2.028)"/><path class="b" d="M228.336,43.112a56.42,56.42,0,0,0-.814-6.243,13.622,13.622,0,0,1-.543-3.257h0a2.064,2.064,0,0,0-2.171-1.628h0a1.935,1.935,0,0,0-1.629.814,2.23,2.23,0,0,0-.271,1.9,11.542,11.542,0,0,1,.543,2.986l.814,5.7c.543,7.871-1.628,13.571-5.7,17.642-3.8,4.071-9.5,6.243-16.013,6.243a21.781,21.781,0,0,1-10.585-2.443,32.936,32.936,0,0,0,1.9-13.028,54.5,54.5,0,0,0-7.328-24.156c-.271-.543-.814-1.086-1.086-1.628a35.788,35.788,0,0,1,7.057-10.857,14.477,14.477,0,0,1,10.314-4.614c5.971,0,11.128,4.071,14.928,10.585a2.188,2.188,0,0,0,3.8-2.171C217.209,11.9,210.966,6.2,202.824,6.2h0a18.959,18.959,0,0,0-13.3,5.971,39.133,39.133,0,0,0-7.057,10.042c-3.8-4.343-8.685-7.057-14.656-7.057h0c-5.7,0-10.585,2.986-14.656,7.057A39.131,39.131,0,0,0,146.1,12.171,18.959,18.959,0,0,0,132.8,6.2h0c-8.142,0-14.385,5.7-18.728,12.756s-6.785,16.285-7.328,24.156c-.543,8.685,2.171,16.013,6.785,20.9a26.838,26.838,0,0,0,19.27,7.6,27.335,27.335,0,0,0,12.485-2.986,21.4,21.4,0,0,0,3.257,4.071,28.232,28.232,0,0,0,38.541,0,26.686,26.686,0,0,0,3.257-4.071,28.2,28.2,0,0,0,12.485,2.986,26.838,26.838,0,0,0,19.27-7.6C226.437,59.126,229.151,52.069,228.336,43.112ZM167.268,76.225c-6.514,0-12.214-2.171-16.013-6.243A16.557,16.557,0,0,1,148,65.639c0-.271,0-.543-.271-.543l-.271-.271a21.584,21.584,0,0,1-1.9-12.214h0a3.858,3.858,0,0,0-.543-1.628,1.641,1.641,0,0,0-1.628-.814,3.858,3.858,0,0,0-1.628.543,1.641,1.641,0,0,0-.814,1.628,28.693,28.693,0,0,0,1.9,13.028,23.337,23.337,0,0,1-10.585,2.443c-6.514,0-12.214-2.171-16.013-6.243S110,51.8,110.543,43.926a54.449,54.449,0,0,1,6.785-22.256c3.8-6.514,8.957-10.585,14.928-10.585A14.477,14.477,0,0,1,142.57,15.7a35.787,35.787,0,0,1,7.057,10.857c-.271.543-.814,1.086-1.086,1.628a57.429,57.429,0,0,0-2.986,5.7,2.246,2.246,0,1,0,4.071,1.9,30.942,30.942,0,0,1,2.714-5.157c3.8-6.514,8.957-10.585,14.928-10.585,5.157,0,9.5,2.986,13.028,7.6h0c0,.271.271.543.543.814a15.153,15.153,0,0,1,1.357,2.171,54.449,54.449,0,0,1,6.785,22.256,27.555,27.555,0,0,1-1.9,12.214l-.271.271a.948.948,0,0,1-.271.543,13.064,13.064,0,0,1-3.257,4.343A23.612,23.612,0,0,1,167.268,76.225Z" transform="translate(-106.675 -6.2)"/><path class="b" d="M142.745,12.762A2.191,2.191,0,0,0,143.83,15.2a10.081,10.081,0,0,1,5.428,8.957,3.858,3.858,0,0,0,.543,1.628,1.994,1.994,0,0,0,1.628.543,3.858,3.858,0,0,0,1.628-.543,1.994,1.994,0,0,0,.543-1.628A14.411,14.411,0,0,0,146,11.4a1.632,1.632,0,0,0-1.086-.271h0C143.83,10.862,143.016,11.676,142.745,12.762Z" transform="translate(-44.967 2.166)"/><path class="b" d="M148.3,15.271a2.171,2.171,0,1,0,4.343,0,2.335,2.335,0,0,0-2.171-2.171A2.141,2.141,0,0,0,148.3,15.271Z" transform="translate(-35.324 5.628)"/><path class="b" d="M122.071,19.1a2.335,2.335,0,0,0-2.171,2.171,2.171,2.171,0,0,0,4.343,0A2,2,0,0,0,122.071,19.1Z" transform="translate(-84.005 15.912)"/></g><path class="b" d="M337.9,15.344a3.641,3.641,0,0,0-.265-2.911c-.794-1.059-2.117-1.852-4.5-2.382l-2.911-.529a5.338,5.338,0,0,0-1.059-3.176c-.794-1.059-3.176-1.852-7.41-2.117-.265-.794-.265-1.588-.529-2.117a.924.924,0,0,0-.265-.529c-2.911-3.44-9.792-.265-11.115.265A4.832,4.832,0,0,0,307.2,6.61c0,.265,0,.265.265.529,2.911,5.293,7.675,26.2,8.733,35.2,1.059,9.792,1.059,39.7,1.059,48.429l-2.646,6.881c-.265,1.059,0,2.117,1.059,2.382a1.636,1.636,0,0,0,1.853-.529l.529-.529,1.853-4.5v6.351a1.809,1.809,0,0,0,1.853,1.853h0c.529,0,.794-.265,1.323-.529a2.022,2.022,0,0,0,.529-1.323l-.265-7.675h.265l.265,11.644a1.809,1.809,0,0,0,1.852,1.852h0c.529,0,.794-.265,1.323-.529a2.022,2.022,0,0,0,.529-1.323l-.265-10.586,1.588,4.5a2.067,2.067,0,0,0,1.059,1.059,1.181,1.181,0,0,0,1.323,0c.265,0,.529-.265.794-.529a2.519,2.519,0,0,0,.529-1.853l-2.382-6.616c-.265-4.764-1.059-28.317-.529-35.991C329.695,49.482,335.781,20.9,337.9,15.344ZM320.7,62.714l4.763.265c0,8.733.529,20.113.794,26.464H320.7C320.961,84.68,320.961,73.565,320.7,62.714Zm13.5-48.429c-2.117,5.822-8.2,34.933-8.469,40.226a35.906,35.906,0,0,1-.265,4.764l-5.028-.265c-.265-7.145-.265-12.438-.794-15.879V42.6c0-6.616,6.881-23.818,9.262-29.375l3.176.529C333.4,14.02,333.929,14.285,334.194,14.285ZM317.521,21.43a1.77,1.77,0,0,0,1.588,1.852c.529,0,1.059,0,1.323-.529a2.022,2.022,0,0,0,.529-1.323l.794-13.5a19.645,19.645,0,0,1,4.234.794l.265.265v1.323c-.529,1.323-5.558,12.438-8.2,21.965-1.853-9.792-5.028-21.965-7.41-26.729a.569.569,0,0,1,.529-.529h0c2.382-1.059,5.557-1.852,6.616-1.323a15.846,15.846,0,0,1,.529,3.176Z" transform="translate(1212.341 3963.51)"/><path class="b" d="M57.2,150.913a13.2,13.2,0,0,0,5.853-1.322c5.475-2.643,7.552-9.44,7.552-9.628a1.655,1.655,0,0,0-.944-1.888c-.189-.189-6.8-2.643-12.271.189a13.249,13.249,0,0,0-4.531,3.965,109.04,109.04,0,0,0-1.51-13.215,12.631,12.631,0,0,0,7.929-3.4h0c3.587-3.587,3.587-9.44,3.587-10.006a.694.694,0,0,0-.189-.566,1.42,1.42,0,0,0-1.322-.944c-.189,0-5.286-.189-9.062,2.643-.189-.755-.378-1.322-.566-1.888-2.265-5.853-9.062-8.5-9.44-8.684a1.379,1.379,0,0,0-1.888.755c-.189.189-3.209,6.8-.944,12.649v.189c.189.189.189.566.378.755-4.153,0-7.74,2.643-8.307,3.021a14.49,14.49,0,0,0-8.684,1.133v-.944c-.566-6.23-6.419-10.761-6.608-10.95a1.717,1.717,0,0,0-2.077.189c-.189.189-5.1,5.664-4.531,11.894a6.708,6.708,0,0,0,.378,1.888,15.772,15.772,0,0,0-9.251,1.7c-.566.189-.755.755-.755,1.51,0,.566,2.832,6.419,7.74,8.118a10.69,10.69,0,0,0,3.4.566,18.979,18.979,0,0,0,5.286-.944,74.327,74.327,0,0,0,4.72,12.46,14.09,14.09,0,0,0-5.853-1.51h0c-6.041,0-10.761,5.1-10.95,5.475a1.737,1.737,0,0,0-.189,1.888c.189.378,5.1,5.475,11.139,5.475h0c3.965,0,7.552-2.266,9.44-3.965a116.272,116.272,0,0,0,6.608,10.761,12.362,12.362,0,0,0-5.286-.566c-6.041.755-10.195,6.419-10.384,6.608a1.717,1.717,0,0,0,.189,2.077c.189.189,4.72,3.965,10.195,3.965h1.322a15.575,15.575,0,0,0,9.062-5.1c2.832,3.4,5.475,6.23,7.929,8.684h0l.189.189.189.189h.566a.694.694,0,0,0,.566-.189h.189c.189,0,.189-.189.378-.189h0c0-.189.189-.189.189-.378v-.189h0c1.133-3.4,2.265-7.174,3.209-11.327a18.37,18.37,0,0,0,6.23,1.133,10.762,10.762,0,0,0,4.153-.755c5.664-2.077,8.5-8.5,8.684-8.684a1.379,1.379,0,0,0-.755-1.888c-.189-.189-6.419-3.4-12.271-1.322a14.114,14.114,0,0,0-4.531,2.832q.85-5.947,1.133-12.46A39.33,39.33,0,0,1,57.2,150.913ZM15.292,157.9h0c-3.209,0-6.23-2.077-7.74-3.209,1.51-1.322,4.342-3.4,7.74-3.4h0c3.209,0,6.041,2.077,7.552,3.209C21.333,155.822,18.5,157.9,15.292,157.9Zm11.894,18.879c-3.209.378-6.419-1.322-7.929-2.265a12.149,12.149,0,0,1,7.174-4.153c3.209-.378,6.419,1.322,7.929,2.265A12.148,12.148,0,0,1,27.186,176.778ZM57.392,163c3.021-1.133,6.419-.189,8.307.566-.944,1.7-3.021,4.531-6.041,5.664h0c-3.021,1.133-6.419.189-8.307-.566A11.156,11.156,0,0,1,57.392,163Zm1.322-21.9c2.832-1.51,6.419-.944,8.307-.378a12.3,12.3,0,0,1-5.475,6.419c-2.832,1.51-6.419.944-8.307.378C54.183,145.627,55.882,142.418,58.714,141.1ZM44.932,179.609c-1.888-1.888-3.776-4.153-5.853-6.419a15.57,15.57,0,0,0,7.74-6.608c2.832-5.475.566-11.894.378-12.271a1.558,1.558,0,0,0-1.888-.944c-.378,0-6.985,1.888-9.817,7.363a13.2,13.2,0,0,0-1.322,5.853c-2.265-3.4-4.531-6.985-6.8-10.95,2.454-.755,6.23-2.265,8.684-5.664a10.172,10.172,0,0,0,1.322-2.454l2.265,1.7a14.065,14.065,0,0,0,6.608,1.51,19.019,19.019,0,0,0,3.587-.378A117.616,117.616,0,0,1,44.932,179.609Zm-6.608-17.558c1.51-2.832,4.72-4.531,6.419-5.286.378,1.888.944,5.475-.566,8.307s-4.72,4.531-6.419,5.286A11.784,11.784,0,0,1,38.325,162.052ZM19.445,136.565h.566a12.606,12.606,0,0,0,7.74-2.265h0a14.3,14.3,0,0,0,4.531-7.363,13.022,13.022,0,0,0,7.363,4.531,5.226,5.226,0,0,0,1.7.189,16.143,16.143,0,0,0,6.8-1.888,85.475,85.475,0,0,1,1.322,11.705,12.239,12.239,0,0,0-3.965-3.587,15.615,15.615,0,0,0-9.44-1.322H35.87c-.378,0-7.174,1.133-10.572,6.041a9.89,9.89,0,0,0-1.888,4.909C22.089,144.117,20.767,140.53,19.445,136.565Zm8.684,7.929c1.888-2.643,5.1-3.965,6.985-4.531v1.322a12.464,12.464,0,0,1-.189,2.643,8.553,8.553,0,0,1-1.51,4.153h0c-1.888,2.643-5.1,3.965-6.985,4.531C26.242,150.724,26.242,147.137,28.13,144.494Zm10.006-.755c0-.755.189-1.322.189-2.077v-.189a7.079,7.079,0,0,0-.189-2.077h0a9.931,9.931,0,0,1,6.041,1.133h0c2.832,1.51,4.342,4.72,5.1,6.608-1.888.378-5.475.755-8.307-.944a6.6,6.6,0,0,1-2.832-2.454Zm21.522-26.808c-.189,1.7-.755,4.531-2.454,6.23h0a10.439,10.439,0,0,1-6.23,2.643,19.7,19.7,0,0,1,.944-3.965h0c.189-.189.189-.378.378-.566a.185.185,0,0,1,.189-.189c.378-.566.755-.944,1.133-1.51C55.127,117.686,57.959,117.12,59.658,116.931Zm-16.991-7.552a13.17,13.17,0,0,1,6.23,6.23,8.8,8.8,0,0,1,.566,3.965h0c-.189.378-.378.566-.378.944,0,.189-.189.189-.189.378s-.189.378-.189.566,0,.189-.189.378c0,.189-.189.378-.189.566s0,.189-.189.378a.694.694,0,0,1-.189.566v.378c-.189-.189-.378-.378-.566-.378h0c-.189-.189-.378-.378-.566-.378l-.189-.189c-.189-.189-.566-.378-.755-.566s-.378-.189-.566-.378a.659.659,0,0,1-.378-.189c-.189-.189-.378-.189-.566-.378a.185.185,0,0,1-.189-.189,8.716,8.716,0,0,1-1.7-2.832h0A12.67,12.67,0,0,1,42.667,109.379ZM41.345,123.35c.566.189.944.189,1.51.378l1.133.566.189.189c.378.189.566.378.944.566l.189.189c.189.189.566.378.755.566l.378.378.189.189.378.378c-1.51.755-4.153,1.888-6.608,1.51s-4.531-2.454-5.664-3.776C36.248,124.1,38.7,122.972,41.345,123.35Zm-11.894,2.643a10,10,0,0,1-3.4,5.853c-2.077,1.51-4.909,1.7-6.608,1.7a11.043,11.043,0,0,1,1.133-2.832c0-.189.189-.189.189-.378a3.949,3.949,0,0,1,.755-1.133c0-.189.189-.189.378-.378.378-.378.755-.944,1.322-1.133C25.109,126.182,27.752,125.993,29.451,125.993ZM15.481,115.8c1.51,1.51,3.965,4.342,4.153,7.74a10.454,10.454,0,0,1-.378,3.4l-.189.189c-.189.189-.378.378-.378.566s-.189.189-.189.378c-.189.378-.378.566-.566.944,0,.189-.189.189-.189.378-.189.189-.189.378-.378.566,0,.189-.189.189-.189.378s-.189.378-.189.566a.185.185,0,0,1-.189.189h0a9.456,9.456,0,0,0-1.322-1.51l-.189-.189a10.373,10.373,0,0,0-1.7-1.322h0a11.333,11.333,0,0,1-1.322-3.776A17.785,17.785,0,0,1,15.481,115.8Zm-6.8,18.879c-2.454-.755-4.153-3.021-5.1-4.531,1.7-.566,4.342-1.322,6.8-.566a3.8,3.8,0,0,1,1.51.755,5.006,5.006,0,0,1,1.133.944l.189.189c.378.378.566.755.944.944l.189.189c.189.378.566.566.755.944a.185.185,0,0,0,.189.189.185.185,0,0,0,.189.189A8.975,8.975,0,0,1,8.684,134.677Z" transform="translate(1600.937 3197.197)"/><g transform="translate(1129.975 3552.759)"><path class="b" d="M90.026,259.014l-2.382-2.382,2.382-2.382a1.97,1.97,0,0,0,.265-2.382c-.529-.529-9.792-12.7-25.935-15.085-1.588-3.176-7.939-14.82-19.848-15.085-10.586,0-32.816,10.056-41.813,18.79a2.058,2.058,0,0,0-.529,2.117,1.646,1.646,0,0,0,1.588,1.059c1.852,0,5.028,1.059,7.939,2.382C7.457,251.075,1.9,260.6,1.9,271.188c0,12.7,5.293,18.79,11.644,25.141,3.44,3.7,8.2,4.764,12.438,5.822,3.44.794,6.881,1.588,9.792,3.7.265.265.529.265,1.059.265h0c.529,0,.794-.265,1.323-.529a1.639,1.639,0,0,0,.265-2.117s-3.97-7.145-.265-10.586c5.293-5.293,4.234-17.466,4.234-18a1.787,1.787,0,0,0-1.059-1.588,2.324,2.324,0,0,0-1.852.265c-5.293,5.028-11.909,10.321-13.5,10.586-1.852,0-5.557-3.7-5.557-7.41s4.234-11.115,9.262-11.115c3.44,0,8.469,2.117,12.174,3.44,3.176,1.323,5.028,2.117,6.351,2.117h0c1.588,2.117,2.382,3.97,2.382,5.293,0,.529,0,.529-.265.794a1.6,1.6,0,0,0-.265,2.117,1.646,1.646,0,0,0,1.588,1.059h0a5.653,5.653,0,0,0,4.5-2.117,14.487,14.487,0,0,0,2.911-5.293h7.145c11.38,0,22.759-11.115,23.288-11.644a2.021,2.021,0,0,0,.529-1.323C90.555,259.808,90.29,259.279,90.026,259.014ZM59.857,236.52h-.794a48.909,48.909,0,0,0-6.087.265c-2.911-5.558-10.85-8.469-16.672-10.056a35.142,35.142,0,0,1,7.939-1.323C52.447,225.67,57.739,232.55,59.857,236.52Zm-24.876,4.5c0-.265-.265-.265-.265-.529-2.646-2.646-10.85-5.293-15.614-6.881a93.128,93.128,0,0,1,10.586-4.764c4.234.529,15.349,3.176,19.583,8.2A143.854,143.854,0,0,0,34.98,241.019ZM14.6,236.255h0c5.028,1.323,13.5,4.234,16.672,6.087a46.061,46.061,0,0,0-8.733,4.764c-2.382-1.323-9-5.028-14.555-6.351C10.1,239.166,12.221,237.843,14.6,236.255Zm69.071,21.7,2.382,2.382c-3.176,2.911-11.38,9.262-19.319,9.262H60.386a53.44,53.44,0,0,0,.794-9.262,1.852,1.852,0,0,0-3.7,0c0,3.176-.529,11.38-2.911,15.085-1.323-6.351-11.115-15.349-12.174-16.408a1.871,1.871,0,1,0-2.646,2.646c1.323,1.323,2.911,2.911,4.5,4.764-.265,0-.529-.265-.794-.265-4.234-1.588-9.262-3.7-13.5-3.7-7.675,0-12.967,9.527-12.967,14.82,0,5.557,5.293,11.115,9.262,11.115,2.646,0,8.469-4.764,12.967-8.733-.265,3.7-.794,8.733-3.176,11.115-3.176,3.176-2.911,7.145-2.117,10.321a61.784,61.784,0,0,0-6.616-1.852c-3.97-1.059-7.939-1.852-10.586-4.764C10.9,288.654,6.134,283.1,6.134,271.982c0-10.321,6.087-19.583,9.792-23.553,1.323.794,2.646,1.323,3.7,1.852-5.822,4.764-9.792,10.85-9.792,18,0,19.848,9.792,25.406,10.056,25.406a.972.972,0,0,0,.794.265h0a1.646,1.646,0,0,0,1.588-1.059,1.569,1.569,0,0,0-.794-2.382s-8.2-4.764-8.2-22.23c0-16.937,27.258-27.523,46.048-27.523,14.026,0,23.818,9.262,26.993,12.7l-2.382,2.382C82.88,256.1,82.88,257.162,83.674,257.956Z" transform="translate(-1.9 -221.7)"/><path class="b" d="M30.487,233.408a2.134,2.134,0,0,0,.794-2.382,1.817,1.817,0,0,0-2.382-.794c-.265,0-4.5,2.646-4.5,10.85s4.5,10.586,4.5,10.85a.972.972,0,0,0,.794.265h0a1.886,1.886,0,0,0,1.588-.794,1.724,1.724,0,0,0-.529-2.382S28.1,247.17,28.1,241.348C27.576,235.261,30.222,233.673,30.487,233.408Z" transform="translate(35.144 -208.003)"/><path class="b" d="M28.4,236.423c0,5.028,7.41,5.028,7.41,0C35.81,231.659,28.4,231.659,28.4,236.423Z" transform="translate(41.73 -203.343)"/></g><g transform="translate(1136.198 3306.264)"><path class="b" d="M338.255,30.351h0c-1.92-5.212-5.761-9.327-11.522-12.071a.269.269,0,0,1,.274-.274,1.838,1.838,0,0,0-.823-2.195c-.274-.274-8.23-4.115-17.283,5.761a11.389,11.389,0,0,0-8.23-2.195,1.515,1.515,0,1,0,.274,3.018,11.529,11.529,0,0,1,6.035,1.372c-7.681,10.425-2.743,17.832-2.469,18.106a1.425,1.425,0,0,0,1.1.549h.274a1.008,1.008,0,0,0,.823-.274.269.269,0,0,0,.274-.274c3.841,4.938,8.5,8.23,13.991,9.327a20.762,20.762,0,0,0,4.115.274,23.622,23.622,0,0,0,12.071-3.292,2.739,2.739,0,0,0,1.1-1.372C339.352,44.891,341.273,37.758,338.255,30.351Zm-31.823,8.23c-.823-2.469-1.372-7.407,4.115-13.991h0c4.389-5.487,8.779-6.584,11.248-6.584h1.372c-2.195,3.292-4.115,3.841-4.664,4.115a1.3,1.3,0,0,0-1.372,1.372,1.7,1.7,0,0,0,.549,1.92,7.588,7.588,0,0,1,2.469,7.407,7.554,7.554,0,0,1-7.681-1.1,1.69,1.69,0,0,0-1.92-.274,1.852,1.852,0,0,0-1.1,1.646C309.725,33.917,309.176,36.112,306.433,38.581Zm30.177,1.646a24.826,24.826,0,0,0-4.938-6.31,1.564,1.564,0,1,0-1.92,2.469,19.668,19.668,0,0,1,5.487,8.5,21.623,21.623,0,0,1-7.956-2.195,1.657,1.657,0,0,0-1.372,3.018,21.577,21.577,0,0,0,6.035,1.92,23.9,23.9,0,0,1-10.15.823h0c-4.664-.823-8.779-3.566-12.071-8.23a9.4,9.4,0,0,0,2.743-4.664c4.938,2.743,9.6,0,9.876,0l.823-.823c0-.274,1.646-5.487-1.646-9.876a11.054,11.054,0,0,0,3.841-3.566,20.783,20.783,0,0,1,10.15,10.425A18.716,18.716,0,0,1,336.609,40.227Z" transform="translate(-246.628 25.89)"/><path class="b" d="M320.838,21.8h0c-3.566-4.664-13.442-4.389-21.124.823-13.168,8.779-14.54,26.61-14.814,27.159v.274h0V50.6h0c0,.274.274.274.274.549h0c.274.274,3.566,3.018,9.6,3.018,4.389,0,9.876-1.372,16.734-6.31,15.088-10.973,10.7-22.77,9.876-24.69C321.386,22.622,321.112,22.348,320.838,21.8ZM301.36,25.091h0a19.949,19.949,0,0,1,10.973-3.566c2.743,0,4.938.823,5.761,1.92,1.646,2.195,0,7.407-9.053,15.088h0a50.588,50.588,0,0,1-20.849,9.327C289.015,43.2,292.033,31.4,301.36,25.091Zm8.5,20.3h0C301.086,51.7,295.05,51.7,291.21,50.6a50.687,50.687,0,0,0,19.752-9.327,48.975,48.975,0,0,0,8.5-8.779C318.643,36.065,316.448,40.728,309.864,45.392Z" transform="translate(-271.732 32.247)"/><path class="b" d="M295.956,26.661a11.748,11.748,0,0,1,4.389-2.469,2.063,2.063,0,0,0,1.372-1.92A2.063,2.063,0,0,0,299.8,20.9a13.56,13.56,0,0,0-6.035,3.292,1.669,1.669,0,0,0,0,2.195,2.08,2.08,0,0,0,1.1.549C295.408,27.21,295.682,26.935,295.956,26.661Z" transform="translate(-257.001 36.438)"/><path class="b" d="M295.425,24.645h0a11.221,11.221,0,0,0-4.664,3.018,1.669,1.669,0,0,0,0,2.195c.274.274.549.274,1.1.274a1.425,1.425,0,0,0,1.1-.549,5.976,5.976,0,0,1,3.292-1.92,1.564,1.564,0,0,0-.823-3.018Z" transform="translate(-262.231 42.843)"/><path class="b" d="M295.948,21.265a13.792,13.792,0,0,0-5.487,3.292,1.669,1.669,0,0,0,0,2.195c.274.274.549.274,1.1.274a1.425,1.425,0,0,0,1.1-.549,8.25,8.25,0,0,1,3.841-2.469,1.56,1.56,0,0,0,1.1-1.92A1.15,1.15,0,0,0,295.948,21.265Z" transform="translate(-262.754 36.896)"/><path class="b" d="M290.933,25.54h0a6.09,6.09,0,0,0-2.743,2.469,1.66,1.66,0,0,0,.274,2.195,1.008,1.008,0,0,0,.823.274c.549,0,.823-.274,1.372-.549a4.911,4.911,0,0,1,1.646-1.372,1.728,1.728,0,0,0,.823-2.195C292.579,25.54,291.482,24.992,290.933,25.54Z" transform="translate(-266.518 44.143)"/><path class="b" d="M311.923,41.781h0c6.035-1.92,9.876-5.212,11.248-9.876,1.92-6.858-2.469-13.717-3.841-15.637a13.926,13.926,0,0,0-3.841-9.327A13.647,13.647,0,0,0,305.339,3.1h-.823c-19.478,0-21.124,12.071-22.221,20.026-.274,2.469-.549,4.664-1.372,5.761l-.549.549h0a.269.269,0,0,1-.274.274h0v.274h0v.274h0a.269.269,0,0,0,.274.274h0l.274.274h0a.958.958,0,0,0,.549.274h.274c1.92.274,3.292,1.92,5.212,3.841,3.018,3.566,6.858,7.956,14.814,7.956C304.241,43.7,307.808,43.152,311.923,41.781Zm-22.77-7.956h0a15.43,15.43,0,0,0-4.389-4.115c5.761-5.487,15.088-8.779,26.61-8.779a1.77,1.77,0,0,0,1.646-1.646,1.77,1.77,0,0,0-1.646-1.646h0c-10.425,0-19.478,2.469-25.787,7.133,0-.549.274-1.1.274-1.646,1.1-7.956,2.469-17.557,20.026-17.283a10.976,10.976,0,0,1,7.956,3.018c3.018,3.018,3.018,7.681,3.018,7.681a1.649,1.649,0,0,0,.274,1.1s5.487,7.133,3.566,13.168c-1.1,3.292-4.115,6.035-9.327,7.681C297.383,43.427,292.994,38.215,289.153,33.825Z" transform="translate(-280.1 5.407)"/><path class="b" d="M295.045,20.5a6.764,6.764,0,0,0,5.212-1.1,8.213,8.213,0,0,1,2.195-1.1c2.743-.274,4.664-1.646,5.212-3.841a1.564,1.564,0,1,0-3.018-.823c0,.274-.549,1.372-2.743,1.646a5.927,5.927,0,0,0-3.841,1.646,3.19,3.19,0,0,1-2.743.549,5.216,5.216,0,0,0-3.566.274c-2.195.823-3.566-1.1-3.841-1.372a1.429,1.429,0,0,0-2.195-.274,1.43,1.43,0,0,0-.274,2.195,6.894,6.894,0,0,0,5.212,2.743,6.04,6.04,0,0,0,2.195-.274A6.041,6.041,0,0,1,295.045,20.5Z" transform="translate(-271.452 21.749)"/><path class="b" d="M287.437,15.338h.549a30.541,30.541,0,0,1,9.6-1.646,1.77,1.77,0,0,0,1.646-1.646,1.77,1.77,0,0,0-1.646-1.646h0a31.937,31.937,0,0,0-10.7,1.92,1.417,1.417,0,0,0-.823,1.92A1.255,1.255,0,0,0,287.437,15.338Z" transform="translate(-269.88 18.133)"/><path class="b" d="M286.5,12.2Z" transform="translate(-268.943 21.271)"/><path class="b" d="M297.911,6.173a4.068,4.068,0,0,1-1.92.274,6.57,6.57,0,0,0-5.212,1.372c-.823.549-1.372,1.1-2.195,1.1q-4.115.823-4.938,4.115a1.56,1.56,0,0,0,1.1,1.92h.274a1.852,1.852,0,0,0,1.646-1.1c0-.274.274-1.372,2.469-1.92a6.554,6.554,0,0,0,3.566-1.92,3,3,0,0,1,2.743-.549,5.231,5.231,0,0,0,3.566-.549,3.424,3.424,0,0,1,3.841,1.1,1.7,1.7,0,0,0,2.195.274,1.7,1.7,0,0,0,.274-2.195A5.939,5.939,0,0,0,297.911,6.173Z" transform="translate(-274.044 9.741)"/><path class="b" d="M316.419,36.214a12.425,12.425,0,0,0,4.389.823,11.5,11.5,0,0,0,7.681-2.743,16.791,16.791,0,0,0,6.035-13.442c-.549-7.681-6.31-19.478-6.584-20.026A1.509,1.509,0,0,0,326.569,0c-.274,0-7.956-.274-20.3,4.664-8.779,3.566-10.15,9.6-9.6,14.265A17.494,17.494,0,0,0,303.8,31h0c3.018,1.92,5.212,2.743,12.619,5.212Zm-5.761-7.133c0-4.115,3.841-10.15,7.681-12.071a1.657,1.657,0,0,0-1.372-3.018c-4.664,2.469-9.327,9.876-9.327,15.088v.274c-.549-.274-1.372-.823-1.92-1.1-2.469-1.92-4.389-4.389-1.1-11.522,2.469-5.487,12.894-7.956,16.734-8.23a1.515,1.515,0,0,0-.274-3.018c-.549,0-15.363,2.195-18.929,10.15-.823,1.92-1.372,3.566-1.92,5.212a4.668,4.668,0,0,1-.274-1.92c-.549-4.938,2.195-8.779,7.681-10.973h0c9.053-3.566,15.637-4.389,18.106-4.389,1.372,2.743,5.487,12.071,5.761,17.832a13.4,13.4,0,0,1-4.664,10.7,9.591,9.591,0,0,1-9.053,1.372c-2.195-.823-4.115-1.372-5.487-1.92C311.481,31.276,310.658,31,310.658,29.081Z" transform="translate(-251.402 0.001)"/><path class="b" d="M306.138,23.81h.549q5.761-2.057,7.407-6.584C316.288,11.74,313,5.7,313,5.43a1.437,1.437,0,0,0-2.195-.549,1.437,1.437,0,0,0-.549,2.195s2.743,5.212,1.1,9.327c-.823,2.195-2.743,3.566-5.487,4.664h0a1.262,1.262,0,0,0-.823,1.92A1.224,1.224,0,0,0,306.138,23.81Z" transform="translate(-237.006 8.015)"/></g><g transform="translate(1130.482 3746.699)"><path class="b" d="M316.2,184.862H296.719a29.325,29.325,0,0,0-19.752-51.026,40.93,40.93,0,0,0-5.761.549A43.605,43.605,0,0,0,231.154,107.5a43.144,43.144,0,0,0-43.07,43.07,43.827,43.827,0,0,0,16.734,34.292H183.146a1.581,1.581,0,0,0-1.646,1.646,1.77,1.77,0,0,0,1.646,1.646H315.923a1.581,1.581,0,0,0,1.646-1.646A1.336,1.336,0,0,0,316.2,184.862Zm-41.424-33.469a7.6,7.6,0,0,1,2.469-.274,12.178,12.178,0,0,1,12.071,12.071,12,12,0,0,1-12.071,12.071,11.615,11.615,0,0,1-8.23-3.292A45.5,45.5,0,0,0,274.773,151.393ZM211.4,184.862a39.549,39.549,0,1,1,40.6.274Zm79.831,0H257.764a39.944,39.944,0,0,0,9.327-9.876,14.613,14.613,0,0,0,9.876,3.566,15.363,15.363,0,0,0,0-30.725c-.823,0-1.646.274-2.469.274a41.541,41.541,0,0,0-1.92-10.15,13.59,13.59,0,0,1,4.664-.549h0A26.05,26.05,0,0,1,303.3,163.464,25.69,25.69,0,0,1,291.233,184.862Z" transform="translate(-181.5 -107.5)"/><path class="b" d="M218.454,112.5a29.354,29.354,0,1,0,29.354,29.354A29.387,29.387,0,0,0,218.454,112.5Zm0,55.415a26.062,26.062,0,0,1,0-52.123,25.817,25.817,0,0,1,25.787,26.062C244.241,156.119,232.444,167.915,218.454,167.915Z" transform="translate(-168.251 -98.783)"/><path class="b" d="M209.563,117.6a15.363,15.363,0,1,0,15.363,15.363A15.337,15.337,0,0,0,209.563,117.6Zm0,27.708a12,12,0,0,1-12.071-12.071,12.178,12.178,0,0,1,12.071-12.071,12,12,0,0,1,12.071,12.071A12.178,12.178,0,0,1,209.563,145.308Z" transform="translate(-159.36 -89.892)"/></g><path class="b" d="M40.714,32.223A18.623,18.623,0,0,0,36.8,20.03c-.871-1.306-1.96-2.395-2.83-3.484a40.049,40.049,0,0,1-3.7-4.79L30.046,6.1h0a3.1,3.1,0,0,0,.435-1.306V2.83A2.882,2.882,0,0,0,27.651,0H13.281a2.882,2.882,0,0,0-2.83,2.83V4.79a3.146,3.146,0,0,0,.435,1.524V11.1a31.291,31.291,0,0,1-3.919,5.443A37.215,37.215,0,0,0,4.572,19.6,21.866,21.866,0,0,0,0,32.876L.218,83.17c0,.435.218.653.435,1.089l3.266,3.7a1.663,1.663,0,0,0,1.089.435H36.36a1.882,1.882,0,0,0,1.306-.653l2.613-3.266a1.663,1.663,0,0,0,.435-1.089ZM5.879,85.13,3.266,82.517V70.978H18.289a1.524,1.524,0,1,0,0-3.048H3.266v-.871h7.4a1.524,1.524,0,1,0,0-3.048h-7.4V62.922H19.6a2.882,2.882,0,0,0,2.83-2.83V42.456a2.882,2.882,0,0,0-2.83-2.83H3.266V32.876C3.484,27,5.225,23.95,7.185,21.337c.653-.871,1.524-1.742,2.177-2.613,1.524-1.959,3.266-3.7,4.572-6.314a.8.8,0,0,0,.218-.653v-3.7H27.215l.218,4.572a.8.8,0,0,0,.218.653,38.877,38.877,0,0,0,4.354,5.661,37.906,37.906,0,0,0,2.613,3.048,16.54,16.54,0,0,1,3.266,10.451V82.952l-1.96,2.395ZM3.266,59.438V42.456H19.16V59.438ZM13.5,4.355V2.83H27.433V4.355Z" transform="matrix(0.921, 0.391, -0.391, 0.921, 1182.802, 3919.567)"/><g transform="translate(1267.494 3974.172)"><path class="b" d="M179.641,391.1a10.582,10.582,0,0,0-7.064-3.071h-7.371a6.545,6.545,0,0,0-6.143-4.607h-15.05a6.161,6.161,0,0,1-6.143-6.143V370.52a5.9,5.9,0,0,0,3.686,1.229,6.251,6.251,0,0,0,4.607-1.843l.307-.307a6.6,6.6,0,0,0,.307-8.907,6.687,6.687,0,0,0,2.457-1.536l.307-.307a6.587,6.587,0,0,0,1.229-7.678L169.2,332.743a6.082,6.082,0,1,0-8.6-8.6l-18.121,18.121a6.519,6.519,0,0,0-7.986.921l-.307.307a6.689,6.689,0,0,0-1.536,2.457c-2.457-2.15-6.45-1.843-8.907.307l-.307.307a6.6,6.6,0,0,0-.307,8.907,6.688,6.688,0,0,0-2.457,1.536l-.307.307a6.68,6.68,0,0,0,0,9.214l1.229,1.229v20.578a10.175,10.175,0,0,0-6.143,8.293H113.3a9.131,9.131,0,0,0-6.143,2.457,8.576,8.576,0,0,0-2.457,6.143,8.789,8.789,0,0,0,8.6,8.6h22.728a9.132,9.132,0,0,0,6.143-2.457,12.682,12.682,0,0,0,2.15-3.379h28.256a10.225,10.225,0,0,0,10.135-10.135A12.311,12.311,0,0,0,179.641,391.1Zm-7.371,13.514H141.556a1.982,1.982,0,0,0-1.843,1.843,1.847,1.847,0,0,0,.307,1.229,6.712,6.712,0,0,1-.921,1.536,4.932,4.932,0,0,1-3.378,1.536H112.993a4.851,4.851,0,0,1-4.914-4.914,5.284,5.284,0,0,1,4.914-4.914h2.457a10.227,10.227,0,0,0,9.828,7.371h2.15a1.843,1.843,0,1,0,0-3.686h-2.15a6.488,6.488,0,0,1-6.45-6.45,5.982,5.982,0,0,1,4.914-6.143,1.946,1.946,0,0,0,1.536-1.843V372.056l.921.921a6.251,6.251,0,0,0,4.607,1.843,5.19,5.19,0,0,0,3.071-.921v3.071a9.7,9.7,0,0,0,9.828,9.828h15.05a2.764,2.764,0,1,1,0,5.528h-7.678a1.843,1.843,0,0,0,0,3.686h7.678a6.269,6.269,0,0,0,6.143-4.607h7.371a6.487,6.487,0,0,1,6.45,6.45,6.25,6.25,0,0,1-1.843,4.607A5.526,5.526,0,0,1,172.27,404.612Zm-49.449-44.227.307-.307a2.619,2.619,0,0,1,3.993,0,1.955,1.955,0,1,0,2.764-2.764h-.307l-3.686-3.686a2.655,2.655,0,0,1-.921-1.843,2.189,2.189,0,0,1,.921-1.843l.307-.307a2.619,2.619,0,0,1,3.993,0l6.757,6.757a2.292,2.292,0,0,0,2.764,0,2.328,2.328,0,0,0,.614-1.229,1.6,1.6,0,0,0-.614-1.229l-3.071-3.071a2.623,2.623,0,0,1,0-3.993l.307-.307a3.222,3.222,0,0,1,3.993,0l6.143,6.143a2.655,2.655,0,0,1,.921,1.843,2.189,2.189,0,0,1-.921,1.843l-.307.307a3.222,3.222,0,0,1-3.993,0,1.955,1.955,0,0,0-2.764,2.764l.307.307h0v.307l3.378,3.379a2.655,2.655,0,0,1,.921,1.843,2.189,2.189,0,0,1-.921,1.843l-.307.307a3.222,3.222,0,0,1-3.993,0l-3.686-3.686v-.307h-.307L132.956,361a1.955,1.955,0,0,0-2.764,2.764l2.457,2.457a2.623,2.623,0,0,1,0,3.993l-.307.307a2.619,2.619,0,0,1-3.993,0l-6.143-6.143A3.322,3.322,0,0,1,122.821,360.385Zm22.421-15.357,18.121-18.121h0a2.346,2.346,0,0,1,1.536-.614h0a2.172,2.172,0,0,1,1.536,3.686L148.313,348.1Z" transform="translate(-92.875 -322.3)"/><path class="b" d="M114.093,349.253h0a3.34,3.34,0,0,0,.307-1.536,1.6,1.6,0,0,0-.614-1.229,1.973,1.973,0,0,0-2.764.307,3.488,3.488,0,0,0-.921,2.457,3.777,3.777,0,0,0,2.15,3.379,1.128,1.128,0,0,0,.921.307,1.689,1.689,0,0,0,1.536-.921A1.938,1.938,0,0,0,114.093,349.253Z" transform="translate(-81.69 -273.083)"/><path class="b" d="M113.943,340a1.982,1.982,0,0,0-1.843,1.843v3.993a1.843,1.843,0,1,0,3.686,0v-3.993A1.629,1.629,0,0,0,113.943,340Z" transform="translate(-77.547 -285.637)"/><path class="b" d="M113.943,343.1a1.982,1.982,0,0,0-1.843,1.843v3.686a1.843,1.843,0,0,0,3.686,0v-3.686A1.77,1.77,0,0,0,113.943,343.1Z" transform="translate(-77.547 -279.216)"/><path class="b" d="M130.657,347.4h-4.914a1.843,1.843,0,0,0,0,3.686h4.914a1.982,1.982,0,0,0,1.843-1.843A1.77,1.77,0,0,0,130.657,347.4Z" transform="translate(-53.105 -270.309)"/><path class="b" d="M127.457,347.4h-4.914a1.843,1.843,0,1,0,0,3.686h4.914a1.982,1.982,0,0,0,1.843-1.843A1.77,1.77,0,0,0,127.457,347.4Z" transform="translate(-59.734 -270.309)"/><path class="b" d="M117.589,345.989h0a4.932,4.932,0,0,0,1.536-3.378,6.441,6.441,0,0,0-1.229-3.379A4.619,4.619,0,0,0,114.518,338a6.441,6.441,0,0,0-3.378,1.228l-.307.307a6.819,6.819,0,0,0-4.914.307l-1.536-1.536a1.955,1.955,0,0,0-2.764,2.764l1.536,1.536a6.715,6.715,0,0,0-.307,4.914l-.614.614a4.1,4.1,0,0,0,0,6.143l.307.307a4.454,4.454,0,0,0,6.143,0l.307-.307a8.967,8.967,0,0,0,2.764.614,6.064,6.064,0,0,0,4.3-1.843A5.719,5.719,0,0,0,117.589,345.989Zm-2.457-3.378v.307l-1.229-1.228c.307-.307.921,0,1.229,0Zm-7.678,7.678a2.292,2.292,0,0,0,0-2.764l-.614-.614a2.389,2.389,0,0,1,3.378-3.379l3.378,3.379a2.227,2.227,0,0,1,0,3.071,2.41,2.41,0,0,1-3.378,0h0a3.059,3.059,0,0,0-2.764.307l-1.229,1.536-.307.307h0c-.307,0-.307,0-.307-.307l-.307-.307L105,351.21a.3.3,0,0,1,.307-.307h0A2.923,2.923,0,0,0,107.453,350.289Z" transform="translate(-100.85 -290.091)"/><path class="b" d="M130.878,335.839a4.1,4.1,0,0,0-6.143,0l-.307.307a3.943,3.943,0,0,0-1.229,3.071,5.457,5.457,0,0,0,1.229,3.071l.307.307a6.23,6.23,0,0,0,8.293,8.293h0a4.619,4.619,0,0,0,3.378,1.229,6.441,6.441,0,0,0,3.378-1.229,4.619,4.619,0,0,0,1.229-3.379,6.44,6.44,0,0,0-1.229-3.378l-.307-.307a6.82,6.82,0,0,0-.307-4.914l1.536-1.536a2.292,2.292,0,0,0,0-2.764h0a2.292,2.292,0,0,0-2.764,0l-1.536,1.536a6.715,6.715,0,0,0-4.914-.307Zm4.914,12.592,1.229-1.229v.614c0,.307,0,.614-.307.614h-.921Zm-7.371-4.607h0a2.346,2.346,0,0,0,.614-1.536,1.6,1.6,0,0,0-.614-1.229l-1.536-1.536-.307-.307c0-.307,0-.307.307-.307l.307-.307a.576.576,0,0,1,.921,0h0a1.9,1.9,0,0,0,.307,2.457,2.292,2.292,0,0,0,2.764,0l.614-.614a2.41,2.41,0,0,1,3.378,0,2.227,2.227,0,0,1,0,3.071L131.8,346.9a2.41,2.41,0,0,1-3.378,0A2.045,2.045,0,0,1,128.421,343.825Z" transform="translate(-54.555 -297.755)"/></g><g transform="translate(1582.458 3885.034)"><path class="b" d="M25.885,9.7h0a1.538,1.538,0,0,0-1.023.256A13.109,13.109,0,0,0,17.7,21.978a3.636,3.636,0,0,0,.512,1.535,1.879,1.879,0,0,0,1.535.512,3.636,3.636,0,0,0,1.535-.512,1.879,1.879,0,0,0,.512-1.535,9.5,9.5,0,0,1,5.116-8.441h0a2.065,2.065,0,0,0,1.023-2.3A2.228,2.228,0,0,0,25.885,9.7Z" transform="translate(27.639 9.74)"/><path class="b" d="M12.985,6.9h0a1.538,1.538,0,0,0-1.023.256A13.109,13.109,0,0,0,4.8,19.178a3.636,3.636,0,0,0,.512,1.535,1.879,1.879,0,0,0,1.535.512,3.636,3.636,0,0,0,1.535-.512,1.879,1.879,0,0,0,.512-1.535,9.5,9.5,0,0,1,5.116-8.441h0a2.065,2.065,0,0,0,1.023-2.3A2.228,2.228,0,0,0,12.985,6.9Z" transform="translate(7.542 5.378)"/><path class="b" d="M115.142,36.887A53.17,53.17,0,0,0,114.375,31a12.839,12.839,0,0,1-.512-3.069h0a1.945,1.945,0,0,0-2.046-1.535h0a1.823,1.823,0,0,0-1.535.767,2.1,2.1,0,0,0-.256,1.79,10.878,10.878,0,0,1,.512,2.814l.767,5.371c.512,7.418-1.535,12.789-5.371,16.626-3.581,3.837-8.952,5.883-15.091,5.883a20.527,20.527,0,0,1-9.976-2.3,31.04,31.04,0,0,0,1.79-12.278A56.846,56.846,0,0,0,75.24,22.307c-.256-.512-.767-1.023-1.023-1.535a33.727,33.727,0,0,1,6.65-10.231,13.644,13.644,0,0,1,9.72-4.348c5.627,0,10.487,3.837,14.068,9.976a2.12,2.12,0,0,0,2.814.767,2.057,2.057,0,0,0,.767-2.814C104.144,7.471,98.261,2.1,90.587,2.1h0A17.867,17.867,0,0,0,78.054,7.727a36.878,36.878,0,0,0-6.65,9.464c-3.581-4.093-8.185-6.65-13.812-6.65h0c-5.371,0-9.976,2.814-13.812,6.65a36.878,36.878,0,0,0-6.65-9.464A17.867,17.867,0,0,0,24.595,2.1h0c-7.674,0-13.557,5.371-17.649,12.022S.551,29.469.039,36.887c-.512,8.185,2.046,15.091,6.395,19.7a25.293,25.293,0,0,0,18.161,7.162A25.761,25.761,0,0,0,36.361,60.93a20.172,20.172,0,0,0,3.069,3.837,25.293,25.293,0,0,0,18.161,7.162,25.293,25.293,0,0,0,18.161-7.162,25.148,25.148,0,0,0,3.069-3.837,26.572,26.572,0,0,0,11.766,2.814,25.293,25.293,0,0,0,18.161-7.162C113.352,51.978,115.654,45.072,115.142,36.887ZM57.591,67.837c-6.139,0-11.51-2.046-15.091-5.883a15.6,15.6,0,0,1-3.069-4.093c0-.256,0-.512-.256-.512l-.256-.256a20.341,20.341,0,0,1-1.79-11.51h0a3.636,3.636,0,0,0-.512-1.535,1.547,1.547,0,0,0-1.535-.767,3.636,3.636,0,0,0-1.535.512,1.547,1.547,0,0,0-.767,1.535,27.041,27.041,0,0,0,1.79,12.278,21.994,21.994,0,0,1-9.976,2.3c-6.139,0-11.51-2.046-15.091-5.883S3.62,44.816,4.132,37.4a51.313,51.313,0,0,1,6.395-20.974c3.581-6.139,8.441-9.976,14.068-9.976a13.644,13.644,0,0,1,9.72,4.348,33.726,33.726,0,0,1,6.65,10.231c-.256.512-.767,1.023-1.023,1.535a54.123,54.123,0,0,0-2.814,5.371,2.117,2.117,0,0,0,3.837,1.79,29.16,29.16,0,0,1,2.558-4.86c3.581-6.139,8.441-9.976,14.068-9.976,4.86,0,8.952,2.814,12.278,7.162h0c0,.256.256.512.512.767a14.277,14.277,0,0,1,1.279,2.046,51.313,51.313,0,0,1,6.395,20.974,25.969,25.969,0,0,1-1.79,11.51l-.256.256a.893.893,0,0,1-.256.512,12.312,12.312,0,0,1-3.069,4.093C69.1,65.79,63.73,67.837,57.591,67.837Z" transform="translate(0.025 -2.1)"/><path class="b" d="M36.241,8.435a2.065,2.065,0,0,0,1.023,2.3,9.5,9.5,0,0,1,5.116,8.441,3.635,3.635,0,0,0,.512,1.535,1.879,1.879,0,0,0,1.535.512,3.636,3.636,0,0,0,1.535-.512,1.879,1.879,0,0,0,.512-1.535A13.581,13.581,0,0,0,39.31,7.156,1.538,1.538,0,0,0,38.287,6.9h0A2.228,2.228,0,0,0,36.241,8.435Z" transform="translate(56.418 5.378)"/><path class="b" d="M41.8,10.946a2.046,2.046,0,1,0,4.093,0,2.046,2.046,0,1,0-4.093,0Z" transform="translate(65.183 8.493)"/><path class="b" d="M15.446,15A2.2,2.2,0,0,0,13.4,17.046a2.2,2.2,0,0,0,2.046,2.046,2.2,2.2,0,0,0,2.046-2.046A2.017,2.017,0,0,0,15.446,15Z" transform="translate(20.94 17.996)"/></g></g></svg>