<svg xmlns="http://www.w3.org/2000/svg" viewBox="0 0 22.288 22.236"><defs><style>.a{fill:rgba(251,190,68,0.29);}.a,.c{stroke:#000;}.a,.b,.c{stroke-width:0.5px;}.b{fill:#006381;stroke:#fff;}.c{fill:none;}</style></defs><g transform="translate(8632.204 11073.025)"><g transform="translate(-8631.934 -11072.754)"><path class="a" d="M2.442,0A2.442,2.442,0,1,0,4.884,2.442,2.449,2.449,0,0,0,2.442,0Z" transform="matrix(0.996, -0.087, 0.087, 0.996, 0, 0.426)"/><path class="b" d="M1.881,0A2.119,2.119,0,0,0,0,2.285,2.119,2.119,0,0,0,1.881,4.571,2.119,2.119,0,0,0,3.762,2.285,2.119,2.119,0,0,0,1.881,0Z" transform="matrix(0.996, -0.087, 0.087, 0.996, 1.199, 0.513)"/><path class="c" d="M2.442,0A2.442,2.442,0,1,0,4.884,2.442,2.449,2.449,0,0,0,2.442,0Z" transform="matrix(0.996, -0.087, 0.087, 0.996, 0, 0.426)"/></g><g transform="translate(-8623.919 -11072.754)"><path class="a" d="M2.442,0A2.442,2.442,0,1,0,4.884,2.442,2.449,2.449,0,0,0,2.442,0Z" transform="matrix(0.996, -0.087, 0.087, 0.996, 0, 0.426)"/><path class="b" d="M1.881,0A2.119,2.119,0,0,0,0,2.285,2.119,2.119,0,0,0,1.881,4.571,2.119,2.119,0,0,0,3.762,2.285,2.119,2.119,0,0,0,1.881,0Z" transform="matrix(0.996, -0.087, 0.087, 0.996, 1.199, 0.513)"/><path class="c" d="M2.442,0A2.442,2.442,0,1,0,4.884,2.442,2.449,2.449,0,0,0,2.442,0Z" transform="matrix(0.996, -0.087, 0.087, 0.996, 0, 0.426)"/></g><g transform="translate(-8615.532 -11072.754)"><path class="a" d="M2.442,0A2.442,2.442,0,1,0,4.884,2.442,2.449,2.449,0,0,0,2.442,0Z" transform="matrix(0.996, -0.087, 0.087, 0.996, 0, 0.426)"/><path class="b" d="M1.881,0A2.119,2.119,0,0,0,0,2.285,2.119,2.119,0,0,0,1.881,4.571,2.119,2.119,0,0,0,3.762,2.285,2.119,2.119,0,0,0,1.881,0Z" transform="matrix(0.996, -0.087, 0.087, 0.996, 1.199, 0.513)"/><path class="c" d="M2.442,0A2.442,2.442,0,1,0,4.884,2.442,2.449,2.449,0,0,0,2.442,0Z" transform="matrix(0.996, -0.087, 0.087, 0.996, 0, 0.426)"/></g><g transform="translate(-8623.919 -11064.739)"><path class="a" d="M2.442,0A2.442,2.442,0,1,0,4.884,2.442,2.449,2.449,0,0,0,2.442,0Z" transform="matrix(0.996, -0.087, 0.087, 0.996, 0, 0.426)"/><path class="b" d="M1.881,0A2.119,2.119,0,0,0,0,2.285,2.119,2.119,0,0,0,1.881,4.571,2.119,2.119,0,0,0,3.762,2.285,2.119,2.119,0,0,0,1.881,0Z" transform="matrix(0.996, -0.087, 0.087, 0.996, 1.199, 0.513)"/><path class="c" d="M2.442,0A2.442,2.442,0,1,0,4.884,2.442,2.449,2.449,0,0,0,2.442,0Z" transform="matrix(0.996, -0.087, 0.087, 0.996, 0, 0.426)"/></g><g transform="translate(-8615.532 -11064.739)"><path class="a" d="M2.442,0A2.442,2.442,0,1,0,4.884,2.442,2.449,2.449,0,0,0,2.442,0Z" transform="matrix(0.996, -0.087, 0.087, 0.996, 0, 0.426)"/><path class="b" d="M1.881,0A2.119,2.119,0,0,0,0,2.285,2.119,2.119,0,0,0,1.881,4.571,2.119,2.119,0,0,0,3.762,2.285,2.119,2.119,0,0,0,1.881,0Z" transform="matrix(0.996, -0.087, 0.087, 0.996, 1.199, 0.513)"/><path class="c" d="M2.442,0A2.442,2.442,0,1,0,4.884,2.442,2.449,2.449,0,0,0,2.442,0Z" transform="matrix(0.996, -0.087, 0.087, 0.996, 0, 0.426)"/></g><g transform="translate(-8623.919 -11056.353)"><path class="a" d="M2.442,0A2.442,2.442,0,1,0,4.884,2.442,2.449,2.449,0,0,0,2.442,0Z" transform="matrix(0.996, -0.087, 0.087, 0.996, 0, 0.426)"/><path class="b" d="M1.881,0A2.119,2.119,0,0,0,0,2.285,2.119,2.119,0,0,0,1.881,4.571,2.119,2.119,0,0,0,3.762,2.285,2.119,2.119,0,0,0,1.881,0Z" transform="matrix(0.996, -0.087, 0.087, 0.996, 1.199, 0.513)"/><path class="c" d="M2.442,0A2.442,2.442,0,1,0,4.884,2.442,2.449,2.449,0,0,0,2.442,0Z" transform="matrix(0.996, -0.087, 0.087, 0.996, 0, 0.426)"/></g><g transform="translate(-8615.532 -11056.353)"><path class="a" d="M2.442,0A2.442,2.442,0,1,0,4.884,2.442,2.449,2.449,0,0,0,2.442,0Z" transform="matrix(0.996, -0.087, 0.087, 0.996, 0, 0.426)"/><path class="b" d="M1.881,0A2.119,2.119,0,0,0,0,2.285,2.119,2.119,0,0,0,1.881,4.571,2.119,2.119,0,0,0,3.762,2.285,2.119,2.119,0,0,0,1.881,0Z" transform="matrix(0.996, -0.087, 0.087, 0.996, 1.199, 0.513)"/><path class="c" d="M2.442,0A2.442,2.442,0,1,0,4.884,2.442,2.449,2.449,0,0,0,2.442,0Z" transform="matrix(0.996, -0.087, 0.087, 0.996, 0, 0.426)"/></g><g transform="translate(-8631.934 -11064.739)"><path class="a" d="M2.442,0A2.442,2.442,0,1,0,4.884,2.442,2.449,2.449,0,0,0,2.442,0Z" transform="matrix(0.996, -0.087, 0.087, 0.996, 0, 0.426)"/><path class="b" d="M1.881,0A2.119,2.119,0,0,0,0,2.285,2.119,2.119,0,0,0,1.881,4.571,2.119,2.119,0,0,0,3.762,2.285,2.119,2.119,0,0,0,1.881,0Z" transform="matrix(0.996, -0.087, 0.087, 0.996, 1.199, 0.513)"/><path class="c" d="M2.442,0A2.442,2.442,0,1,0,4.884,2.442,2.449,2.449,0,0,0,2.442,0Z" transform="matrix(0.996, -0.087, 0.087, 0.996, 0, 0.426)"/></g><g transform="translate(-8631.934 -11056.353)"><path class="a" d="M2.442,0A2.442,2.442,0,1,0,4.884,2.442,2.449,2.449,0,0,0,2.442,0Z" transform="matrix(0.996, -0.087, 0.087, 0.996, 0, 0.426)"/><path class="b" d="M1.881,0A2.119,2.119,0,0,0,0,2.285,2.119,2.119,0,0,0,1.881,4.571,2.119,2.119,0,0,0,3.762,2.285,2.119,2.119,0,0,0,1.881,0Z" transform="matrix(0.996, -0.087, 0.087, 0.996, 1.199, 0.513)"/><path class="c" d="M2.442,0A2.442,2.442,0,1,0,4.884,2.442,2.449,2.449,0,0,0,2.442,0Z" transform="matrix(0.996, -0.087, 0.087, 0.996, 0, 0.426)"/></g></g></svg>