<svg xmlns="http://www.w3.org/2000/svg" viewBox="0 0 79.163 106.428"><defs><style>.a{fill:#ffba61;}.b{fill:#f7674e;}.c{fill:#006c84;}</style></defs><g transform="translate(-0.097)"><g transform="translate(14.35 12.372)"><path class="a" d="M48.028,35.915a11.242,11.242,0,0,1,3.829,1.808,6.64,6.64,0,0,1,2.411,3.368,6.363,6.363,0,0,1,.319,1.914,5.75,5.75,0,0,1-.284,1.737,8.2,8.2,0,0,1-1.914,3.049,19.819,19.819,0,0,1-2.942,2.482A21.88,21.88,0,0,1,53.2,53.286a11.313,11.313,0,0,1,2.73,4.077,5.877,5.877,0,0,1,.39,2.056,6.553,6.553,0,0,1-.6,2.623A9.125,9.125,0,0,1,52.708,65.2a16.653,16.653,0,0,1-4.254,1.985,15.346,15.346,0,0,1-4.4.709h-.319c-2.269,0-3.4-1.1-3.4-3.332v-.319c0-.425,0-.851.035-1.276.035-.39.035-.744.035-1.134.035-2.517.071-5.034.071-7.551,0-1.276,0-2.517-.035-3.793V46.763c0-1.453,0-2.765-.035-3.9,0-1.134-.035-2.446-.106-3.9v-.425a3.485,3.485,0,0,1,.922-2.8A4,4,0,0,1,43.7,35.1a8.325,8.325,0,0,1,.922.035A16.491,16.491,0,0,1,48.028,35.915ZM45.689,49a.742.742,0,0,1,.213-.142l.035-.035h.035l.035-.035h.035l.035-.035a12.731,12.731,0,0,0,3.4-2.092,6.833,6.833,0,0,0,1.985-2.8,3.1,3.1,0,0,0,.177-1.1,3.327,3.327,0,0,0-.532-1.773,6.926,6.926,0,0,0-3.616-2.3,3.906,3.906,0,0,0-1.1-.213.622.622,0,0,0-.532.213,2.14,2.14,0,0,0-.213,1.1,2.021,2.021,0,0,0,.035.461c0,.071.035.142.035.213,0,1.312.035,2.588.035,3.793v1.737C45.689,46.976,45.689,47.933,45.689,49Zm0,2.482V54.1c0,.957.035,1.879.035,2.836,0,1.879-.035,3.758-.071,5.637,0,1.241.284,1.914.886,1.95h.213a5.039,5.039,0,0,0,2.021-.532.5.5,0,0,1,.213-.071,7.141,7.141,0,0,0,3.226-2.092,3.989,3.989,0,0,0,.815-2.34v-.213c-.142-2.163-1.6-4.183-4.325-6.062q-1.329-.851-2.765-1.6l-.035-.035h-.035v-.035h0l-.035-.035-.035-.035h-.035l-.035-.035h-.035l-.035-.035.035.071Z" transform="translate(-40.3 -35.029)"/><path class="a" d="M96.64,66a17.613,17.613,0,0,1-.461-4.573c.035-2.659.071-5.318.071-7.976,0-4.183,0-8.225.035-12.124v-.035c-.319,0-.638.035-.957.035-.6-.248-.922-.638-.922-1.064v-.177c0-.957.709-1.524,2.092-1.666l4.75-.319c.957.177,1.418.567,1.418,1.17v.5c0,.674-.638,1.134-1.879,1.383a3.319,3.319,0,0,1,.142.567,19,19,0,0,1,.319,2.588c.035.78.071,1.418.071,1.914v4.928c0,1.1-.035,2.2-.035,3.3,0,2.269.035,4.573.071,6.842a20.047,20.047,0,0,1-.5,4.68c1.205.071,1.808.532,1.808,1.418-.035.993-.6,1.489-1.666,1.489H97.951c-.709,0-1.347.035-2.021.071-1.1,0-1.631-.461-1.631-1.418q0-1.489,2.233-1.489h.106Z" transform="translate(-75.156 -36.966)"/><path class="a" d="M140.942,34.971a6.524,6.524,0,0,1,4.077,1.843,10.227,10.227,0,0,1,2.34,3.758,25.34,25.34,0,0,1,1.17,4.325,39.292,39.292,0,0,1,.5,6.1,38.554,38.554,0,0,1-.922,8.26,18.054,18.054,0,0,1-1.914,4.68,8.844,8.844,0,0,1-3.332,3.332,6.9,6.9,0,0,1-3.4.815,9.717,9.717,0,0,1-1.7-.142,5.966,5.966,0,0,1-3.226-1.631,9.112,9.112,0,0,1-1.95-2.907,21.12,21.12,0,0,1-1.17-3.368,36.255,36.255,0,0,1-1.134-7.055c-.035-.744-.071-1.524-.071-2.269a36.9,36.9,0,0,1,.425-5.6,16.973,16.973,0,0,1,2.446-6.629,8.127,8.127,0,0,1,3.368-2.907,8.875,8.875,0,0,1,3.439-.674C140.2,34.9,140.552,34.935,140.942,34.971Zm3.864,25.348a32.292,32.292,0,0,0,.78-5.034q.213-2.34.213-4.892c0-.674,0-1.347-.035-2.056a25.757,25.757,0,0,0-.993-6.558,5.618,5.618,0,0,0-2.8-3.758,3.211,3.211,0,0,0-1.134-.213,2.563,2.563,0,0,0-1.312.39,5.58,5.58,0,0,0-1.879,1.773,10.853,10.853,0,0,0-1.134,2.2,26.238,26.238,0,0,0-1.028,6.558c-.035.6-.035,1.205-.035,1.773a39.139,39.139,0,0,0,.425,5.743,21,21,0,0,0,1.843,6.346c.744,1.383,1.6,2.163,2.446,2.269.106,0,.213.035.319.035a2.975,2.975,0,0,0,2.127-.993,7.87,7.87,0,0,0,1.843-2.872A2.657,2.657,0,0,0,144.806,60.318Z" transform="translate(-98.329 -34.9)"/></g><g transform="translate(13.889 47.691)"><path class="b" d="M42.332,141.04v-1.524a1.1,1.1,0,0,0-.319-.815,3.123,3.123,0,0,0-.6-.071,3.948,3.948,0,0,0-.6.071,2.865,2.865,0,0,1-.532.035,3.493,3.493,0,0,1-.6-.071A.971.971,0,0,1,39,137.85v-.213a.758.758,0,0,1,.248-.638,1.336,1.336,0,0,1,.851-.355c.709-.071,1.383-.142,2.056-.213.39-.035.815-.071,1.205-.106.177,0,.39-.035.744-.071.5-.035,1.028-.106,1.631-.177s1.17-.106,1.666-.142a5.513,5.513,0,0,1,.709-.035h.319a1.131,1.131,0,0,1,.851.6.856.856,0,0,1-.035.886,1.513,1.513,0,0,1-1.1.6q-.425.053-.744.106a2.337,2.337,0,0,0-.922.213.7.7,0,0,0-.319.567,5.769,5.769,0,0,0-.035.851v7.977c0,2.552,0,5.14.035,7.693v.355c0,.425-.035.851-.071,1.276a2.451,2.451,0,0,1-.567,1.383,1.455,1.455,0,0,1-1.205.461H44a1.667,1.667,0,0,1-1.383-.922,4.006,4.006,0,0,1-.39-1.808v-.5c0-.5.035-.993.071-1.453a8.987,8.987,0,0,0,.035-.922V141.04Z" transform="translate(-39 -135.413)"/><path class="b" d="M79.3,134.552a4.856,4.856,0,0,1,2.978,1.347,7.43,7.43,0,0,1,1.7,2.73,17.369,17.369,0,0,1,.851,3.155,27.353,27.353,0,0,1-.319,10.423,14.287,14.287,0,0,1-1.383,3.4,6.482,6.482,0,0,1-2.446,2.446,5.041,5.041,0,0,1-2.482.6,7.654,7.654,0,0,1-1.241-.106,4.584,4.584,0,0,1-2.34-1.17,6.774,6.774,0,0,1-1.418-2.127,16.716,16.716,0,0,1-.851-2.446,26.465,26.465,0,0,1-.815-5.14c-.035-.567-.035-1.1-.035-1.631A25.211,25.211,0,0,1,71.819,142a12.4,12.4,0,0,1,1.773-4.821,6.263,6.263,0,0,1,2.446-2.127,6.2,6.2,0,0,1,2.482-.5A2.87,2.87,0,0,1,79.3,134.552Zm2.8,18.4a20.351,20.351,0,0,0,.567-3.651c.106-1.134.177-2.3.177-3.545,0-.5,0-.993-.035-1.489a20.622,20.622,0,0,0-.709-4.75,4.112,4.112,0,0,0-2.021-2.73,2.419,2.419,0,0,0-.815-.177,1.984,1.984,0,0,0-.957.284,4.206,4.206,0,0,0-1.347,1.276,6.808,6.808,0,0,0-.815,1.6,18.29,18.29,0,0,0-.744,4.75c-.035.425-.035.851-.035,1.312a27.7,27.7,0,0,0,.319,4.183,14.441,14.441,0,0,0,1.347,4.609c.567,1.028,1.134,1.56,1.773,1.631h.248a2.325,2.325,0,0,0,1.56-.709,5.473,5.473,0,0,0,1.347-2.092A2.98,2.98,0,0,0,82.1,152.951Z" transform="translate(-59.978 -134.525)"/><path class="b" d="M124.735,150.142a10.853,10.853,0,0,0,.142,1.489,21.493,21.493,0,0,0,.461,2.269,9.621,9.621,0,0,0,.709,2.092c.284.567.6.886.993.922h.035c.355,0,.744-.425,1.205-1.241a11.753,11.753,0,0,0,.886-2.73,15.4,15.4,0,0,0,.39-2.836q.106-4.095.106-8.189v-3.474a3.66,3.66,0,0,1,.142-1.064.938.938,0,0,1,.957-.709.886.886,0,0,1,.815.5,3.33,3.33,0,0,1,.284,1.1,4.994,4.994,0,0,1,.035.709v.886c0,.78.035,1.56.035,2.34.035,1.028.071,2.092.071,3.155v1.276c0,1.064-.071,2.269-.142,3.581a22.336,22.336,0,0,1-.6,4.006,9.734,9.734,0,0,1-1.56,3.474,5.437,5.437,0,0,1-2.907,2.056,4.331,4.331,0,0,1-.922.106,2.628,2.628,0,0,1-1.914-.815,7.61,7.61,0,0,1-1.737-2.978,19.948,19.948,0,0,1-.886-3.758c-.177-1.276-.319-2.233-.355-2.978-.106-2.056-.177-3.9-.177-5.459,0-.993,0-1.985.035-2.942v-1.7a4.029,4.029,0,0,1,.39-1.737,1.718,1.718,0,0,1,1.631-.886,1.686,1.686,0,0,1,1.489.815,3.849,3.849,0,0,1,.461,1.773v.674c0,.425-.035.851-.071,1.276a6.843,6.843,0,0,0-.035.815v1.418c0,.709,0,1.418.035,2.127V146.7A27.448,27.448,0,0,0,124.735,150.142Z" transform="translate(-91.801 -135.864)"/><path class="b" d="M161.632,141.04v-1.524a1.1,1.1,0,0,0-.319-.815,3.122,3.122,0,0,0-.6-.071,3.948,3.948,0,0,0-.6.071,2.865,2.865,0,0,1-.532.035,3.494,3.494,0,0,1-.6-.071.971.971,0,0,1-.674-.815v-.213a.758.758,0,0,1,.248-.638,1.336,1.336,0,0,1,.851-.355c.709-.071,1.383-.142,2.056-.213.39-.035.815-.071,1.205-.106.177,0,.39-.035.744-.071.5-.035,1.028-.106,1.631-.177s1.17-.106,1.666-.142a5.513,5.513,0,0,1,.709-.035h.319a1.131,1.131,0,0,1,.851.6.856.856,0,0,1-.035.886,1.513,1.513,0,0,1-1.1.6q-.425.053-.744.106a2.337,2.337,0,0,0-.922.213.7.7,0,0,0-.319.567,5.769,5.769,0,0,0-.035.851v7.977c0,2.552,0,5.14.035,7.693v.355c0,.425-.035.851-.071,1.276a2.451,2.451,0,0,1-.567,1.383,1.455,1.455,0,0,1-1.205.461H163.3a1.667,1.667,0,0,1-1.383-.922,4.006,4.006,0,0,1-.39-1.808v-.5c0-.5.035-.993.071-1.453a8.988,8.988,0,0,0,.035-.922V141.04Z" transform="translate(-116.007 -135.413)"/></g><g transform="translate(13.96 74.128)"><path class="c" d="M43.7,210.035A3.854,3.854,0,0,1,44.34,210a3.318,3.318,0,0,1,2.2.638,4.375,4.375,0,0,1,1.312,2.623,3.18,3.18,0,0,1,.071.638v.071a1.854,1.854,0,0,1-.106.638.493.493,0,0,1-.5.284.889.889,0,0,1-.709-.567,5.337,5.337,0,0,1-.39-1.134,3.555,3.555,0,0,0-.425-1.1l-.248-.248a1.126,1.126,0,0,0-.709-.284,1.507,1.507,0,0,0-.39.071l-.177.071-.177.071a3.06,3.06,0,0,0-1.6,1.773,9.674,9.674,0,0,0-.6,3.013c-.035.461-.035.957-.035,1.418,0,.638.035,1.241.071,1.843.106,1.064.213,1.914.355,2.623a8.612,8.612,0,0,0,.461,1.489,3.148,3.148,0,0,0,.922,1.347,1.126,1.126,0,0,0,.709.284,1.893,1.893,0,0,0,.709-.177,2.047,2.047,0,0,0,.922-1.134,6.392,6.392,0,0,0,.355-1.418,5.471,5.471,0,0,1,.248-1.028.683.683,0,0,1,.567-.461h.035a.621.621,0,0,1,.6.319,1.614,1.614,0,0,1,.177.709v.071a4.425,4.425,0,0,1-.071.744A8.869,8.869,0,0,1,47.354,225a3.671,3.671,0,0,1-3.51,2.3,4.68,4.68,0,0,1-1.383-.213,3.606,3.606,0,0,1-2.021-1.879,9.422,9.422,0,0,1-.993-3.155,20.084,20.084,0,0,1-.248-3.226v-.248a16.39,16.39,0,0,1,.213-2.872,12.233,12.233,0,0,1,.638-2.552A5.924,5.924,0,0,1,41.4,211.1,3.611,3.611,0,0,1,43.7,210.035Z" transform="translate(-39.2 -209.681)"/><path class="c" d="M75.966,210.171a3.492,3.492,0,0,1,2.127.957,5.483,5.483,0,0,1,1.205,1.95,13.426,13.426,0,0,1,.6,2.269,19.351,19.351,0,0,1,.248,3.191,19.935,19.935,0,0,1-.461,4.325,9.321,9.321,0,0,1-.993,2.446,4.542,4.542,0,0,1-1.737,1.737,3.545,3.545,0,0,1-1.773.425,8.1,8.1,0,0,1-.886-.071,3.122,3.122,0,0,1-1.666-.851,4.624,4.624,0,0,1-1.028-1.524,10.445,10.445,0,0,1-.6-1.773,18.311,18.311,0,0,1-.567-3.687c-.035-.39-.035-.78-.035-1.17a19.691,19.691,0,0,1,.213-2.907,8.474,8.474,0,0,1,1.276-3.439,4.232,4.232,0,0,1,1.773-1.524,4.17,4.17,0,0,1,1.773-.355A2.659,2.659,0,0,1,75.966,210.171Zm2.021,13.223a14.89,14.89,0,0,0,.425-2.623q.106-1.223.106-2.552c0-.355,0-.709-.035-1.064a12.237,12.237,0,0,0-.532-3.4A2.887,2.887,0,0,0,76.5,211.8a1.763,1.763,0,0,0-.567-.106,1.466,1.466,0,0,0-.674.177,2.646,2.646,0,0,0-.957.922,3.555,3.555,0,0,0-.567,1.17,14.911,14.911,0,0,0-.532,3.4c0,.319-.035.638-.035.922a21.913,21.913,0,0,0,.213,3.013,10.071,10.071,0,0,0,.957,3.3q.585,1.117,1.276,1.17h.177a1.639,1.639,0,0,0,1.1-.5,4.493,4.493,0,0,0,.957-1.489A1.728,1.728,0,0,0,77.987,223.395Z" transform="translate(-59.339 -209.781)"/><path class="c" d="M108.372,221.184a8.635,8.635,0,0,0,.106,1.064,16.432,16.432,0,0,0,.319,1.631,10.442,10.442,0,0,0,.5,1.489c.177.425.425.638.709.638h.035c.248,0,.532-.284.851-.886a10.484,10.484,0,0,0,.638-1.95,11.842,11.842,0,0,0,.284-2.056c.035-1.95.071-3.9.071-5.885v-2.517a3.161,3.161,0,0,1,.106-.78.69.69,0,0,1,.674-.532.647.647,0,0,1,.6.355,1.69,1.69,0,0,1,.177.78c0,.177.035.355.035.5v.638c0,.567.035,1.134.035,1.7.035.744.071,1.489.071,2.269v.886c0,.744-.035,1.631-.106,2.588a16.141,16.141,0,0,1-.461,2.872,7.552,7.552,0,0,1-1.1,2.482,3.943,3.943,0,0,1-2.092,1.489,2.3,2.3,0,0,1-.674.071,1.873,1.873,0,0,1-1.383-.567,5.2,5.2,0,0,1-1.241-2.127,17.512,17.512,0,0,1-.638-2.694c-.142-.886-.213-1.6-.248-2.127-.071-1.489-.142-2.8-.142-3.935,0-.709,0-1.418.035-2.127v-1.064h0a2.9,2.9,0,0,1,.284-1.241c.177-.425.567-.6,1.17-.638a1.276,1.276,0,0,1,1.064.567,2.436,2.436,0,0,1,.319,1.276v.5a8.014,8.014,0,0,1-.035.922c0,.213-.035.425-.035.567v1.028c0,.5,0,1.028.035,1.524v.851C108.336,219.376,108.372,220.192,108.372,221.184Z" transform="translate(-81.996 -210.585)"/><path class="c" d="M143.942,227a1.144,1.144,0,0,1-.744-.284,4.18,4.18,0,0,1-.922-1.879l-.6-1.95a48.046,48.046,0,0,0-1.666-4.609,1.035,1.035,0,0,1-.071-.319.838.838,0,0,1,.5-.744,4.745,4.745,0,0,0,2.2-2.127,3.094,3.094,0,0,0,.319-1.312c0-1.489-1.028-2.482-3.12-3.013l-.035,6.807c0,3.9.035,6.346.071,7.409a3.123,3.123,0,0,1-.213,1.17,1.233,1.233,0,0,1-1.17.638q-1.276-.053-1.383-1.6v-.567a4.75,4.75,0,0,1,.035-.709c.035-2.765.071-4.928.071-6.523,0-1.489-.035-3.651-.071-6.523a2.145,2.145,0,0,1,.319-1.241,1.592,1.592,0,0,1,1.347-.532,5.652,5.652,0,0,1,1.7.248,6.647,6.647,0,0,1,2.411,1.17,4.137,4.137,0,0,1,1.418,1.985,3.753,3.753,0,0,1,.177,1.1,5.2,5.2,0,0,1-.284,1.56,5.729,5.729,0,0,1-2.552,3.049c.567,1.312,1.1,2.588,1.631,3.9l1.17,2.765a3.171,3.171,0,0,1,.354,1.276,1.049,1.049,0,0,1-.071.355C144.687,226.826,144.4,226.967,143.942,227Z" transform="translate(-102.393 -209.1)"/><path class="c" d="M163.975,214.822v-1.1a.62.62,0,0,0-.248-.567,1.779,1.779,0,0,0-.425-.071,1.726,1.726,0,0,0-.425.035,1.589,1.589,0,0,1-.39.035,1.725,1.725,0,0,1-.425-.035c-.248-.035-.39-.248-.461-.6v-.177a.674.674,0,0,1,.177-.461.855.855,0,0,1,.6-.248c.5-.035.993-.106,1.489-.142a6.882,6.882,0,0,1,.851-.071c.106,0,.284-.035.532-.071q.532-.053,1.17-.106c.425-.035.851-.071,1.205-.106.213,0,.39-.035.5-.035h.213a.869.869,0,0,1,.6.425.834.834,0,0,1,.071.284.684.684,0,0,1-.106.354,1.122,1.122,0,0,1-.815.425,3.686,3.686,0,0,1-.532.071,2.159,2.159,0,0,0-.674.142.521.521,0,0,0-.248.425,2.878,2.878,0,0,0-.035.6v5.743c0,1.843,0,3.687.035,5.53v.248a8.731,8.731,0,0,1-.071.922,1.786,1.786,0,0,1-.39.993,1.047,1.047,0,0,1-.851.319h-.248a1.211,1.211,0,0,1-.993-.674,2.825,2.825,0,0,1-.284-1.276v-.354c0-.355,0-.709.035-1.064,0-.248.035-.461.035-.674V217.3A19.375,19.375,0,0,0,163.975,214.822Z" transform="translate(-118.208 -210.391)"/></g><path class="b" d="M10.237,106c-2.659-.071-5.318-.142-7.941-.248a4.05,4.05,0,0,1-2.056-2.73c-.248-1.453-.106-9.04-.035-12.2a1.392,1.392,0,0,1,1.418-1.383h0a1.427,1.427,0,0,1,1.418,1.524L2.3,103.34c2.659-.106,5.318-.177,7.941-.248a1.476,1.476,0,0,1,1.524,1.453h0A1.5,1.5,0,0,1,10.237,106Zm51.191-1.453a1.93,1.93,0,0,1,1.985-1.95h.177c1.453.035,2.872.142,4.36.213,2.942.213,5.956.5,9.182.851-.142-3.687-.213-7.3-.213-10.954a1.082,1.082,0,0,1,1.205-1.064h0a1.1,1.1,0,0,1,.957,1.064c0,4.219-.071,8.473-.213,12.656-3.049.319-6.346.638-9.749.851q-2.552.16-5.1.213h-.567a1.882,1.882,0,0,1-2.021-1.879ZM59.089,1.524A1.37,1.37,0,0,1,60.507.142c5.849.035,11.7.106,17.513.177h.035a1.218,1.218,0,0,1,1.205,1.205h0L79.119,13.33a1.075,1.075,0,0,1-1.1,1.064h0a1.1,1.1,0,0,1-1.1-1.064L76.779,1.524,77.984,2.73c-5.849.071-11.7.142-17.513.177a1.384,1.384,0,0,1-1.383-1.383ZM19.7,3.013C13.889,2.978,8.075,2.907,2.261,2.73L3.466,1.524c.461,7.87.709,15.74.886,23.575a2.1,2.1,0,0,1-2.127,2.163h0A2.118,2.118,0,0,1,.1,25.1c.213-7.87.5-15.74.957-23.575V1.489A1.3,1.3,0,0,1,2.261.284C8.075.106,13.889.035,19.7,0a1.513,1.513,0,0,1,1.524,1.524h0A1.553,1.553,0,0,1,19.7,3.013Z" transform="translate(0)"/></g></svg>