<svg xmlns="http://www.w3.org/2000/svg" viewBox="0 0 22.986 24.795"><defs><style>.a{fill:#fff;stroke-linejoin:round;}.b{fill:#fbbe44;}.c,.d{stroke:none;}</style></defs><g transform="translate(-167.017 -171.166)"><g transform="matrix(0.719, 0.695, -0.695, 0.719, 178.884, 179.96)"><g class="a" transform="translate(13.495 0) rotate(41)"><path class="c" d="M 1.345242738723755 21.07036209106445 C 1.345175981521606 21.07036209106445 1.345133781433105 21.07036209106445 1.345067024230957 21.07036209106445 C -0.2114429622888565 21.07022285461426 -0.4261229634284973 19.22100257873535 -0.496662974357605 18.61333274841309 L -0.5018029808998108 18.56908226013184 L -0.4990329742431641 18.52462196350098 L 0.5429970622062683 1.777882814407349 C 0.5785170197486877 1.127492904663086 0.6159270405769348 0.6706228852272034 0.8026770353317261 0.2952328622341156 C 1.036187052726746 -0.1741371303796768 1.468767046928406 -0.4312571287155151 2.125137090682983 -0.4908271431922913 C 2.192147016525269 -0.4969171285629272 2.259667158126831 -0.4999971389770508 2.325807094573975 -0.4999971389770508 C 2.88599705696106 -0.4999971389770508 3.392396926879883 -0.2828071415424347 3.751747131347656 0.1115628629922867 C 4.133265972137451 0.5302726030349731 4.311744689941406 1.106407880783081 4.254611492156982 1.734288692474365 C 4.158415794372559 3.064069509506226 4.052850246429443 5.070248603820801 3.941107034683228 7.193963050842285 C 3.694144248962402 11.88761901855469 3.41439414024353 17.20373344421387 3.072471380233765 18.63391304016113 C 2.854126930236816 20.17401313781738 2.359274864196777 20.73428344726562 2.26181697845459 20.83136367797852 L 2.172707080841064 20.92013359069824 L 2.052196979522705 20.95617294311523 C 1.795275449752808 21.03300857543945 1.564003586769104 21.07036209106445 1.345242738723755 21.07036209106445 Z"/><path class="d" d="M 1.345114231109619 20.57036018371582 C 1.518016815185547 20.57037544250488 1.705992460250854 20.53782653808594 1.908946990966797 20.47713279724121 C 1.908946990966797 20.47713279724121 2.376477003097534 20.01139259338379 2.580776929855347 18.5398120880127 C 3.069157123565674 16.57136344909668 3.451807022094727 5.897822856903076 3.756267070770264 1.693402886390686 C 3.847976684570312 0.7088230848312378 3.212601661682129 2.749328587015043e-06 2.325808525085449 2.749328587015043e-06 C 2.274748563766479 2.749328587015043e-06 2.222974061965942 0.002344917273148894 2.170336961746216 0.007122866343706846 C 1.15956699848175 0.09886286407709122 1.10388708114624 0.6769528388977051 1.042026996612549 1.808932900428772 L -2.960090569104068e-06 18.55567359924316 C 0.1682839244604111 20.00525856018066 0.6249414682388306 20.5702953338623 1.345114231109619 20.57036018371582 M 1.345197081565857 21.57036209106445 C 1.34516704082489 21.57036209106445 1.345126986503601 21.57036209106445 1.345097064971924 21.57036209106445 C 0.6405570507049561 21.57029342651367 0.0529470406472683 21.26213264465332 -0.3542129695415497 20.67920303344727 C -0.6818529367446899 20.21012306213379 -0.8909029364585876 19.55323219299316 -0.9933329820632935 18.67099380493164 C -1.000162959098816 18.61211204528809 -1.001752972602844 18.55273246765137 -0.9980729818344116 18.49357223510742 L 0.04372328892350197 1.750589489936829 C 0.07697739452123642 1.142095446586609 0.1088389679789543 0.5673538446426392 0.3550170361995697 0.07252286374568939 C 0.6678070425987244 -0.5562171339988708 1.248157024383545 -0.9132871627807617 2.079946994781494 -0.9887871146202087 C 2.161877155303955 -0.9962271451950073 2.244606971740723 -0.9999971389770508 2.325807094573975 -0.9999971389770508 C 3.028407096862793 -0.9999971389770508 3.666067123413086 -0.7248371243476868 4.121326923370361 -0.2251971364021301 C 4.597521305084229 0.2974162995815277 4.821627140045166 1.007243633270264 4.753002643585205 1.774678826332092 C 4.657236099243164 3.099583625793457 4.551914691925049 5.101259231567383 4.440416812896729 7.220242977142334 C 4.132581233978271 13.07073497772217 3.888596534729004 17.3347282409668 3.56425952911377 18.72688102722168 C 3.327702760696411 20.36526298522949 2.778669357299805 21.02225494384766 2.614696979522705 21.18559265136719 C 2.49770712852478 21.30214309692383 2.353667020797729 21.38790321350098 2.195446968078613 21.43521308898926 C 1.891337037086487 21.52615356445312 1.613216996192932 21.57036209106445 1.345197081565857 21.57036209106445 Z"/></g><path class="b" d="M1.818,17.323C2.279,15.5,2.842,5.174,3.142,1.28,3.236.315,2.773.122,2.18,0,1.243.089,1.031.723.817,1.726L.059,18.315C-.12,19.65.1,19.95.813,19.784.9,19.77,1.456,20.224,1.818,17.323Z" transform="translate(13.677 1.034) rotate(41)"/></g><g transform="matrix(0.719, 0.695, -0.695, 0.719, 178.884, 171.417)"><g class="a" transform="translate(13.495 0) rotate(41)"><path class="c" d="M 1.345242738723755 21.07036209106445 C 1.345175981521606 21.07036209106445 1.345133781433105 21.07036209106445 1.345067024230957 21.07036209106445 C -0.2114429622888565 21.07022285461426 -0.4261229634284973 19.22100257873535 -0.496662974357605 18.61333274841309 L -0.5018029808998108 18.56908226013184 L -0.4990329742431641 18.52462196350098 L 0.5429970622062683 1.777882814407349 C 0.5785170197486877 1.127492904663086 0.6159270405769348 0.6706228852272034 0.8026770353317261 0.2952328622341156 C 1.036187052726746 -0.1741371303796768 1.468767046928406 -0.4312571287155151 2.125137090682983 -0.4908271431922913 C 2.192147016525269 -0.4969171285629272 2.259667158126831 -0.4999971389770508 2.325807094573975 -0.4999971389770508 C 2.88599705696106 -0.4999971389770508 3.392396926879883 -0.2828071415424347 3.751747131347656 0.1115628629922867 C 4.133265972137451 0.5302726030349731 4.311744689941406 1.106407880783081 4.254611492156982 1.734288692474365 C 4.158415794372559 3.064069509506226 4.052850246429443 5.070248603820801 3.941107034683228 7.193963050842285 C 3.694144248962402 11.88761901855469 3.41439414024353 17.20373344421387 3.072471380233765 18.63391304016113 C 2.854126930236816 20.17401313781738 2.359274864196777 20.73428344726562 2.26181697845459 20.83136367797852 L 2.172707080841064 20.92013359069824 L 2.052196979522705 20.95617294311523 C 1.795275449752808 21.03300857543945 1.564003586769104 21.07036209106445 1.345242738723755 21.07036209106445 Z"/><path class="d" d="M 1.345114231109619 20.57036018371582 C 1.518016815185547 20.57037544250488 1.705992460250854 20.53782653808594 1.908946990966797 20.47713279724121 C 1.908946990966797 20.47713279724121 2.376477003097534 20.01139259338379 2.580776929855347 18.5398120880127 C 3.069157123565674 16.57136344909668 3.451807022094727 5.897822856903076 3.756267070770264 1.693402886390686 C 3.847976684570312 0.7088230848312378 3.212601661682129 2.749328587015043e-06 2.325808525085449 2.749328587015043e-06 C 2.274748563766479 2.749328587015043e-06 2.222974061965942 0.002344917273148894 2.170336961746216 0.007122866343706846 C 1.15956699848175 0.09886286407709122 1.10388708114624 0.6769528388977051 1.042026996612549 1.808932900428772 L -2.960090569104068e-06 18.55567359924316 C 0.1682839244604111 20.00525856018066 0.6249414682388306 20.5702953338623 1.345114231109619 20.57036018371582 M 1.345197081565857 21.57036209106445 C 1.34516704082489 21.57036209106445 1.345126986503601 21.57036209106445 1.345097064971924 21.57036209106445 C 0.6405570507049561 21.57029342651367 0.0529470406472683 21.26213264465332 -0.3542129695415497 20.67920303344727 C -0.6818529367446899 20.21012306213379 -0.8909029364585876 19.55323219299316 -0.9933329820632935 18.67099380493164 C -1.000162959098816 18.61211204528809 -1.001752972602844 18.55273246765137 -0.9980729818344116 18.49357223510742 L 0.04372328892350197 1.750589489936829 C 0.07697739452123642 1.142095446586609 0.1088389679789543 0.5673538446426392 0.3550170361995697 0.07252286374568939 C 0.6678070425987244 -0.5562171339988708 1.248157024383545 -0.9132871627807617 2.079946994781494 -0.9887871146202087 C 2.161877155303955 -0.9962271451950073 2.244606971740723 -0.9999971389770508 2.325807094573975 -0.9999971389770508 C 3.028407096862793 -0.9999971389770508 3.666067123413086 -0.7248371243476868 4.121326923370361 -0.2251971364021301 C 4.597521305084229 0.2974162995815277 4.821627140045166 1.007243633270264 4.753002643585205 1.774678826332092 C 4.657236099243164 3.099583625793457 4.551914691925049 5.101259231567383 4.440416812896729 7.220242977142334 C 4.132581233978271 13.07073497772217 3.888596534729004 17.3347282409668 3.56425952911377 18.72688102722168 C 3.327702760696411 20.36526298522949 2.778669357299805 21.02225494384766 2.614696979522705 21.18559265136719 C 2.49770712852478 21.30214309692383 2.353667020797729 21.38790321350098 2.195446968078613 21.43521308898926 C 1.891337037086487 21.52615356445312 1.613216996192932 21.57036209106445 1.345197081565857 21.57036209106445 Z"/></g><path class="b" d="M1.818,17.323C2.279,15.5,2.842,5.174,3.142,1.28,3.236.315,2.773.122,2.18,0,1.243.089,1.031.723.817,1.726L.059,18.315C-.12,19.65.1,19.95.813,19.784.9,19.77,1.456,20.224,1.818,17.323Z" transform="translate(13.677 1.034) rotate(41)"/></g><g transform="matrix(0.719, 0.695, -0.695, 0.719, 178.884, 162.875)"><g class="a" transform="translate(13.495 0) rotate(41)"><path class="c" d="M 1.345242738723755 21.07036209106445 C 1.345175981521606 21.07036209106445 1.345133781433105 21.07036209106445 1.345067024230957 21.07036209106445 C -0.2114429622888565 21.07022285461426 -0.4261229634284973 19.22100257873535 -0.496662974357605 18.61333274841309 L -0.5018029808998108 18.56908226013184 L -0.4990329742431641 18.52462196350098 L 0.5429970622062683 1.777882814407349 C 0.5785170197486877 1.127492904663086 0.6159270405769348 0.6706228852272034 0.8026770353317261 0.2952328622341156 C 1.036187052726746 -0.1741371303796768 1.468767046928406 -0.4312571287155151 2.125137090682983 -0.4908271431922913 C 2.192147016525269 -0.4969171285629272 2.259667158126831 -0.4999971389770508 2.325807094573975 -0.4999971389770508 C 2.88599705696106 -0.4999971389770508 3.392396926879883 -0.2828071415424347 3.751747131347656 0.1115628629922867 C 4.133265972137451 0.5302726030349731 4.311744689941406 1.106407880783081 4.254611492156982 1.734288692474365 C 4.158415794372559 3.064069509506226 4.052850246429443 5.070248603820801 3.941107034683228 7.193963050842285 C 3.694144248962402 11.88761901855469 3.41439414024353 17.20373344421387 3.072471380233765 18.63391304016113 C 2.854126930236816 20.17401313781738 2.359274864196777 20.73428344726562 2.26181697845459 20.83136367797852 L 2.172707080841064 20.92013359069824 L 2.052196979522705 20.95617294311523 C 1.795275449752808 21.03300857543945 1.564003586769104 21.07036209106445 1.345242738723755 21.07036209106445 Z"/><path class="d" d="M 1.345114231109619 20.57036018371582 C 1.518016815185547 20.57037544250488 1.705992460250854 20.53782653808594 1.908946990966797 20.47713279724121 C 1.908946990966797 20.47713279724121 2.376477003097534 20.01139259338379 2.580776929855347 18.5398120880127 C 3.069157123565674 16.57136344909668 3.451807022094727 5.897822856903076 3.756267070770264 1.693402886390686 C 3.847976684570312 0.7088230848312378 3.212601661682129 2.749328587015043e-06 2.325808525085449 2.749328587015043e-06 C 2.274748563766479 2.749328587015043e-06 2.222974061965942 0.002344917273148894 2.170336961746216 0.007122866343706846 C 1.15956699848175 0.09886286407709122 1.10388708114624 0.6769528388977051 1.042026996612549 1.808932900428772 L -2.960090569104068e-06 18.55567359924316 C 0.1682839244604111 20.00525856018066 0.6249414682388306 20.5702953338623 1.345114231109619 20.57036018371582 M 1.345197081565857 21.57036209106445 C 1.34516704082489 21.57036209106445 1.345126986503601 21.57036209106445 1.345097064971924 21.57036209106445 C 0.6405570507049561 21.57029342651367 0.0529470406472683 21.26213264465332 -0.3542129695415497 20.67920303344727 C -0.6818529367446899 20.21012306213379 -0.8909029364585876 19.55323219299316 -0.9933329820632935 18.67099380493164 C -1.000162959098816 18.61211204528809 -1.001752972602844 18.55273246765137 -0.9980729818344116 18.49357223510742 L 0.04372328892350197 1.750589489936829 C 0.07697739452123642 1.142095446586609 0.1088389679789543 0.5673538446426392 0.3550170361995697 0.07252286374568939 C 0.6678070425987244 -0.5562171339988708 1.248157024383545 -0.9132871627807617 2.079946994781494 -0.9887871146202087 C 2.161877155303955 -0.9962271451950073 2.244606971740723 -0.9999971389770508 2.325807094573975 -0.9999971389770508 C 3.028407096862793 -0.9999971389770508 3.666067123413086 -0.7248371243476868 4.121326923370361 -0.2251971364021301 C 4.597521305084229 0.2974162995815277 4.821627140045166 1.007243633270264 4.753002643585205 1.774678826332092 C 4.657236099243164 3.099583625793457 4.551914691925049 5.101259231567383 4.440416812896729 7.220242977142334 C 4.132581233978271 13.07073497772217 3.888596534729004 17.3347282409668 3.56425952911377 18.72688102722168 C 3.327702760696411 20.36526298522949 2.778669357299805 21.02225494384766 2.614696979522705 21.18559265136719 C 2.49770712852478 21.30214309692383 2.353667020797729 21.38790321350098 2.195446968078613 21.43521308898926 C 1.891337037086487 21.52615356445312 1.613216996192932 21.57036209106445 1.345197081565857 21.57036209106445 Z"/></g><path class="b" d="M1.818,17.323C2.279,15.5,2.842,5.174,3.142,1.28,3.236.315,2.773.122,2.18,0,1.243.089,1.031.723.817,1.726L.059,18.315C-.12,19.65.1,19.95.813,19.784.9,19.77,1.456,20.224,1.818,17.323Z" transform="translate(13.677 1.034) rotate(41)"/></g></g></svg>