<svg xmlns="http://www.w3.org/2000/svg" viewBox="0 0 22.813 21"><defs><style>.a{fill:#fbbe44;}.b{fill:#ed4c49;}.c{fill:#fff;}.d{fill:#ec603e;}.e{fill:none;stroke:#000;stroke-linecap:round;stroke-linejoin:round;}</style></defs><g transform="translate(3.5 -1.5)"><circle class="a" cx="10" cy="10" r="10" transform="translate(-3 2)"/><path class="b" d="M16.362,9A7.3,7.3,0,0,1,20.7,10.434L10.467,20.667A7.332,7.332,0,0,1,16.362,9Zm0,14.664a7.3,7.3,0,0,1-4.334-1.434L22.257,12a7.332,7.332,0,0,1-5.895,11.667Z" transform="translate(-4.362 -4.332)"/><path class="c" d="M16.362,9A7.3,7.3,0,0,1,20.7,10.434L10.467,20.667A7.332,7.332,0,0,1,16.362,9Zm0,14.664a7.3,7.3,0,0,1-4.334-1.434L22.257,12a7.332,7.332,0,0,1-5.895,11.667Z" transform="translate(-4.362 -4.332)"/><ellipse class="d" cx="8.5" cy="10" rx="8.5" ry="10" transform="translate(0 2)"/><circle class="e" cx="10" cy="10" r="10" transform="translate(-3 2)"/><path class="e" d="M16.362,9A7.3,7.3,0,0,1,20.7,10.434L10.467,20.667A7.332,7.332,0,0,1,16.362,9Zm0,14.664a7.3,7.3,0,0,1-4.334-1.434L22.257,12a7.332,7.332,0,0,1-5.895,11.667Z" transform="translate(-9.362 -4.332)"/></g></svg>