<svg xmlns="http://www.w3.org/2000/svg" viewBox="0 0 20 16"><defs><style>.a{fill:#006381;}.b{fill:none;}</style></defs><g transform="translate(22 30) rotate(180)"><path class="a" d="M16,14H3.667a1,1,0,0,0,0,2H16a4,4,0,1,1,0,8H5.891l2.454-2.265a1,1,0,1,0-1.357-1.47L2,25l4.988,4.735a1,1,0,1,0,1.357-1.47L5.891,26H16a6,6,0,1,0,0-12Z"/><path class="b" d="M16,14H3.667a1,1,0,0,0,0,2H16a4,4,0,1,1,0,8H5.891l2.454-2.265a1,1,0,1,0-1.357-1.47L2,25l4.988,4.735a1,1,0,1,0,1.357-1.47L5.891,26H16a6,6,0,1,0,0-12Z"/></g></svg>