<svg xmlns="http://www.w3.org/2000/svg" viewBox="0 0 27 25.268"><defs><style>.a{fill:#9bcad9;}.a,.b{opacity:0.223;}.b{fill:#fbbe44;}.c{fill:#006381;}.d{fill:none;stroke:#000;stroke-linecap:round;stroke-linejoin:round;}</style></defs><g transform="translate(-1.5 -3.5)"><path class="a" d="M12.537,28.267,10.25,26.533,8,28.267V4H26V28.267l-2.25-1.733L21.5,28.267l-2.25-1.733L17,28.267l-2.25-1.733-2.213,1.733" transform="translate(-1)"/><path class="b" d="M8.5,28.267,8.25,26.533,8,28.267V4h2V28.267l-.25-1.733L9.5,28.267l-.25-1.733L9,28.267l-.25-1.733L8.5,28.267" transform="translate(-3)"/><path class="c" d="M8,4H26v9H8Z" transform="translate(-1)"/><path class="d" d="M8.933,8.333h6.933M8.933,17h6.933M8.933,11.8h5.2m-5.2,8.667h5.2m5.2-12.133h1.733M19.333,17h1.733m-1.733-5.2h1.733m-1.733,8.667h1.733m-11.223,7.8L12.4,26.533,15,28.267l2.6-1.733,2.6,1.733,2.6-1.733,2.6,1.733V4M9.843,28.267,7.2,26.533,4.6,28.267V4M20.2,28.267ZM15,28.267ZM9.843,28.267ZM2,4H28"/></g></svg>