<svg xmlns="http://www.w3.org/2000/svg" viewBox="0 0 12.248 14.623"><defs><style>.a{fill:#fbbe44;}.b{fill:#000064;opacity:0.15;}.c{fill:none;stroke:#000;stroke-linecap:round;stroke-linejoin:round;stroke-miterlimit:10;stroke-width:0.5px;}</style></defs><g transform="translate(-512.745 -330.77)"><g transform="translate(511.083 329.019)"><path class="a" d="M13.125,13.212c.259.235.682.564.494,1.152a2.94,2.94,0,0,1-3.22,1.692c-1.927-.306-4.066-2.186-5.829-4.584S1.678,6.49,1.96,4.562A3.09,3.09,0,0,1,4.569,2c.47,0,.8.494.964.823l1.1,2.445a1.058,1.058,0,0,1-.494,1.363c-.705.4-1.833.87.165,3.6s2.774,1.763,3.385,1.222a1.058,1.058,0,0,1,1.434-.047Z" transform="translate(0)"/><path class="b" d="M11.105,17.64c-1.927-.306-4.066-2.186-5.806-4.584S2.385,8.074,2.667,6.146A3.009,3.009,0,0,1,2.926,5.3a2.938,2.938,0,0,0-.964,1.786C1.68,9.014,2.832,11.6,4.571,14s3.9,4.3,5.829,4.584a3.113,3.113,0,0,0,3.22-1.692A3.032,3.032,0,0,1,11.105,17.64Z" transform="translate(-0.002 -2.524)"/><path class="c" d="M13.125,13.212c.259.235.682.564.494,1.152a2.94,2.94,0,0,1-3.22,1.692c-1.927-.306-4.066-2.186-5.829-4.584S1.678,6.49,1.96,4.562A3.09,3.09,0,0,1,4.569,2c.47,0,.8.494.964.823l1.1,2.445a1.058,1.058,0,0,1-.494,1.363c-.705.4-1.833.87.165,3.6s2.774,1.763,3.385,1.222a1.058,1.058,0,0,1,1.434-.047Z" transform="translate(0)"/></g></g></svg>