<svg xmlns="http://www.w3.org/2000/svg" viewBox="0 0 69.682 69.918"><defs><style>.a{fill:#006381;}.b{fill:none;stroke-linecap:round;stroke-linejoin:round;}.c,.d{stroke:none;}</style></defs><g transform="translate(-1529.204 -401.277)"><path class="a" d="M3.458,43.873c6.031-.178,35.821,1.634,37.632.36a5.2,5.2,0,0,0,4.581-2.105c.482-.729-.12-3.278.083-4.738.563-3.644.243-25.672.083-33.582C45.836,1.852,44.377,0,42.608,0h0c-1.85,0-2.062,2.16-2.293,4.17L41.74,39.145c-6.031-.267-32.3-1.755-38.251-1.933-1.85-.089-5.248,1.489-5.248,3.533C-1.679,42.789,1.608,43.962,3.458,43.873Z" transform="translate(1533.097 439.241) rotate(-49)"/><g class="b" transform="translate(1532.025 439.325) rotate(-49)"><path class="c" d="M3.735,43.834c6.514-.192,35.4.994,37.857.113A6.61,6.61,0,0,0,45.4,42.425c.832-.771.96-2.8,1.084-3.7.608-3.936-.384-26.44-.558-34.983A3.594,3.594,0,0,0,42.449,0h0a3.721,3.721,0,0,0-3.474,4.127l1.824,33.5c-6.514-.288-30.637-1.473-37.065-1.665A3.8,3.8,0,0,0,0,39.9,3.853,3.853,0,0,0,3.735,43.834Z"/><path class="d" d="M 34.50492477416992 44.27627944946289 C 38.20476913452148 44.27627944946289 40.91169738769531 44.19097137451172 41.59171676635742 43.94702529907227 C 41.59171676635742 43.94702529907227 43.86354827880859 43.85642242431641 45.3972282409668 42.42460250854492 C 46.22915649414062 41.65329360961914 46.35685729980469 39.62050247192383 46.48137664794922 38.72603225708008 C 47.08933639526367 34.79053497314453 46.09714889526367 12.28644371032715 45.92343902587891 3.743473529815674 C 45.92343902587891 1.631733536720276 44.360107421875 1.356384291284485e-05 42.44935607910156 1.356384291284485e-05 C 40.45176696777344 1.356384291284485e-05 38.888427734375 1.823713541030884 38.97527694702148 4.127503395080566 L 40.79918670654297 37.62728500366211 C 34.28528594970703 37.33938217163086 10.16168785095215 36.15445327758789 3.73463773727417 35.96239471435547 C 3.684283256530762 35.95997619628906 3.634012937545776 35.95877838134766 3.584012985229492 35.95877838134766 C 1.650488138198853 35.95877838134766 1.7734375433065e-05 37.74589538574219 1.7734375433065e-05 39.89804458618164 C 0.0846678614616394 42.0497932434082 1.654760122299194 43.83699035644531 3.583846569061279 43.83718490600586 C 3.633979558944702 43.83718872070312 3.684039354324341 43.83598709106445 3.73463773727417 43.83355331420898 C 4.236380577087402 43.81876754760742 4.872541904449463 43.8121452331543 5.61747932434082 43.8121452331543 C 11.86444854736328 43.8121452331543 25.87847709655762 44.27627944946289 34.50492477416992 44.27627944946289 M 34.50492858886719 46.27628326416016 C 29.82271766662598 46.27628326416016 23.45497703552246 46.13788223266602 17.83683776855469 46.01577377319336 C 13.01869773864746 45.91105270385742 8.467758178710938 45.8121452331543 5.617477893829346 45.8121452331543 C 4.878244876861572 45.8121452331543 4.270153999328613 45.81889343261719 3.809640884399414 45.83221435546875 C 3.734531164169312 45.83551025390625 3.658887147903442 45.83718490600586 3.584467649459839 45.83718490600586 C 2.082557678222656 45.83703231811523 0.6726677417755127 45.18898391723633 -0.3862922787666321 44.01241302490234 C -1.366352319717407 42.92349243164062 -1.938892245292664 41.49024200439453 -1.998432278633118 39.97666168212891 C -1.999462246894836 39.95047378540039 -1.999982237815857 39.92425537109375 -1.999982237815857 39.89804458618164 C -1.999982237815857 38.35950469970703 -1.435052275657654 36.8941650390625 -0.409252256155014 35.77197265625 C 0.6440677046775818 34.61966323852539 2.099557638168335 33.95878219604492 3.584017753601074 33.95878219604492 C 3.659067630767822 33.95878219604492 3.73494815826416 33.96045303344727 3.809909582138062 33.96374893188477 C 8.372963905334473 34.10064315795898 21.70079040527344 34.72956848144531 31.43515777587891 35.18892288208008 C 34.22533416748047 35.32059478759766 36.75278091430664 35.43986129760742 38.68198776245117 35.52901077270508 L 36.97823715209961 4.236233711242676 C 36.97762680053711 4.225113391876221 36.97711944580078 4.213983535766602 36.9766960144043 4.20284366607666 C 36.91145706176758 2.47226357460022 37.52032852172852 0.8086035847663879 38.64718627929688 -0.36153644323349 C 39.66467666625977 -1.418106436729431 41.01497650146484 -1.999986410140991 42.44935607910156 -1.999986410140991 C 43.9378776550293 -1.999986410140991 45.32749938964844 -1.391916394233704 46.36224746704102 -0.2877764403820038 C 47.36402130126953 0.7811626195907593 47.91794586181641 2.204078435897827 47.92339706420898 3.720949411392212 C 47.97017669677734 6.011792659759521 48.07394409179688 9.249805450439453 48.19404602050781 12.997633934021 C 48.6103515625 25.98854827880859 48.89432907104492 36.15655136108398 48.46060562133789 39.01389312744141 C 48.4470329284668 39.11273193359375 48.43225479125977 39.23661422729492 48.41524887084961 39.37917327880859 C 48.25647354125977 40.71012878417969 48.01648712158203 42.72112655639648 46.75944137573242 43.88897705078125 C 45.03644943237305 45.49576950073242 42.77160263061523 45.84892272949219 41.95411682128906 45.92551040649414 C 41.21726989746094 46.11415863037109 39.65896224975586 46.27628326416016 34.50492858886719 46.27628326416016 Z"/></g></g></svg>