<svg xmlns="http://www.w3.org/2000/svg" width="56.081" height="52.838" viewBox="0 0 56.081 52.838">
  <g id="warning" transform="translate(0 -14.801)">
    <path id="Tracé_945" data-name="Tracé 945" d="M54.927,55.218,35.105,18.809a8.23,8.23,0,0,0-14.13,0L1.154,55.218A8.206,8.206,0,0,0,1.089,63.5a8.107,8.107,0,0,0,7.13,4.14H47.862a8.107,8.107,0,0,0,7.13-4.14A8.206,8.206,0,0,0,54.927,55.218Z" transform="translate(0)"/>
    <path id="Tracé_946" data-name="Tracé 946" d="M282.952,63.5a8.107,8.107,0,0,1-7.13,4.14H256V14.8a8.2,8.2,0,0,1,7.065,4.009l19.821,36.409A8.205,8.205,0,0,1,282.952,63.5Z" transform="translate(-227.959)"/>
    <path id="Tracé_947" data-name="Tracé 947" d="M78.816,83.608,59,47.2a4.945,4.945,0,0,0-8.478,0L30.7,83.608a4.95,4.95,0,0,0,4.239,7.459H74.577a4.95,4.95,0,0,0,4.239-7.459Z" transform="translate(-26.716 -26.714)" fill="#fbbe44"/>
    <path id="Tracé_948" data-name="Tracé 948" d="M280.093,88.569a4.85,4.85,0,0,1-4.272,2.5H256V44.8a4.88,4.88,0,0,1,4.239,2.4L280.06,83.608A4.88,4.88,0,0,1,280.093,88.569Z" transform="translate(-227.959 -26.714)" fill="#fff" opacity="0.324"/>
    <g id="Groupe_1223" data-name="Groupe 1223" transform="translate(24.755 28.207)">
      <path id="Tracé_949" data-name="Tracé 949" d="M229.286,383.772a3.286,3.286,0,1,1,3.286-3.286A3.29,3.29,0,0,1,229.286,383.772Z" transform="translate(-226 -350.912)"/>
      <path id="Tracé_950" data-name="Tracé 950" d="M232.572,156.916a3.286,3.286,0,1,1-6.572,0v-16.43a3.286,3.286,0,0,1,6.572,0Z" transform="translate(-226 -137.2)"/>
    </g>
    <g id="Groupe_1224" data-name="Groupe 1224" transform="translate(28.041 28.207)">
      <path id="Tracé_951" data-name="Tracé 951" d="M259.286,380.486A3.29,3.29,0,0,0,256,377.2v6.572A3.29,3.29,0,0,0,259.286,380.486Z" transform="translate(-256 -350.912)" fill="#3e3e3e"/>
      <path id="Tracé_952" data-name="Tracé 952" d="M259.286,156.916v-16.43A3.29,3.29,0,0,0,256,137.2v23A3.29,3.29,0,0,0,259.286,156.916Z" transform="translate(-256 -137.2)" fill="#3e3e3e"/>
    </g>
  </g>
</svg>
