<svg xmlns="http://www.w3.org/2000/svg" viewBox="0 0 64.182 64.182"><defs><style>.a{fill:#f0f0f0;}.b{fill:#fff;}</style></defs><path class="a" d="M21.945,0c12.12,0,21.945,17.73,21.945,29.849S34.064,46.877,21.945,46.877,0,41.969,0,29.849,9.825,0,21.945,0Z" transform="translate(33.147 0) rotate(45)"/><path class="b" d="M17.311,4.88a1.256,1.256,0,1,1-1.256-1.256A1.256,1.256,0,0,1,17.311,4.88Zm-6.844,9.077a3.489,3.489,0,1,1,3.489-3.489,3.489,3.489,0,0,1-3.489,3.489Zm0-8.865a5.375,5.375,0,1,0,5.375,5.375,5.375,5.375,0,0,0-5.375-5.375Zm0-3.206c2.8,0,3.126.01,4.23.061a5.79,5.79,0,0,1,1.944.36,3.244,3.244,0,0,1,1.2.783,3.241,3.241,0,0,1,.783,1.2,5.794,5.794,0,0,1,.36,1.944c.05,1.1.061,1.435.061,4.23s-.011,3.126-.061,4.23a5.79,5.79,0,0,1-.36,1.944,3.467,3.467,0,0,1-1.987,1.987,5.794,5.794,0,0,1-1.944.36c-1.1.05-1.433.061-4.23.061s-3.125-.011-4.23-.061a5.79,5.79,0,0,1-1.943-.36,3.244,3.244,0,0,1-1.2-.783,3.243,3.243,0,0,1-.783-1.2,5.794,5.794,0,0,1-.36-1.944c-.05-1.1-.062-1.435-.062-4.23s.011-3.126.061-4.23a5.79,5.79,0,0,1,.36-1.944,3.244,3.244,0,0,1,.783-1.2,3.241,3.241,0,0,1,1.2-.783,5.794,5.794,0,0,1,1.944-.36c1.1-.05,1.434-.061,4.23-.061Zm0-1.887c-2.843,0-3.2.012-4.316.063A7.683,7.683,0,0,0,3.611.55,5.129,5.129,0,0,0,1.757,1.757,5.129,5.129,0,0,0,.55,3.611a7.684,7.684,0,0,0-.487,2.54C.012,7.268,0,7.625,0,10.468s.012,3.2.063,4.316a7.684,7.684,0,0,0,.487,2.54,5.129,5.129,0,0,0,1.207,1.855,5.131,5.131,0,0,0,1.855,1.207,7.684,7.684,0,0,0,2.54.486c1.116.051,1.472.063,4.316.063s3.2-.012,4.316-.063a7.684,7.684,0,0,0,2.541-.486,5.353,5.353,0,0,0,3.062-3.062,7.684,7.684,0,0,0,.487-2.541c.05-1.116.062-1.473.062-4.316s-.012-3.2-.063-4.316a7.684,7.684,0,0,0-.486-2.541,5.131,5.131,0,0,0-1.207-1.855A5.131,5.131,0,0,0,17.324.549a7.684,7.684,0,0,0-2.54-.487C13.667.012,13.31,0,10.468,0Z" transform="translate(19.831 22.312)"/></svg>