<svg xmlns="http://www.w3.org/2000/svg" viewBox="0 0 64.182 64.182"><defs><style>.a{fill:#0077b7;}.b{fill:#fff;}</style></defs><g transform="translate(0 0)"><path class="a" d="M21.945,0c12.12,0,21.945,17.73,21.945,29.849S34.064,46.877,21.945,46.877,0,41.969,0,29.849,9.825,0,21.945,0Z" transform="translate(33.147 0) rotate(45)"/></g><path class="b" d="M.384,8.984H4.73V22.12H.384ZM15.943,8.55A4.866,4.866,0,0,0,11.7,10.789v-1.8H7.353V22.12h4.379V15c0-1.5.769-2.975,2.507-2.975a2.822,2.822,0,0,1,2.774,2.941V22.12h4.379V14.666C21.392,9.485,17.882,8.55,15.943,8.55ZM2.574,2.6A2.443,2.443,0,0,0,0,4.906,2.443,2.443,0,0,0,2.574,7.213,2.443,2.443,0,0,0,5.147,4.906,2.443,2.443,0,0,0,2.574,2.6Z" transform="translate(21.219 20.247)"/></svg>