<?xml version="1.0" standalone="no"?>
<!DOCTYPE svg PUBLIC "-//W3C//DTD SVG 20010904//EN"
 "http://www.w3.org/TR/2001/REC-SVG-20010904/DTD/svg10.dtd">
<svg version="1.0" xmlns="http://www.w3.org/2000/svg"
 width="70.000000pt" height="70.000000pt" viewBox="0 0 70.000000 70.000000"
 preserveAspectRatio="xMidYMid meet">
<metadata>
Created by potrace 1.11, written by Peter Selinger 2001-2013
</metadata>
<g transform="translate(0.000000,70.000000) scale(0.100000,-0.100000)"
fill="#000000" stroke="none">
<path d="M0 505 c0 -107 3 -195 8 -195 17 0 520 196 635 247 l58 26 -3 56 -3
56 -347 3 -348 2 0 -195z"/>
<path d="M580 484 c-47 -19 -138 -54 -202 -79 -65 -24 -130 -51 -145 -60 l-28
-16 35 7 c37 7 242 68 375 112 66 22 81 31 83 50 5 30 -14 28 -118 -14z"/>
<path d="M590 395 c-41 -13 -133 -41 -205 -62 -71 -20 -122 -39 -112 -41 21
-4 336 54 387 72 24 8 35 18 35 31 0 27 -18 27 -105 0z"/>
<path d="M455 276 c-110 -22 -189 -42 -176 -44 23 -4 318 22 389 34 27 4 33 9
30 27 -2 14 -11 22 -23 23 -11 1 -110 -17 -220 -40z"/>
<path d="M648 215 c-1 -2 -75 -9 -163 -16 -88 -6 -169 -15 -180 -20 -11 -4 71
-8 183 -8 174 -1 203 1 209 14 3 9 3 18 1 21 -7 6 -45 13 -50 9z"/>
<path d="M280 113 c-90 -4 -123 -10 -115 -23 3 -6 18 -10 33 -10 19 0 23 -3
14 -9 -11 -6 -10 -10 5 -16 17 -7 17 -7 0 -14 -24 -9 258 -35 378 -36 l90 0 6
50 c3 28 4 53 2 58 -4 7 -245 7 -413 0z"/>
</g>
</svg>
