<svg xmlns="http://www.w3.org/2000/svg" width="44.944" height="83.129" viewBox="0 0 44.944 83.129"><defs><style>.a{fill:#fff;}</style></defs><path class="a" d="M65.328.017,54.548,0C42.437,0,34.611,8.03,34.611,20.458v9.433H23.772a1.7,1.7,0,0,0-1.7,1.7V45.254a1.7,1.7,0,0,0,1.7,1.7H34.611V81.434a1.694,1.694,0,0,0,1.7,1.7H50.447a1.7,1.7,0,0,0,1.7-1.7V46.949H64.815a1.694,1.694,0,0,0,1.7-1.7l.005-13.667a1.7,1.7,0,0,0-1.7-1.7H52.142v-8c0-3.843.916-5.794,5.922-5.794l7.262,0a1.7,1.7,0,0,0,1.694-1.7V1.712A1.7,1.7,0,0,0,65.328.017Z" transform="translate(-22.077 0)"/></svg>