<svg xmlns="http://www.w3.org/2000/svg" width="64.687" height="64.687" viewBox="0 0 64.687 64.687"><g transform="translate(0 0)"><g transform="translate(0 0)"><g transform="translate(19.294 17.366)"><path d="M308.28,299.938h-5.749V281.252h5.749Zm-2.871-21.083q-3.109,0-3.109-2.878a2.685,2.685,0,0,1,.9-2.04,3.126,3.126,0,0,1,2.211-.838c2.073,0,3.109.964,3.109,2.878S307.482,278.856,305.409,278.856Zm24.2,21.083h-5.868V289.516c0-2.713-.964-4.073-2.878-4.073a2.916,2.916,0,0,0-3,2.277,2.986,2.986,0,0,0-.238,1.439v10.779h-5.868v-12.7c0-2.878-.046-4.871-.119-5.987h5.03l.356,2.515a6.525,6.525,0,0,1,5.868-3,6.175,6.175,0,0,1,4.851,2.092,8.834,8.834,0,0,1,1.861,6.053v11.023Z" transform="translate(-302.3 -273.1)"/></g><path d="M42.343,74.687A32.343,32.343,0,1,1,74.687,42.343,32.379,32.379,0,0,1,42.343,74.687Zm0-57.5A25.155,25.155,0,1,0,67.5,42.343,25.187,25.187,0,0,0,42.343,17.188Z" transform="translate(-10 -10)"/></g></g></svg>