<svg xmlns="http://www.w3.org/2000/svg" width="64.981" height="53.184" viewBox="0 0 64.981 53.184"><path d="M64.98,7.1c-4.088.188-4,.173-4.46.212L62.941.4s-7.556,2.78-9.472,3.277A15.161,15.161,0,0,0,35.613,2.243a12.366,12.366,0,0,0-5.944,12.716A32.983,32.983,0,0,1,8.3,2.928L6.509.775l-1.34,2.46A14.866,14.866,0,0,0,3.586,13.243a14.378,14.378,0,0,0,1.393,3.907l-1.538-.6-.182,2.57a13.71,13.71,0,0,0,2.325,8.15,14.492,14.492,0,0,0,1.811,2.233L6.6,29.384l.97,2.944a14.313,14.313,0,0,0,7.358,8.525c-3.431,1.456-6.2,2.385-10.759,3.884L0,46.108l3.85,2.105A40.412,40.412,0,0,0,15.63,52.5c11.393,1.787,24.219.332,32.855-7.445,7.273-6.551,9.66-15.868,9.164-25.565a6.058,6.058,0,0,1,1.132-3.944c1.613-2.153,6.189-8.428,6.2-8.442Zm-9.243,6.162a9.866,9.866,0,0,0-1.887,6.419c.5,9.781-2.161,17.366-7.91,22.544-6.716,6.049-17.549,8.423-29.72,6.514a29.473,29.473,0,0,1-6.368-1.892,100.971,100.971,0,0,0,11.533-4.74l6.65-3.148-7.342-.47a10.384,10.384,0,0,1-8.246-4.7,13.169,13.169,0,0,0,2.8-.466l7-1.95-7.061-1.729a10.517,10.517,0,0,1-6.424-4.468,10.771,10.771,0,0,1-1.392-3.072,17.627,17.627,0,0,0,2.865.457l6.536.646-5.178-4.039A10.9,10.9,0,0,1,7.461,7.688C19.1,19.766,32.777,18.858,34.153,19.177a22.544,22.544,0,0,0-.39-3.229C32,9.718,35.863,6.554,37.605,5.483A11.371,11.371,0,0,1,51.021,6.594a3.407,3.407,0,0,0,3.126.836,26.312,26.312,0,0,0,2.576-.783l-1.642,4.689h2.1c-.4.53-.87,1.166-1.441,1.927Zm0,0" transform="translate(0 0)"/></svg>