<svg xmlns="http://www.w3.org/2000/svg" width="83.001" height="83" viewBox="0 0 83.001 83"><path d="M45.579,11.557c11.081,0,12.393.042,16.77.242a22.965,22.965,0,0,1,7.706,1.429,12.858,12.858,0,0,1,4.772,3.1,12.858,12.858,0,0,1,3.1,4.772A22.959,22.959,0,0,1,79.36,28.81c.2,4.376.242,5.689.242,16.77s-.042,12.393-.242,16.77a22.969,22.969,0,0,1-1.429,7.706,13.743,13.743,0,0,1-7.876,7.876,22.959,22.959,0,0,1-7.706,1.429c-4.375.2-5.688.242-16.77.242s-12.394-.042-16.77-.242A22.969,22.969,0,0,1,21.1,77.932a12.858,12.858,0,0,1-4.772-3.1,12.858,12.858,0,0,1-3.1-4.772A22.96,22.96,0,0,1,11.8,62.35c-.2-4.376-.242-5.689-.242-16.77s.042-12.393.242-16.77A22.965,22.965,0,0,1,13.227,21.1a12.858,12.858,0,0,1,3.1-4.772,12.858,12.858,0,0,1,4.772-3.1A22.959,22.959,0,0,1,28.809,11.8c4.376-.2,5.689-.242,16.77-.242m0-7.477c-11.271,0-12.685.048-17.11.25A30.459,30.459,0,0,0,18.4,6.258a20.343,20.343,0,0,0-7.35,4.787,20.343,20.343,0,0,0-4.788,7.35A30.466,30.466,0,0,0,4.33,28.469c-.2,4.426-.251,5.84-.251,17.11s.048,12.685.251,17.11A30.46,30.46,0,0,0,6.259,72.763a20.343,20.343,0,0,0,4.787,7.35A20.342,20.342,0,0,0,18.4,84.9a30.462,30.462,0,0,0,10.074,1.929c4.426.2,5.84.25,17.11.25s12.685-.048,17.11-.25A30.46,30.46,0,0,0,72.764,84.9,21.221,21.221,0,0,0,84.9,72.763,30.461,30.461,0,0,0,86.83,62.689c.2-4.426.25-5.84.25-17.11s-.048-12.685-.25-17.11A30.459,30.459,0,0,0,84.9,18.4a20.342,20.342,0,0,0-4.787-7.35,20.342,20.342,0,0,0-7.351-4.788A30.466,30.466,0,0,0,62.689,4.33c-4.426-.2-5.84-.251-17.11-.251h0Z" transform="translate(-4.079 -4.079)"/><path d="M147.946,126.635a21.311,21.311,0,1,0,21.311,21.311A21.311,21.311,0,0,0,147.946,126.635Zm0,35.144a13.833,13.833,0,1,1,13.833-13.833,13.833,13.833,0,0,1-13.833,13.833Z" transform="translate(-106.446 -106.446)"/><circle cx="4.98" cy="4.98" r="4.98" transform="translate(58.673 14.367)"/></svg>