<svg xmlns="http://www.w3.org/2000/svg" viewBox="0 0 19.498 23.438"><defs><style>.a{fill:#fff;}.b{fill:#2fb457;}</style></defs><rect class="a" width="19.427" height="23.438" transform="translate(0.072)"/><path class="b" d="M6.19,200l.222.639H5.977Zm.2-.4h-.4L5.4,201.251h.355l.115-.328h.621l.115.328h.355Z" transform="translate(-4.849 -181.886)"/><path class="b" d="M27.725,200H28.4v.887h-.2l-.044-.2a.6.6,0,0,1-.55.249.671.671,0,0,1-.488-.213.93.93,0,0,1,.231-1.455.879.879,0,0,1,.319-.062.77.77,0,0,1,.55.178.549.549,0,0,1,.2.373h-.319a.4.4,0,0,0-.408-.275.5.5,0,0,0-.293.089.755.755,0,0,0-.133.781.507.507,0,0,0,.382.293.454.454,0,0,0,.382-.151.41.41,0,0,0,.1-.222h-.382Z" transform="translate(-24.405 -181.521)"/><path class="b" d="M50.546,199.793h.47c.151,0,.213.071.213.186a.225.225,0,0,1-.2.249h-.47v-.435ZM50.2,201.16h.346v-.648h.408c.124,0,.2.053.2.169a2,2,0,0,0,0,.328.426.426,0,0,0,.044.151h.373V201.1a.13.13,0,0,1-.062-.133c0-.08-.009-.3-.018-.373-.018-.151-.133-.186-.186-.231a.4.4,0,0,0,.231-.257.518.518,0,0,0-.018-.337.4.4,0,0,0-.39-.266H50.2Z" transform="translate(-45.673 -181.795)"/><path class="b" d="M71.146,201.251H70.8V199.6h.346Z" transform="translate(-64.445 -181.886)"/><path class="b" d="M81.182,200.318a.62.62,0,0,1-.222.453.914.914,0,0,1-.5.16.71.71,0,0,1-.728-.568,1.32,1.32,0,0,1-.035-.293,1.26,1.26,0,0,1,.035-.319.7.7,0,0,1,.737-.55.748.748,0,0,1,.453.133.535.535,0,0,1,.257.462h-.328a.354.354,0,0,0-.426-.3.4.4,0,0,0-.337.266,1.009,1.009,0,0,0-.053.284.749.749,0,0,0,.053.346.422.422,0,0,0,.213.231.356.356,0,0,0,.133.027.775.775,0,0,0,.142-.018.307.307,0,0,0,.257-.3h.346Z" transform="translate(-72.555 -181.521)"/><path class="b" d="M102.84,199.6v1.136a.51.51,0,0,1-.319.5.893.893,0,0,1-.346.071.981.981,0,0,1-.328-.053.568.568,0,0,1-.346-.506v-1.136h.346v1.145c.009.107.035.266.32.266s.319-.16.319-.266v-1.145h.355Z" transform="translate(-92.421 -181.886)"/><path class="b" d="M123.046,199.6v1.367h.808v.284H122.7V199.6Z" transform="translate(-111.739 -181.886)"/><path class="b" d="M138.54,199.6v.284h-.488v1.367h-.346v-1.367H137.2V199.6Z" transform="translate(-124.952 -181.886)"/><path class="b" d="M158.04,199.6v1.136a.51.51,0,0,1-.32.5.893.893,0,0,1-.346.071.981.981,0,0,1-.328-.053.568.568,0,0,1-.346-.506v-1.136h.346v1.145c.009.107.036.266.32.266s.319-.16.319-.266v-1.145h.355Z" transform="translate(-142.722 -181.886)"/><path class="b" d="M178.246,199.793h.47c.151,0,.213.071.213.186a.225.225,0,0,1-.2.249h-.47v-.435Zm-.346,1.367h.346v-.648h.408c.124,0,.2.053.2.169a2.009,2.009,0,0,0,0,.328.425.425,0,0,0,.044.151h.373V201.1a.13.13,0,0,1-.062-.133c0-.08-.009-.3-.018-.373-.018-.151-.133-.186-.186-.231a.4.4,0,0,0,.231-.257.518.518,0,0,0-.018-.337.4.4,0,0,0-.391-.266H177.9Z" transform="translate(-162.04 -181.795)"/><path class="b" d="M200.116,199.6v.284h-.87v.373h.808v.284h-.808v.426h.914v.284H198.9V199.6Z" transform="translate(-181.177 -181.886)"/><path class="b" d="M8.246,230.684h.408c.124,0,.213.044.213.186s-.089.186-.231.186h-.39ZM7.9,232.051h.763a.67.67,0,0,0,.408-.115.446.446,0,0,0,.177-.346.515.515,0,0,0-.2-.417.43.43,0,0,0,.16-.337c0-.071-.035-.435-.6-.435H7.9Zm.346-.7h.47a.173.173,0,0,1,.2.2c0,.222-.16.231-.257.231H8.246Z" transform="translate(-7.127 -209.952)"/><path class="b" d="M31.246,232.051H30.9V230.4h.346Z" transform="translate(-28.086 -209.952)"/><path class="b" d="M43.208,231.629a.506.506,0,0,1-.311-.107.692.692,0,0,1,0-.905.443.443,0,0,1,.311-.107.488.488,0,0,1,.311.107.692.692,0,0,1,0,.905A.506.506,0,0,1,43.208,231.629Zm.808-.568a.942.942,0,0,0-.248-.657.868.868,0,0,0-1.118,0,.992.992,0,0,0,0,1.314.868.868,0,0,0,1.118,0A.984.984,0,0,0,44.015,231.061Z" transform="translate(-38.566 -209.77)"/><path class="b" d="M68.746,230.4v1.367h.808v.284H68.4V230.4Z" transform="translate(-62.258 -209.952)"/><path class="b" d="M88.808,231.629a.506.506,0,0,1-.311-.107.692.692,0,0,1,0-.905.443.443,0,0,1,.311-.107.488.488,0,0,1,.311.107.692.692,0,0,1,0,.905A.488.488,0,0,1,88.808,231.629Zm.808-.568a.942.942,0,0,0-.249-.657.868.868,0,0,0-1.118,0,.992.992,0,0,0,0,1.314.868.868,0,0,0,1.118,0A.942.942,0,0,0,89.615,231.061Z" transform="translate(-80.119 -209.77)"/><path class="b" d="M113.925,230.9h.674v.887h-.2l-.044-.2a.6.6,0,0,1-.55.249.672.672,0,0,1-.488-.213.93.93,0,0,1,.231-1.455.877.877,0,0,1,.32-.062.77.77,0,0,1,.55.177.549.549,0,0,1,.2.373h-.319a.4.4,0,0,0-.408-.275.5.5,0,0,0-.293.089.755.755,0,0,0-.133.781.507.507,0,0,0,.382.293.454.454,0,0,0,.382-.151.41.41,0,0,0,.1-.222h-.382Z" transform="translate(-102.955 -209.679)"/><path class="b" d="M138.846,232.051H138.5V230.4h.346Z" transform="translate(-126.137 -209.952)"/><path class="b" d="M151.094,231.584a.484.484,0,0,1-.2.044.506.506,0,0,1-.311-.107.631.631,0,0,1-.169-.453.6.6,0,0,1,.169-.453.443.443,0,0,1,.311-.107.507.507,0,0,1,.311.107.631.631,0,0,1,.169.453.66.66,0,0,1-.089.355l-.186-.177-.177.186Zm.435.053a1.016,1.016,0,0,0,.186-.577.942.942,0,0,0-.249-.657.868.868,0,0,0-1.118,0,.992.992,0,0,0,0,1.314.778.778,0,0,0,.559.2.877.877,0,0,0,.435-.106l.2.178.178-.186Z" transform="translate(-136.708 -209.77)"/><path class="b" d="M177.14,230.4v1.136a.51.51,0,0,1-.319.5.893.893,0,0,1-.346.071.981.981,0,0,1-.328-.053.568.568,0,0,1-.346-.506v-1.136h.346v1.145c.009.107.035.266.319.266s.32-.16.32-.266v-1.145h.355Z" transform="translate(-160.127 -209.952)"/><path class="b" d="M200.716,230.4v.284h-.87v.373h.808v.284h-.808v.426h.914v.284H199.5V230.4Z" transform="translate(-181.723 -209.952)"/><rect class="b" width="19.478" height="16.401" transform="translate(0 0)"/><path class="a" d="M115.442,65.936h.337c1.154,0,2.1.248,2.1,1.686,0,1.464-.958,1.713-2.13,1.713h-.319v-3.4Zm0,4.411h.763c1.109,0,2.529.3,2.529,1.739,0,1.455-1.2,1.81-2.343,1.81h-.95Zm-1.234,4.686h2.316c1.748,0,3.443-.808,3.443-2.858a2.629,2.629,0,0,0-1.988-2.6v-.027a2.227,2.227,0,0,0,1.056-1.944c0-2.307-1.757-2.8-3.621-2.8H114.2V75.033Z" transform="translate(-103.994 -59.049)"/><path class="a" d="M27.92,65.011a1.107,1.107,0,0,0-.808-.311c-1.118.027-2.716,1.6-3.807,3.159A12.764,12.764,0,0,0,20.9,74.933h1.287a9.392,9.392,0,0,1,.319-2.423H26.97V74.95h1.287V66.155A1.5,1.5,0,0,0,27.92,65.011Zm-5.014,6.248c1.136-2.893,3.284-4.926,4.065-5.227v5.227Z" transform="translate(-18.974 -58.958)"/><path class="a" d="M132.438,18.223a3.569,3.569,0,0,0-1.89-3.923,2.981,2.981,0,0,0,2.547,4.473,3.027,3.027,0,0,0,2.787-1.97A3.61,3.61,0,0,0,132.438,18.223Z" transform="translate(-118.54 -13.031)"/></svg>